<?xml version="1.0" encoding="UTF-8" standalone="no"?>
<svg
   width="239"
   height="50"
   viewBox="0 0 239 50"
   version="1.1"
   id="svg1"
   sodipodi:docname="CEIBO_Logo.svg"
   inkscape:version="1.3.2 (091e20e, 2023-11-25)"
   xmlns:inkscape="http://www.inkscape.org/namespaces/inkscape"
   xmlns:sodipodi="http://sodipodi.sourceforge.net/DTD/sodipodi-0.dtd"
   xmlns="http://www.w3.org/2000/svg"
   xmlns:svg="http://www.w3.org/2000/svg">
  <defs
     id="defs1" />
  <sodipodi:namedview
     id="namedview1"
     pagecolor="#ffffff"
     bordercolor="#000000"
     borderopacity="0.25"
     inkscape:showpageshadow="2"
     inkscape:pageopacity="0.0"
     inkscape:pagecheckerboard="0"
     inkscape:deskcolor="#d1d1d1"
     inkscape:zoom="2.52"
     inkscape:cx="136.11111"
     inkscape:cy="78.571428"
     inkscape:window-width="1360"
     inkscape:window-height="704"
     inkscape:window-x="0"
     inkscape:window-y="27"
     inkscape:window-maximized="1"
     inkscape:current-layer="svg1" />
  <g
     id="surface1" />
  <g
     id="g1">
    <path
       style="fill:#3ad447;fill-opacity:1;fill-rule:nonzero;stroke:none"
       d="M 30.917969,48.125 C 29.324219,48 27.996094,47.78125 26.714844,47.4375 26.207031,47.304688 25.601562,47.140625 25.371094,47.078125 24.578125,46.867188 23.425781,46.394531 22.367188,45.851562 21.359375,45.335938 19.671875,44.355469 19.585938,44.238281 19.566406,44.207031 19.386719,44.082031 19.1875,43.957031 17.65625,43 15.632812,41.058594 14.101562,39.074219 13.96875,38.902344 13.804688,38.703125 13.734375,38.628906 c -0.07031,-0.07031 -0.148437,-0.183594 -0.179687,-0.246094 -0.03125,-0.0625 -0.164063,-0.273437 -0.292969,-0.472656 -0.132813,-0.199218 -0.277344,-0.449218 -0.324219,-0.558594 -0.04687,-0.109374 -0.113281,-0.21875 -0.140625,-0.242187 -0.0625,-0.04687 -0.144531,-0.183594 -0.542969,-0.941406 -0.15625,-0.296875 -0.320312,-0.578125 -0.359375,-0.617188 -0.04297,-0.04297 -0.07422,-0.125 -0.07422,-0.183593 0,-0.05859 -0.08594,-0.238282 -0.1875,-0.402344 C 11.53125,34.796875 11.378906,34.484375 11.296875,34.261719 11.21875,34.042969 11.125,33.828125 11.09375,33.78125 11.0625,33.738281 10.851562,33.144531 10.621094,32.464844 9.800781,30.046875 9.445312,27.328125 9.519531,24.046875 c 0.042969,-1.933594 0.125,-2.652344 0.5,-4.394531 0.226563,-1.050782 0.273438,-1.214844 0.617188,-2.175782 0.277343,-0.789062 0.304687,-0.855468 0.863281,-2.082031 0.484375,-1.070312 0.75,-1.578125 1.320312,-2.527343 0.128907,-0.21875 0.273438,-0.460938 0.320313,-0.535157 0.519531,-0.882812 2.207031,-2.976562 3.097656,-3.847656 C 18.1875,6.574219 20.699219,4.863281 23.191406,3.75 25.175781,2.863281 26.9375,2.351562 29.195312,2 c 1.597657,-0.246094 5.308594,-0.269531 6.726563,-0.039062 3.402344,0.542968 6.351563,1.621093 8.707031,3.179687 0.714844,0.472656 1.078125,0.675781 1.171875,0.652344 0.03516,-0.011719 0.04687,0.011719 0.02344,0.050781 -0.02734,0.039062 0.03516,0.113281 0.136719,0.167969 0.210937,0.113281 0.421874,0.40625 0.289062,0.40625 -0.04687,0 -0.253906,-0.070313 -0.460938,-0.15625 -1.035156,-0.4375 -2.875,-0.6875 -5.058593,-0.679688 C 39,5.585938 37.59375,5.777344 35.683594,6.261719 c -0.644532,0.164062 -2.144532,0.6875 -2.28125,0.792969 -0.04297,0.035156 -0.171875,0.09375 -0.28125,0.125 -0.316406,0.09375 -1.703125,0.800781 -2.550782,1.300781 -0.832031,0.492187 -0.800781,0.46875 -1.214843,0.808593 -0.152344,0.125 -0.40625,0.316407 -0.558594,0.425782 -1.003906,0.707031 -3.003906,2.796875 -3.925781,4.105468 -0.06641,0.09375 -0.144532,0.183594 -0.179688,0.199219 -0.03125,0.01172 -0.05859,0.07422 -0.05859,0.132813 0,0.05859 -0.03125,0.117187 -0.07031,0.132812 -0.175781,0.06641 -1.289062,2.082032 -1.6875,3.058594 -0.777344,1.902344 -0.988281,2.628906 -1.332031,4.578125 -0.351563,1.976563 -0.296875,4.722656 0.128906,6.921875 0.08594,0.457031 0.175781,0.859375 0.195313,0.890625 0.01953,0.03125 0.05469,0.171875 0.08203,0.316406 0.04687,0.277344 0.410156,1.351563 0.632812,1.890625 0.07422,0.175782 0.195313,0.464844 0.269531,0.640625 0.347657,0.828125 1.351563,2.679688 1.875,3.464844 1.042969,1.554687 3.054688,3.632813 4.5,4.648437 0.265626,0.1875 0.558594,0.410157 0.648438,0.492188 0.3125,0.289062 2.558594,1.429688 3.617188,1.839844 0.4375,0.171875 1.105468,0.460937 1.320312,0.574218 0.07422,0.03516 0.398438,0.121094 0.722656,0.1875 0.328125,0.07031 0.828125,0.179688 1.113282,0.242188 1.363281,0.320312 2.1875,0.402344 3.921874,0.394531 1.777344,-0.0078 3.011719,-0.125 4.476563,-0.429687 0.414063,-0.08594 0.847656,-0.15625 0.960937,-0.15625 h 0.207032 l -0.257813,0.238281 c -0.140625,0.132813 -0.273437,0.242187 -0.296875,0.242187 -0.02344,0 -0.34375,0.195313 -0.71875,0.4375 -0.792968,0.507813 -2.617187,1.433594 -3.53125,1.785157 -0.351562,0.132812 -0.875,0.335937 -1.164062,0.445312 -0.285156,0.109375 -0.96875,0.328125 -1.519532,0.484375 -0.902343,0.253906 -1.507812,0.359375 -3.445312,0.605469 -1.09375,0.140625 -2.964844,0.160156 -4.363281,0.04687 z m -5.195313,-3.066406 c 0.25,-0.167969 0.140625,-0.578125 -0.15625,-0.578125 -0.347656,0 -0.511718,0.390625 -0.234375,0.554687 0.167969,0.09766 0.269531,0.101563 0.390625,0.02344 z m -5.070312,-2.753906 c 0.398437,-0.207032 0.390625,-0.464844 -0.01563,-0.695313 L 20.328125,41.4375 20.117188,41.601562 c -0.222657,0.175782 -0.261719,0.382813 -0.125,0.640626 0.09375,0.175781 0.394531,0.203124 0.660156,0.0625 z m -4.429688,-4.875 c 0.210938,-0.113282 0.347656,-0.566407 0.246094,-0.824219 -0.101562,-0.273438 -0.3125,-0.378907 -0.746094,-0.378907 -0.265625,0 -0.394531,0.04688 -0.527344,0.1875 -0.160156,0.167969 -0.171874,0.226563 -0.101562,0.539063 0.04297,0.191406 0.144531,0.398437 0.21875,0.453125 0.167969,0.121094 0.699219,0.136719 0.910156,0.02344 z M 13.3125,31.425781 c 0.332031,-0.203125 0.484375,-0.640625 0.347656,-0.976562 C 13.457031,29.964844 12.726562,29.695312 12.425781,30 c -0.07422,0.07422 -0.195312,0.167969 -0.269531,0.210938 -0.179688,0.09766 -0.191406,0.804687 -0.01563,0.976562 0.425781,0.417969 0.761719,0.488281 1.171875,0.238281 z m 3.933594,-12.554687 c 0.226562,-0.04297 0.234375,-0.191406 0.01172,-0.191406 -0.08984,0 -0.472656,-0.07813 -0.847656,-0.167969 -0.664062,-0.164063 -0.988281,-0.335938 -0.988281,-0.519531 0,-0.04688 -0.242187,-0.324219 -0.542969,-0.613282 -0.492187,-0.476562 -0.578125,-0.527344 -0.980468,-0.582031 -0.238282,-0.03516 -0.570313,-0.128906 -0.734376,-0.210937 -0.582031,-0.292969 -0.664062,-0.164063 -0.375,0.578124 0.277344,0.710938 0.304688,0.753907 0.738282,1.039063 0.605468,0.398437 0.691406,0.4375 1.300781,0.582031 0.769531,0.183594 1.777344,0.21875 2.417969,0.08594 z m -2.535156,-0.679688 c -0.101563,-0.04297 -0.289063,-0.15625 -0.410157,-0.253906 -0.121093,-0.101562 -0.332031,-0.242188 -0.46875,-0.316406 -0.308593,-0.167969 -0.335937,-0.386719 -0.04687,-0.386719 0.28125,0 0.421875,0.08594 0.859375,0.527344 0.484375,0.484375 0.503907,0.605469 0.06641,0.429687 z m 4.691406,-3.011718 c 0.07031,-0.175782 -0.15625,-0.328126 -0.589844,-0.394532 -0.308594,-0.04687 -0.367188,-0.08984 -0.46875,-0.335937 -0.06641,-0.15625 -0.15625,-0.628907 -0.203125,-1.050781 -0.0625,-0.554688 -0.132813,-0.84375 -0.261719,-1.03125 C 17.6875,12.085938 17.355469,11.988281 17.5,12.257812 c 0.121094,0.230469 0.210938,1.25 0.101562,1.179688 -0.132812,-0.07813 -0.230468,-0.511719 -0.386718,-1.648438 -0.171875,-1.269531 -0.199219,-1.332031 -0.441406,-0.878906 -0.160157,0.304688 -0.1875,0.472656 -0.1875,1.15625 0,0.753906 0.01562,0.835938 0.273437,1.351563 0.195313,0.390625 0.335937,0.574219 0.480469,0.625 0.234375,0.08203 0.453125,0.375 0.351562,0.472656 C 17.601562,14.601562 16.886719,14.25 16.585938,13.972656 16.453125,13.851562 16.25,13.703125 16.136719,13.644531 c -0.117188,-0.0625 -0.296875,-0.253906 -0.402344,-0.429687 -0.347656,-0.574219 -0.550781,-0.703125 -0.550781,-0.347656 0,0.441406 0.855468,1.351562 1.644531,1.742187 1.183594,0.589844 2.457031,0.871094 2.574219,0.570313 z m 1.585937,-4.351563 c 0.04687,-0.07422 -0.230469,-0.53125 -0.398437,-0.664063 -0.04687,-0.03516 -0.179688,-0.08594 -0.300782,-0.109374 -0.261718,-0.058594 -0.527343,-0.410157 -0.359374,-0.476563 0.0625,-0.023437 0.210937,-0.00391 0.332031,0.042969 0.304687,0.117187 1.449219,0.027344 1.769531,-0.140625 0.144531,-0.074219 0.382812,-0.199219 0.53125,-0.277344 0.515625,-0.273437 0.851562,-1.035156 0.746094,-1.699219 -0.105469,-0.644531 -0.5,-1.296875 -0.675782,-1.117187 -0.04297,0.042969 -0.02344,0.304687 0.04688,0.632812 C 22.753906,7.355469 22.785156,7.75 22.757812,8 c -0.04687,0.410156 -0.1875,0.824219 -0.28125,0.824219 -0.02344,0 -0.05078,-0.445313 -0.05859,-0.984375 C 22.410156,7.050781 22.375,6.789062 22.246094,6.488281 22.066406,6.074219 21.9375,5.957031 21.808594,6.085938 c -0.0625,0.0625 -0.05859,0.152343 0.01563,0.3125 0.05469,0.121093 0.121093,0.53125 0.144531,0.914062 0.04297,0.703125 -0.07422,1.253906 -0.363281,1.722656 C 21.421875,9.335938 20.753906,9.390625 19.875,9.1875 19.402344,9.078125 19.289062,9.121094 19.417969,9.359375 c 0.04297,0.078125 0.101562,0.242187 0.125,0.363281 0.02734,0.125 0.140625,0.269532 0.265625,0.335938 0.121094,0.06641 0.382812,0.28125 0.578125,0.476562 0.367187,0.363282 0.515625,0.433594 0.601562,0.292969 z m 0.175781,-0.375 c -0.03125,-0.03125 -0.05469,-0.0078 -0.05469,0.05078 0,0.05859 0.02344,0.08594 0.05469,0.05469 0.02734,-0.02734 0.02734,-0.07813 0,-0.105469 z M 45.171875,5.777344 c 0.02734,-0.042969 0.03125,-0.078125 0.01172,-0.078125 -0.02344,0 -0.0625,0.035156 -0.08984,0.078125 -0.02734,0.042968 -0.03125,0.082031 -0.01172,0.082031 0.02344,0 0.0625,-0.039063 0.08984,-0.082031 z M 44.8125,5.503906 c 0,-0.019531 -0.04297,-0.0625 -0.09375,-0.09375 C 44.66406,5.375 44.64844,5.386719 44.68359,5.445312 c 0.05859,0.09375 0.128906,0.125 0.128906,0.058594 z m 0.769531,37.363282 c -0.07031,-0.351563 -0.05859,-0.449219 0.03125,-0.308594 0.05469,0.08203 0.06641,-0.0039 0.04297,-0.28125 -0.03516,-0.390625 -0.03516,-0.394532 0.03516,-0.08203 0.09375,0.417969 0.101563,0.921876 0.01172,0.921876 -0.03906,0 -0.09375,-0.113282 -0.121094,-0.25 z M 45.425781,42.34375 C 45.398438,42.3125 45.375,42.253906 45.375,42.207031 c 0,-0.05078 0.03516,-0.04687 0.09375,0.01172 0.05078,0.05078 0.07422,0.113281 0.05078,0.136719 -0.01953,0.02344 -0.0625,0.01563 -0.09375,-0.01172 z m -0.121093,-0.640625 c -0.05078,-0.203125 -0.08203,-0.382813 -0.06641,-0.402344 0.01953,-0.01563 0.07813,0.132813 0.136719,0.335938 0.05469,0.199219 0.08594,0.378906 0.06641,0.398437 -0.01953,0.01953 -0.08203,-0.128906 -0.136719,-0.332031 z m 0.230468,-0.02734 c 0,-0.08984 0.03125,-0.160156 0.07031,-0.160156 0.03906,0 0.05469,0.07031 0.03125,0.160156 -0.02344,0.08594 -0.05469,0.160157 -0.07422,0.160157 -0.01563,0 -0.02734,-0.07422 -0.02734,-0.160157 z m -0.07422,-0.449219 c 0.0039,-0.09375 0.02344,-0.109374 0.04687,-0.04687 0.02344,0.05859 0.01953,0.125 -0.0078,0.152343 -0.02344,0.02734 -0.04297,-0.01953 -0.03906,-0.105469 z M 45.140623,41.06641 c 0.0039,-0.09375 0.02344,-0.109375 0.04687,-0.04687 0.02344,0.05859 0.01953,0.125 -0.0078,0.152344 -0.02344,0.02734 -0.04297,-0.01953 -0.03906,-0.105469 z m 0.238281,-0.160156 c 0.0039,-0.09375 0.02344,-0.109375 0.05078,-0.04687 0.01953,0.05859 0.01953,0.125 -0.0078,0.152344 -0.02734,0.02734 -0.04687,-0.01953 -0.04297,-0.105469 z m -0.4375,-0.480469 c -0.07813,-0.246093 -0.125,-0.460937 -0.109375,-0.480469 0.01953,-0.01562 0.09375,0.171876 0.171875,0.414063 0.07813,0.246094 0.128906,0.464844 0.109375,0.480469 -0.01563,0.01953 -0.09375,-0.167969 -0.171875,-0.414063 z m 0.316406,0.08203 c -0.02734,-0.117187 -0.03516,-0.230468 -0.01953,-0.246093 0.01953,-0.01953 0.05859,0.05859 0.08984,0.175781 0.02734,0.117188 0.03906,0.230469 0.01953,0.25 -0.01953,0.01953 -0.05859,-0.0625 -0.08984,-0.179688 z m -0.199218,-0.683593 c -0.05078,-0.179688 -0.117188,-0.386719 -0.144532,-0.453125 -0.03125,-0.07813 -0.01562,-0.105469 0.03516,-0.07422 0.08594,0.05469 0.296875,0.769531 0.242187,0.824219 -0.01953,0.01953 -0.07813,-0.117188 -0.132812,-0.296875 z m -0.324219,-0.07031 c 0,-0.05859 0.02344,-0.08594 0.05078,-0.05469 0.03125,0.02734 0.03125,0.07813 0,0.105469 -0.02734,0.03125 -0.05078,0.0078 -0.05078,-0.05078 z m -0.08203,-0.203125 c 0,-0.01953 0.01953,-0.03906 0.03906,-0.03906 0.02344,0 0.04297,0.01953 0.04297,0.03906 0,0.02344 -0.01953,0.04297 -0.04297,0.04297 -0.01953,0 -0.03906,-0.01953 -0.03906,-0.04297 z m -0.07813,-0.199219 c 0,-0.05859 0.02344,-0.08203 0.05078,-0.05469 0.03125,0.03125 0.03125,0.07813 0,0.109375 -0.02734,0.02734 -0.05078,0.0039 -0.05078,-0.05469 z m -0.08203,-0.199218 c 0,-0.02344 0.01953,-0.04297 0.03906,-0.04297 0.02344,0 0.04297,0.01953 0.04297,0.04297 0,0.01953 -0.01953,0.03906 -0.04297,0.03906 -0.01953,0 -0.03906,-0.01953 -0.03906,-0.03906 z m 0.320312,-0.04297 c 0,-0.05859 0.02344,-0.08203 0.05469,-0.05078 0.02734,0.02734 0.02734,0.07813 0,0.105468 -0.03125,0.03125 -0.05469,0.0039 -0.05469,-0.05469 z m -0.441406,-0.160156 c 0.02734,-0.04297 0.06641,-0.07813 0.08594,-0.07813 0.01953,0 0.03516,0.03516 0.03516,0.07813 0,0.04687 -0.03906,0.08203 -0.08594,0.08203 -0.04687,0 -0.0625,-0.03516 -0.03516,-0.08203 z m 0.363281,-0.07813 c 0,-0.05859 0.02344,-0.08203 0.05078,-0.05469 0.03125,0.03125 0.03125,0.07813 0,0.109375 -0.02734,0.02734 -0.05078,0.0039 -0.05078,-0.05469 z M 44.085938,38.15625 C 43.9375,37.808594 43.78125,37.542969 43.738281,37.566406 c -0.03906,0.02734 -0.04297,0.0039 -0.0078,-0.05469 0.03516,-0.05469 0.03125,-0.125 -0.0078,-0.152344 -0.09766,-0.07031 -0.269531,-0.390625 -0.269531,-0.496094 0,-0.05078 -0.125,-0.234375 -0.277344,-0.414062 -0.152343,-0.179688 -0.273437,-0.347657 -0.273437,-0.375 0.01953,-0.140625 -0.01953,-0.253907 -0.07031,-0.222657 -0.105469,0.0625 -0.261719,-0.152343 -0.261719,-0.351562 0,-0.04687 -0.06641,-0.0625 -0.152343,-0.03906 -0.101563,0.03516 -0.199219,-0.01172 -0.300781,-0.136719 -0.15625,-0.199219 -0.398438,-0.335938 -0.660157,-0.371094 -0.04297,-0.0039 -0.132812,-0.06641 -0.203125,-0.132813 -0.06641,-0.07031 -0.355468,-0.191406 -0.632812,-0.273437 -0.523438,-0.148437 -0.957032,-0.128906 -1.292969,0.05859 -0.460937,0.257812 -2.84375,1.378906 -3.097656,1.457031 -0.339844,0.105469 -1.667969,0.08984 -1.667969,-0.01953 0,-0.04297 -0.07031,-0.05469 -0.160156,-0.03516 -0.08984,0.02344 -0.140625,0.01172 -0.117188,-0.02344 0.02344,-0.03906 -0.07813,-0.09375 -0.222656,-0.121094 -0.199219,-0.03516 -0.324219,-0.140625 -0.523438,-0.445312 -0.144531,-0.21875 -0.296874,-0.378907 -0.339843,-0.351563 -0.04297,0.02734 -0.05469,-0.0078 -0.03125,-0.07422 0.02734,-0.07031 -0.03125,-0.25 -0.128907,-0.410157 -0.113281,-0.1875 -0.183593,-0.453125 -0.207031,-0.78125 l -0.03125,-0.5 0.105469,0.414063 c 0.242188,0.925781 0.800781,1.742187 1.433594,2.085937 0.207031,0.113281 0.445312,0.144531 1.101562,0.144531 h 0.84375 l 0.832032,-0.394531 c 0.980468,-0.460937 1.863281,-0.941406 1.8125,-0.988281 -0.01563,-0.01953 -0.546876,0.164062 -1.179688,0.402344 -1.121094,0.429687 -1.585938,0.578125 -1.585938,0.507812 0,-0.01953 0.132813,-0.07813 0.296876,-0.132812 0.296874,-0.09766 0.554687,-0.289063 0.488281,-0.359375 -0.02344,-0.01953 -0.195313,-0.0078 -0.390625,0.02344 -0.195313,0.03516 -0.644532,0.03906 -0.996094,0.01563 l -0.640625,-0.04687 0.761719,-0.01563 c 0.417968,-0.0078 1.101562,-0.08984 1.519531,-0.183593 1.429687,-0.3125 1.882813,-0.386719 2.644531,-0.4375 l 0.761719,-0.05078 0.824219,0.417969 c 0.453125,0.226563 0.949218,0.523437 1.097656,0.652344 0.441406,0.390625 1.175781,1.648437 1.671875,2.871093 0.300781,0.738282 0.203125,0.683594 -0.117187,-0.07031 z m -1.035157,-2.050781 c 0,-0.01953 -0.01953,-0.03906 -0.03906,-0.03906 -0.02344,0 -0.03906,0.01953 -0.03906,0.03906 0,0.02344 0.01563,0.03906 0.03906,0.03906 0.01953,0 0.03906,-0.01563 0.03906,-0.03906 z m -0.640625,-0.714844 c 0,-0.01953 -0.03516,-0.05859 -0.07813,-0.08594 -0.04687,-0.02734 -0.08203,-0.01172 -0.08203,0.03516 0,0.04687 0.03516,0.08594 0.08203,0.08594 0.04297,0 0.07813,-0.01563 0.07813,-0.03516 z M 41.609375,34.90625 c 0,-0.02344 -0.01953,-0.04297 -0.03906,-0.04297 -0.02344,0 -0.03906,0.01953 -0.03906,0.04297 0,0.01953 0.01563,0.03906 0.03906,0.03906 0.01953,0 0.03906,-0.01953 0.03906,-0.03906 z m 2.886719,3.265625 C 44.390625,37.875 44.078125,37.183594 43.800781,36.640625 43.527344,36.09375 43.367188,35.714844 43.445312,35.796875 43.527344,35.878906 43.578125,35.96875 43.5625,36 c -0.01953,0.02734 -0.0039,0.06641 0.02734,0.07813 0.03516,0.01563 0.199218,0.316406 0.367187,0.667969 0.285157,0.605468 0.359375,0.765625 0.617188,1.363281 0.101562,0.234375 0.1875,0.601563 0.140625,0.601563 -0.01172,0 -0.109375,-0.242188 -0.21875,-0.539063 z m -0.08203,-0.945313 c 0,-0.01953 0.01563,-0.03906 0.03906,-0.03906 0.01953,0 0.03906,0.01953 0.03906,0.03906 0,0.02344 -0.01953,0.04297 -0.03906,0.04297 -0.02344,0 -0.03906,-0.01953 -0.03906,-0.04297 z m -0.160156,-1.085937 c 0,-0.04687 0.03516,-0.0625 0.07813,-0.03516 0.04297,0.02734 0.08203,0.06641 0.08203,0.08594 0,0.01953 -0.03906,0.03516 -0.08203,0.03516 -0.04297,0 -0.07813,-0.03906 -0.07813,-0.08594 z m -0.5625,-0.195313 c 0,-0.01953 0.01953,-0.03906 0.03906,-0.03906 0.02344,0 0.04297,0.01953 0.04297,0.03906 0,0.02344 -0.01953,0.03906 -0.04297,0.03906 -0.01953,0 -0.03906,-0.01563 -0.03906,-0.03906 z M 33.601562,35.746094 c 0,-0.05859 0.02344,-0.08203 0.05469,-0.05469 0.02734,0.03125 0.02734,0.07813 0,0.109375 -0.03125,0.02734 -0.05469,0.0039 -0.05469,-0.05469 z m 0.890626,-0.21875 c -0.148438,-0.07031 -0.414063,-0.3125 -0.585938,-0.53125 -0.332031,-0.417969 -0.742188,-1.164063 -0.679688,-1.226563 0.01953,-0.01953 0.300782,0.1875 0.625,0.460938 0.324219,0.269531 0.691407,0.53125 0.820313,0.574219 0.167969,0.05859 0.199219,0.09766 0.117187,0.148437 -0.136718,0.08984 -0.246093,0.08984 -0.195312,0.0039 0.05469,-0.08984 -0.300781,-0.253906 -0.550781,-0.253906 -0.101563,0 -0.207031,-0.04297 -0.226563,-0.09766 -0.02344,-0.05469 -0.04687,-0.0625 -0.04687,-0.01563 -0.01172,0.121094 0.332031,0.5625 0.597657,0.773437 0.203124,0.160157 0.324218,0.183594 0.984374,0.179688 0.414063,0 0.667969,0.02344 0.5625,0.05469 -0.375,0.101563 -1.148437,0.06641 -1.421874,-0.07031 z m 8.667968,-0.04297 c -0.03125,-0.05469 -0.113281,-0.1875 -0.179687,-0.300781 -0.121094,-0.199219 -0.121094,-0.199219 0.04687,-0.05469 0.08984,0.08203 0.1875,0.214844 0.207031,0.300782 0.04687,0.179687 0.01563,0.203124 -0.07422,0.05469 z m -10.28125,-0.222656 c 0,-0.04687 0.03906,-0.0625 0.08203,-0.03516 0.04297,0.02734 0.07812,0.0625 0.07812,0.08203 0,0.01953 -0.03516,0.03516 -0.07812,0.03516 -0.04297,0 -0.08203,-0.03516 -0.08203,-0.08203 z m 0.08203,-0.195313 c 0,-0.02344 0.01953,-0.04297 0.03906,-0.04297 0.02344,0 0.03906,0.01953 0.03906,0.04297 0,0.01953 -0.01562,0.03906 -0.03906,0.03906 -0.01953,0 -0.03906,-0.01953 -0.03906,-0.03906 z m 0.04687,-0.257812 c -0.04687,-0.113282 -0.03516,-0.125 0.04297,-0.04687 0.05469,0.05469 0.07813,0.121093 0.05469,0.144531 -0.02344,0.02344 -0.07031,-0.01953 -0.09766,-0.09766 z m 9.28125,0.05469 c -0.05469,-0.08984 -0.863281,-0.511719 -1.320312,-0.691406 -0.25,-0.09766 -0.253906,-0.105469 -0.03906,-0.05859 0.132812,0.02734 0.285156,0.05078 0.339843,0.05469 0.05469,0 0.101563,0.03125 0.101563,0.0625 0,0.06641 0.320312,0.195312 0.417968,0.167969 0.03516,-0.0078 0.0625,0.02344 0.0625,0.07031 0,0.04687 0.03516,0.0625 0.07813,0.03516 0.121093,-0.07422 0.101562,-0.300781 -0.01953,-0.230468 -0.05469,0.03125 -0.07422,0.02734 -0.04297,-0.0078 0.03125,-0.03516 -0.01172,-0.164063 -0.101563,-0.285156 -0.08594,-0.121094 -0.15625,-0.261719 -0.15625,-0.308594 0,-0.05078 -0.03906,-0.08984 -0.08594,-0.08984 -0.04688,0 -0.0625,-0.03125 -0.03906,-0.07422 0.02734,-0.03906 0.01953,-0.08594 -0.01563,-0.09766 -0.03124,-0.01565 -0.167964,-0.191428 -0.300776,-0.38674 -0.132813,-0.199219 -0.335938,-0.445313 -0.457031,-0.546876 -0.117188,-0.101562 -0.195313,-0.234374 -0.171876,-0.292968 0.02344,-0.0625 -0.03516,-0.152344 -0.125,-0.203125 -0.09375,-0.04687 -0.152343,-0.117188 -0.132812,-0.152344 0.132812,-0.210937 -0.539062,-0.648437 -1,-0.648437 -0.125,0 -0.25,-0.03906 -0.277344,-0.08594 -0.03125,-0.04687 -0.113281,-0.0625 -0.183594,-0.03516 -0.07031,0.02734 -0.101562,0.02344 -0.07031,-0.01172 0.152344,-0.152344 -1.214844,-0.445313 -2.144531,-0.460937 -0.222657,-0.0039 -0.417969,-0.03125 -0.441407,-0.0625 -0.02344,-0.02734 -0.199218,-0.02344 -0.394531,0.01172 -0.195312,0.03516 -0.402343,0.04687 -0.457031,0.02734 -0.136719,-0.05469 -1.65625,0.296875 -1.71875,0.394531 -0.02734,0.03906 -0.07422,0.07031 -0.101562,0.06641 -0.07813,-0.01563 -0.726563,0.179687 -0.773438,0.230468 -0.01953,0.02344 -0.09375,0.05078 -0.160156,0.05859 -0.0625,0.0039 -0.40625,0.07422 -0.757813,0.148438 -0.6875,0.148437 -2.050781,0.117187 -2.253906,-0.05078 -0.05859,-0.04687 -0.140625,-0.0625 -0.1875,-0.03516 -0.04297,0.03125 -0.08203,0.01172 -0.08203,-0.03906 0,-0.05078 -0.05469,-0.07422 -0.121094,-0.04688 -0.06641,0.02344 -0.121094,0.01172 -0.121094,-0.02734 0,-0.03906 -0.125,-0.117188 -0.277344,-0.175781 -0.378906,-0.136719 -0.359374,-0.332032 0.05859,-0.621094 0.1875,-0.132813 0.402344,-0.292969 0.480469,-0.363282 0.07813,-0.07031 0.171875,-0.125 0.210937,-0.125 0.03906,0 0.113282,-0.05469 0.167969,-0.121093 0.05469,-0.0625 0.132813,-0.09766 0.171875,-0.07422 0.03906,0.02344 0.15625,-0.04687 0.257813,-0.160156 0.128906,-0.136719 0.277343,-0.207032 0.441406,-0.207032 0.140625,0 0.320313,-0.06641 0.40625,-0.152343 0.09766,-0.09766 0.21875,-0.140625 0.339844,-0.113281 0.152343,0.03516 0.164062,0.02344 0.06641,-0.05469 -0.101563,-0.07813 -0.08984,-0.08594 0.0625,-0.05078 0.09766,0.01953 0.3125,0.0039 0.46875,-0.04297 0.789063,-0.214844 1.550781,-0.320312 1.949219,-0.269531 0.628906,0.08594 1.121094,0.21875 1.121094,0.300781 0,0.04687 0.07422,0.0625 0.164062,0.03906 0.08594,-0.02344 0.140625,-0.01172 0.117188,0.02344 -0.05078,0.08594 0.984374,0.402344 1.152343,0.347656 0.101563,-0.03125 0.105469,-0.02344 0.02344,0.03516 -0.08594,0.0625 -0.08594,0.08594 0.01172,0.125 0.06641,0.02344 0.140624,-0.0078 0.164062,-0.07031 0.02734,-0.0625 0.08594,-0.117188 0.136719,-0.117188 0.06641,0 0.06641,0.03516 -0.0039,0.121094 -0.07812,0.08984 -0.07812,0.121094 -0.0078,0.121094 0.05469,0 0.07422,0.03125 0.05078,0.07031 -0.08984,0.144532 0.195313,0.253907 1.082031,0.410157 1.046876,0.1875 1.4375,0.242187 1.296876,0.1875 -0.05469,-0.02344 -0.101563,-0.07422 -0.101563,-0.117188 0,-0.04297 0.03516,-0.05859 0.08203,-0.03125 0.04297,0.02734 0.07813,0.01563 0.07813,-0.02734 0,-0.03906 -0.05469,-0.09375 -0.121093,-0.121094 -0.06641,-0.02344 -0.117188,-0.101563 -0.117188,-0.171875 0,-0.07031 -0.03516,-0.105469 -0.07813,-0.08203 -0.04297,0.02734 -0.101563,-0.03906 -0.128906,-0.152344 -0.02734,-0.109375 -0.09766,-0.238282 -0.160157,-0.289063 -0.05859,-0.04687 -0.08594,-0.136719 -0.06641,-0.195312 0.02344,-0.05859 0.0078,-0.125 -0.03125,-0.148438 -0.03906,-0.02734 -0.06641,0.05859 -0.05859,0.1875 0.01172,0.195313 -0.0039,0.222657 -0.09766,0.144531 -0.08594,-0.07031 -0.08984,-0.105468 -0.0078,-0.152343 0.07813,-0.04687 0.06641,-0.101563 -0.05078,-0.226563 -0.08203,-0.09375 -0.113281,-0.167968 -0.07422,-0.167968 0.03906,-0.0039 -0.01172,-0.07422 -0.113282,-0.160157 -0.105468,-0.08594 -0.167968,-0.183593 -0.148437,-0.222656 0.02344,-0.03516 0.0078,-0.117187 -0.03125,-0.179687 -0.0625,-0.101563 -0.07422,-0.101563 -0.07813,0.0039 -0.0039,0.06641 -0.03906,0.03906 -0.08203,-0.06641 -0.04297,-0.101563 -0.109375,-0.164063 -0.15625,-0.136719 -0.04297,0.02734 -0.05859,-0.0039 -0.03125,-0.07422 0.02734,-0.07031 0.0078,-0.125 -0.04687,-0.125 -0.05078,0 -0.07031,-0.03125 -0.04687,-0.07031 0.02344,-0.03906 -0.03125,-0.08984 -0.125,-0.113282 -0.101563,-0.02734 -0.144531,-0.08203 -0.109375,-0.140625 0.04297,-0.06641 0.0078,-0.07813 -0.109375,-0.03906 -0.195313,0.0625 -0.488281,-0.152344 -0.3125,-0.222657 0.05469,-0.02344 0,-0.04297 -0.121094,-0.04687 -0.121094,-0.0039 -0.21875,-0.04297 -0.21875,-0.08594 0,-0.04687 -0.05859,-0.08203 -0.125,-0.08203 -0.07031,0 -0.179687,-0.05078 -0.242187,-0.117188 -0.06641,-0.0625 -0.171876,-0.09766 -0.234376,-0.07031 -0.06641,0.02344 -0.121093,0.0078 -0.121093,-0.03516 0,-0.04687 -0.07813,-0.06641 -0.179688,-0.04297 -0.144531,0.03125 -0.15625,0.02344 -0.05859,-0.04687 0.09766,-0.07031 0.08984,-0.08594 -0.0625,-0.08594 -0.101563,0 -0.398438,-0.09375 -0.660157,-0.203125 -0.257812,-0.109375 -0.5625,-0.199218 -0.671875,-0.199218 -0.109375,0 -0.21875,-0.03516 -0.242187,-0.07422 -0.02344,-0.03906 -0.109375,-0.0625 -0.183594,-0.05078 -0.07813,0.01172 -0.269531,-0.02344 -0.421875,-0.07422 -0.152344,-0.05469 -0.328125,-0.08203 -0.390625,-0.05859 -0.05859,0.01953 -0.132813,0.0039 -0.160156,-0.03906 -0.07422,-0.105468 -0.742188,-0.34375 -0.972657,-0.34375 -0.109374,0 -0.300781,-0.05469 -0.425781,-0.121093 -0.125,-0.06641 -0.257812,-0.101563 -0.292969,-0.08203 -0.03516,0.02344 -0.105468,-0.01172 -0.160156,-0.07813 -0.05469,-0.06641 -0.148437,-0.121093 -0.210937,-0.121093 -0.05859,0 -0.109375,-0.03906 -0.109375,-0.08594 0,-0.04297 -0.03516,-0.05859 -0.08203,-0.03125 -0.04297,0.02734 -0.05859,0.08203 -0.03516,0.125 0.02734,0.03906 -0.02734,0.07422 -0.113281,0.07422 -0.08984,0 -0.183594,-0.03906 -0.210937,-0.08203 -0.02734,-0.04297 0.02344,-0.07813 0.113281,-0.07813 0.08594,0 0.179687,-0.03906 0.207031,-0.08203 0.02734,-0.04297 -0.03125,-0.07812 -0.132812,-0.08203 -0.175782,0 -0.515626,-0.152343 -0.351563,-0.15625 0.04297,0 -0.109375,-0.121093 -0.335937,-0.269531 -0.230469,-0.148438 -0.398438,-0.289062 -0.375,-0.308594 0.01953,-0.02344 -0.05078,-0.101562 -0.164063,-0.175781 C 28.960938,23.9375 28.875,23.917969 28.875,23.96875 c 0,0.04687 -0.03906,0.0625 -0.08594,0.03125 -0.05859,-0.03516 -0.0625,-0.07031 -0.0078,-0.105469 0.09375,-0.05469 -0.08594,-0.351562 -0.199219,-0.324219 -0.03516,0.01172 -0.109375,-0.0625 -0.160156,-0.164062 C 28.371094,23.304688 28.292969,23.203125 28.25,23.175781 28.207031,23.148438 28.132812,23 28.089844,22.84375 c -0.07422,-0.261719 -0.08203,-0.265625 -0.08594,-0.05859 -0.0039,0.121094 -0.04687,0.21875 -0.09766,0.21875 -0.04687,0 -0.06641,-0.05469 -0.03906,-0.125 0.109374,-0.289062 0.140624,-0.515625 0.07031,-0.515625 -0.03906,0 -0.07422,-0.09766 -0.07422,-0.21875 0,-0.121093 -0.02734,-0.300781 -0.05859,-0.402343 -0.05078,-0.152344 -0.03125,-0.179688 0.125,-0.175782 0.101562,0.0039 0.332031,0.05469 0.507812,0.117188 0.175781,0.06641 0.402344,0.117187 0.503906,0.117187 0.101563,0.0039 0.164063,0.03906 0.136719,0.08203 -0.02734,0.04688 0.0039,0.05859 0.07422,0.03125 0.07031,-0.02734 0.171875,-0.01172 0.226562,0.02734 0.152344,0.121094 0.46875,0.183594 0.40625,0.08203 -0.03516,-0.05469 0.01172,-0.06641 0.140625,-0.03516 0.105469,0.03125 0.226563,0.05469 0.273438,0.05859 0.04297,0.0039 0.0078,0.03906 -0.08203,0.07813 -0.136719,0.05859 -0.125,0.07031 0.08203,0.07422 0.46875,0.01563 1.191406,0.355469 1.632812,0.769531 0.253907,0.242188 0.289063,0.253906 0.386719,0.128906 0.09766,-0.117187 0.09766,-0.109375 0.02344,0.04687 -0.04688,0.101563 -0.05859,0.179688 -0.01953,0.179688 0.03906,0 0.117188,0.08984 0.175782,0.199219 0.05859,0.109374 0.144531,0.175781 0.195312,0.148437 0.04687,-0.02734 0.0625,-0.02344 0.02734,0.01172 -0.03125,0.03516 0.04687,0.199218 0.175781,0.359375 0.128906,0.164062 0.277344,0.390625 0.332031,0.511719 0.05469,0.117187 0.128906,0.214843 0.167969,0.214843 0.04297,0 0.04687,-0.04297 0.01563,-0.09375 -0.03516,-0.05469 -0.01953,-0.07031 0.03125,-0.03906 0.05078,0.03125 0.06641,0.117187 0.03906,0.1875 -0.03516,0.09766 -0.01562,0.121093 0.07813,0.08203 0.09766,-0.03516 0.121093,-0.0078 0.09766,0.109375 -0.03125,0.167969 0.21875,0.511719 0.464844,0.644531 0.07812,0.04297 0.273437,0.09375 0.4375,0.113282 0.160156,0.02344 0.316406,0.07812 0.34375,0.121093 0.02734,0.04297 0.191406,0.101563 0.363281,0.128907 0.175781,0.02734 0.375,0.101562 0.449219,0.164062 0.07422,0.06641 0.171874,0.09766 0.214843,0.07031 0.04297,-0.02734 0.101563,-0.01562 0.128907,0.02734 0.02734,0.04297 0.109374,0.05859 0.1875,0.03516 0.121093,-0.03906 0.125,-0.03516 0.0039,0.04297 -0.175782,0.117188 -2.183594,-0.566406 -2.476563,-0.84375 C 33.5625,25.414062 33.296875,25.03125 33.082031,24.667969 32.636719,23.914062 31.65625,22.878906 31.140625,22.613281 30.953125,22.519531 30.347656,22.351562 29.792969,22.242188 29.238281,22.132812 28.65625,21.988281 28.5,21.921875 c -0.421875,-0.175781 -0.449219,-0.160156 -0.390625,0.21875 0.140625,0.871094 0.742187,1.667969 1.78125,2.351563 1.058594,0.699218 1.339844,0.8125 3.292969,1.324218 2.179687,0.570313 3.640625,1.140625 4.273437,1.671875 0.289063,0.242188 2.363281,3.261719 2.292969,3.335938 -0.02344,0.01953 -0.359375,-0.06641 -0.75,-0.195313 -1.609375,-0.527344 -3.074219,-0.652344 -4.515625,-0.382812 -0.753906,0.136718 -0.988281,0.117187 -0.289063,-0.02734 0.242188,-0.05078 0.464844,-0.125 0.488282,-0.164062 0.183594,-0.292969 -1.421875,-0.07422 -3.125,0.429687 -0.21875,0.06641 -0.570313,0.140625 -0.78125,0.171875 -0.207032,0.02734 -0.472656,0.101562 -0.589844,0.160156 -0.203125,0.105469 -0.195312,0.109375 0.242188,0.164063 0.371093,0.04687 0.832031,0.01563 1.289062,-0.08594 0.04297,-0.01172 0.472656,-0.132812 0.949219,-0.273437 0.476562,-0.136719 0.902343,-0.242188 0.945312,-0.226563 0.121094,0.03906 -1.632812,0.546875 -2.285156,0.660157 -0.375,0.06641 -0.75,0.07812 -1.054687,0.03516 -0.457032,-0.0625 -0.835938,-0.203125 -0.835938,-0.316406 0,-0.02734 0.269531,-0.07813 0.601562,-0.109376 0.332032,-0.02734 1.152344,-0.195312 1.824219,-0.367187 1.878907,-0.480469 2.519531,-0.578125 3.492188,-0.539063 0.464843,0.01953 0.933593,0.0625 1.042969,0.101563 0.128906,0.04297 0.175781,0.03516 0.136718,-0.02344 -0.02734,-0.04688 -0.3125,-0.183594 -0.632812,-0.304688 -0.316406,-0.121094 -0.8125,-0.308594 -1.101563,-0.421875 -0.929687,-0.363281 -1.871093,-0.320313 -3.335937,0.148437 -0.40625,0.132813 -0.945313,0.351563 -1.203125,0.492188 -0.558594,0.304688 -1.527344,0.933594 -1.585938,1.03125 -0.0625,0.101562 0.25,0.28125 0.820313,0.472656 0.941406,0.3125 2.285156,0.199219 3.695312,-0.316406 0.964844,-0.351562 1.777344,-0.492188 2.851563,-0.492188 0.984375,0 2.398437,0.222657 2.835937,0.445313 0.113282,0.05859 0.371094,0.136719 0.570313,0.167969 0.195312,0.03125 0.421875,0.08984 0.496093,0.128906 0.304688,0.164062 2.667969,3.757812 2.46875,3.757812 -0.04297,0 -0.09766,-0.03906 -0.125,-0.08203 z M 40.41015,31.859377 c 0,-0.02344 -0.01953,-0.03906 -0.04297,-0.03906 -0.01953,0 -0.03906,0.01563 -0.03906,0.03906 0,0.02344 0.01953,0.03906 0.03906,0.03906 0.02344,0 0.04297,-0.01563 0.04297,-0.03906 z m -0.5625,-0.640625 c 0,-0.02344 -0.01953,-0.03906 -0.03906,-0.03906 -0.02344,0 -0.03906,0.01562 -0.03906,0.03906 0,0.02344 0.01563,0.03906 0.03906,0.03906 0.01953,0 0.03906,-0.01562 0.03906,-0.03906 z m -0.664062,-0.730469 c -0.02344,-0.02734 -0.09375,-0.02734 -0.152344,-0.0039 -0.0625,0.02344 -0.04297,0.04297 0.05078,0.04687 0.08203,0.0039 0.128907,-0.01563 0.101564,-0.04297 z M 38.886713,29.61719 c 0,-0.02344 -0.01953,-0.04297 -0.03906,-0.04297 -0.02344,0 -0.03906,0.01953 -0.03906,0.04297 0,0.01953 0.01563,0.03906 0.03906,0.03906 0.01953,0 0.03906,-0.01953 0.03906,-0.03906 z M 30.3164,29.53516 c 0,-0.01953 -0.01563,-0.03906 -0.03906,-0.03906 -0.01953,0 -0.03906,0.01953 -0.03906,0.03906 0,0.02344 0.01953,0.03906 0.03906,0.03906 0.02344,0 0.03906,-0.01563 0.03906,-0.03906 z m 7.929688,-0.949218 c 0,-0.01953 -0.0625,-0.08203 -0.140625,-0.140626 -0.125,-0.101562 -0.128907,-0.09766 -0.03125,0.02734 0.105469,0.136719 0.171875,0.175782 0.171875,0.113282 z M 37.09765,27.359379 c -0.02734,-0.03125 -0.07813,-0.03125 -0.105468,0 -0.03125,0.02734 -0.0078,0.05469 0.05078,0.05469 0.0625,0 0.08594,-0.02734 0.05469,-0.05469 z M 34.5625,25.851562 c 0,-0.02344 -0.01953,-0.04297 -0.03906,-0.04297 -0.02344,0 -0.04297,0.01953 -0.04297,0.04297 0,0.01953 0.01953,0.03906 0.04297,0.03906 0.01953,0 0.03906,-0.01953 0.03906,-0.03906 z m -4.40625,-1.042968 c 0,-0.02344 -0.01563,-0.03906 -0.03906,-0.03906 -0.01953,0 -0.03906,0.01563 -0.03906,0.03906 0,0.02344 0.01953,0.03906 0.03906,0.03906 0.02344,0 0.03906,-0.01563 0.03906,-0.03906 z m 12.425781,9.714844 c -0.4375,-0.765626 -0.726562,-1.601563 -0.769531,-2.234376 -0.05078,-0.71875 0.07422,-0.421874 0.144531,0.34375 0.03906,0.398438 0.144531,0.699219 0.480469,1.371094 0.234375,0.472656 0.453125,0.835938 0.480469,0.804688 0.03125,-0.02734 0.05469,-0.0078 0.05469,0.04297 0,0.207032 -0.164062,0.07031 -0.390625,-0.328124 z m -3.535156,0.300781 c 0,-0.02344 0.01953,-0.03906 0.03906,-0.03906 0.02344,0 0.04297,0.01563 0.04297,0.03906 0,0.02344 -0.01953,0.03906 -0.04297,0.03906 -0.01953,0 -0.03906,-0.01563 -0.03906,-0.03906 z m 3.949219,-0.171875 c 0.03125,-0.03125 0.07813,-0.03125 0.109375,0 0.02734,0.02734 0.0039,0.05078 -0.05469,0.05078 -0.05859,0 -0.08203,-0.02344 -0.05469,-0.05078 z M 35.0625,34.570312 c 0.07813,-0.02344 0.203125,-0.02344 0.28125,0 0.07813,0.01953 0.01172,0.03516 -0.140625,0.03516 -0.152344,0 -0.21875,-0.01563 -0.140625,-0.03516 z m 0.488281,0 c 0.02734,-0.02734 0.07813,-0.02734 0.105469,0 0.03125,0.03125 0.0078,0.05469 -0.05469,0.05469 -0.05859,0 -0.08203,-0.02344 -0.05078,-0.05469 z m 0.769531,-0.03125 c 0.164063,-0.06641 0.179688,-0.09766 0.08203,-0.160156 -0.08203,-0.05078 0.02344,-0.07422 0.335937,-0.07422 0.46875,0 0.6875,0.109374 0.367188,0.183593 -0.101563,0.02344 -0.359375,0.06641 -0.582031,0.08984 -0.328126,0.03906 -0.363282,0.03125 -0.203126,-0.03906 z m -1.839843,-0.203124 -0.277344,-0.203126 0.320313,0.05469 c 0.359374,0.0625 0.460937,0.113281 0.234374,0.117188 -0.152343,0.0039 -0.152343,0.0078 0,0.121093 0.269532,0.203125 0.01953,0.121094 -0.277343,-0.08984 z m 0.84375,0.04687 c -0.207031,-0.05078 -0.183594,-0.0625 0.160156,-0.0625 0.21875,0 0.488281,0.02734 0.597656,0.0625 0.164063,0.05469 0.132813,0.06641 -0.160156,0.0625 -0.195313,0 -0.464844,-0.02734 -0.597656,-0.0625 z m 0.117187,-0.394531 c -0.351562,-0.03906 0.128906,-0.07031 1.523438,-0.08984 2.609375,-0.04688 3.53125,-0.01953 3.636718,0.08984 0.06641,0.06641 0.01172,0.07422 -0.191406,0.02734 -0.292968,-0.06641 -1.40625,-0.07031 -3.324218,-0.0078 -0.617188,0.01953 -1.355469,0.0078 -1.644532,-0.01953 z m -0.820312,-0.136719 c 0.05469,-0.02344 0.148437,-0.02344 0.203125,0 0.05469,0.01953 0.0078,0.03906 -0.101563,0.03906 -0.109375,0 -0.15625,-0.01953 -0.101562,-0.03906 z m -0.679688,-0.160156 c -0.226562,-0.08203 -0.480468,-0.28125 -0.785156,-0.613281 l -0.441406,-0.492187 0.04297,0.359374 c 0.03516,0.253907 0.02734,0.308594 -0.02734,0.191407 -0.113281,-0.253907 -0.140625,-0.621094 -0.05078,-0.644531 0.04297,-0.01172 0.242187,0.171874 0.441406,0.40625 0.199218,0.234374 0.390625,0.40625 0.433594,0.382812 0.03906,-0.02344 0.04687,-0.0039 0.01562,0.04297 -0.07422,0.121093 0.222657,0.269531 0.40625,0.203125 0.08203,-0.02734 0.117188,-0.01953 0.08203,0.01953 -0.03516,0.03906 0.05469,0.113281 0.199218,0.167969 0.144532,0.05078 0.210938,0.09375 0.144532,0.09375 -0.06641,0 -0.273438,-0.05078 -0.460938,-0.117188 z m -1.382812,-0.46875 c 0,-0.02344 0.01953,-0.03906 0.04297,-0.03906 0.01953,0 0.03906,0.01563 0.03906,0.03906 0,0.01953 -0.01953,0.03906 -0.03906,0.03906 -0.02344,0 -0.04297,-0.01953 -0.04297,-0.03906 z m 0.640625,-0.402344 c 0,-0.01953 0.01953,-0.03906 0.04297,-0.03906 0.01953,0 0.03906,0.01953 0.03906,0.03906 0,0.02344 -0.01953,0.03906 -0.03906,0.03906 -0.02344,0 -0.04297,-0.01563 -0.04297,-0.03906 z m 8.246093,-0.148437 c -0.06641,-0.09375 -0.261718,-0.371094 -0.429687,-0.613281 -0.261719,-0.371094 -0.269531,-0.398438 -0.0625,-0.175782 0.132813,0.144532 0.257813,0.234376 0.28125,0.199219 0.01953,-0.03516 0.04297,-0.597656 0.05078,-1.25 0.0078,-0.652343 0.04687,-1.265625 0.08203,-1.363281 0.04297,-0.105469 0.05469,0.222656 0.02734,0.828125 -0.03125,0.710937 -0.0039,1.222656 0.08203,1.761719 0.07031,0.414062 0.117188,0.761718 0.109376,0.773437 -0.0078,0.0078 -0.07031,-0.0625 -0.140626,-0.160156 z m -1.355468,-0.972656 c 0,-0.02344 0.01563,-0.03906 0.03906,-0.03906 0.01953,0 0.03906,0.01563 0.03906,0.03906 0,0.02344 -0.01953,0.03906 -0.03906,0.03906 -0.02344,0 -0.03906,-0.01563 -0.03906,-0.03906 z m 0.800781,-0.07813 c 0,-0.02344 0.01563,-0.04297 0.03906,-0.04297 0.01953,0 0.03906,0.01953 0.03906,0.04297 0,0.01953 -0.01953,0.03906 -0.03906,0.03906 -0.02344,0 -0.03906,-0.01953 -0.03906,-0.03906 z m -0.574219,-0.613282 c -0.199218,-0.335937 -0.382812,-0.777343 -0.441406,-1.0625 -0.09375,-0.441406 -0.15625,-2.847656 -0.07422,-2.765624 0.01953,0.01953 0.04297,0.503906 0.04687,1.074218 0.0078,0.574219 0.05078,1.273438 0.09766,1.558594 0.08594,0.535156 0.308594,1.007812 0.421876,0.90625 0.03906,-0.03516 0.04297,-0.01563 0.01172,0.03906 -0.0625,0.101563 0.05859,0.382813 0.242188,0.566407 0.105468,0.101562 0.144531,0.253906 0.07031,0.253906 -0.01953,0 -0.1875,-0.257813 -0.375,-0.570313 z m 1.402344,-0.230468 c 0,-0.417969 0.01172,-0.589844 0.03125,-0.378906 0.01563,0.207031 0.01563,0.550781 0,0.761718 -0.01953,0.207032 -0.03125,0.03516 -0.03125,-0.382812 z M 28.554688,31.13671 c 0,-0.01953 0.01953,-0.03906 0.04297,-0.03906 0.01953,0 0.03906,0.01953 0.03906,0.03906 0,0.02344 -0.01953,0.04297 -0.03906,0.04297 -0.02344,0 -0.04297,-0.01953 -0.04297,-0.04297 z m 12.015624,-0.398438 c 0,-0.02344 0.01563,-0.03906 0.03906,-0.03906 0.01953,0 0.03906,0.01563 0.03906,0.03906 0,0.02344 -0.01953,0.03906 -0.03906,0.03906 -0.02344,0 -0.03906,-0.01563 -0.03906,-0.03906 z m -10.519531,-0.5 c -0.02344,-0.03906 0.253907,-0.199219 0.613281,-0.355469 0.734376,-0.324218 1.265626,-0.484374 0.675782,-0.207031 -0.429688,0.207031 -0.539063,0.359375 -0.257813,0.359375 0.109375,0 0.175781,-0.02734 0.152344,-0.0625 -0.01953,-0.03516 0.0039,-0.08984 0.05469,-0.125 0.0625,-0.03516 0.07422,-0.01953 0.03125,0.05078 -0.05078,0.07812 -0.01953,0.08984 0.125,0.04687 0.34375,-0.09375 0.675782,-0.152343 0.632813,-0.109374 -0.0625,0.06641 -1.199219,0.363281 -1.613281,0.417968 -0.203125,0.02734 -0.390625,0.01953 -0.414063,-0.01563 z m 3.550781,0.01953 c 0,-0.02344 0.01953,-0.03906 0.03906,-0.03906 0.02344,0 0.03906,0.01563 0.03906,0.03906 0,0.01953 -0.01563,0.03906 -0.03906,0.03906 -0.01953,0 -0.03906,-0.01953 -0.03906,-0.03906 z m 5.046876,-0.09766 c 0.0625,-0.02734 0.144531,-0.08594 0.175781,-0.136718 0.03906,-0.05469 0.0625,-0.03516 0.0625,0.05469 0,0.09375 -0.05859,0.136719 -0.179688,0.132813 -0.121093,-0.0039 -0.140625,-0.02344 -0.05859,-0.05078 z m -0.320313,-0.0625 c 0,-0.02344 0.01563,-0.03906 0.03906,-0.03906 0.01953,0 0.03906,0.01563 0.03906,0.03906 0,0.01953 -0.01953,0.03906 -0.03906,0.03906 -0.02344,0 -0.03906,-0.01953 -0.03906,-0.03906 z m 3.453125,-0.34375 c -0.01172,-0.308594 0.195312,-1.28125 0.355469,-1.667968 0.140625,-0.328126 0.445312,-0.5625 1.316406,-0.996094 1.050781,-0.53125 1.46875,-0.835938 1.773437,-1.300782 0.574219,-0.878906 0.757813,-1.527343 0.679688,-2.441406 -0.05078,-0.582031 -0.363281,-1.496094 -0.574219,-1.660156 -0.05469,-0.04687 -0.175781,-0.230469 -0.265625,-0.40625 -0.152344,-0.304688 -0.160156,-0.308594 -0.203125,-0.117188 -0.01953,0.109376 -0.05859,0.503907 -0.08203,0.882813 -0.02344,0.433594 -0.09766,0.820313 -0.203125,1.066406 -0.222656,0.515625 -1.019531,1.898438 -1.621094,2.804688 -0.269531,0.402343 -0.644531,1.054687 -0.839843,1.449219 -0.191407,0.394531 -0.347657,0.671874 -0.347657,0.617187 0,-0.05469 0.07422,-0.242187 0.164063,-0.417969 0.08984,-0.175781 0.144531,-0.351562 0.117187,-0.390625 -0.02344,-0.03906 0.03125,-0.152343 0.117188,-0.257812 0.316406,-0.367188 0.566406,-0.800781 0.511719,-0.886719 -0.03125,-0.05078 -0.01563,-0.0625 0.03516,-0.03125 0.05078,0.03125 0.144531,-0.05469 0.222656,-0.207031 0.07422,-0.144531 0.179688,-0.316407 0.238281,-0.382813 0.101563,-0.121094 0.117188,-0.15625 0.117188,-0.335937 0,-0.05078 0.02344,-0.07031 0.05078,-0.03906 0.06641,0.06641 0.640625,-0.863281 0.757812,-1.226562 0.04688,-0.15625 0.140626,-0.324219 0.207032,-0.378906 0.06641,-0.05078 0.09766,-0.128907 0.06641,-0.175782 -0.02734,-0.04687 0.02734,-0.1875 0.121094,-0.3125 0.160156,-0.21875 0.210937,-0.574218 0.230468,-1.582031 0.0039,-0.136719 0.05469,-0.3125 0.113282,-0.390625 0.09766,-0.136719 0.121094,-0.121094 0.289062,0.203125 0.101563,0.191406 0.203125,0.371094 0.234375,0.390625 0.625,0.488281 0.875,2.636719 0.410157,3.503906 -0.08594,0.164063 -0.160157,0.347656 -0.160157,0.402344 0,0.05469 -0.02734,0.101562 -0.0625,0.101562 -0.03516,0 -0.128906,0.113282 -0.210937,0.25 -0.08203,0.136719 -0.292969,0.394532 -0.472656,0.566407 -0.261719,0.253906 -0.304688,0.332031 -0.210938,0.390625 0.07422,0.04297 0.08203,0.07031 0.01953,0.07422 -0.05078,0 -0.113281,-0.03125 -0.140625,-0.07422 -0.05078,-0.08594 -0.929687,0.324218 -1.320312,0.621094 -0.15625,0.117187 -0.332032,0.21875 -0.390625,0.226562 -0.207031,0.03125 -0.648438,0.597656 -0.699219,0.898438 -0.02344,0.160156 -0.09766,0.472656 -0.160156,0.691406 -0.0625,0.222656 -0.125,0.492187 -0.140625,0.601562 -0.02734,0.15625 -0.03516,0.144532 -0.04297,-0.0625 z m 0.390625,-2.621094 c 0,-0.02344 -0.01953,-0.03906 -0.04297,-0.03906 -0.01953,0 -0.03906,0.01563 -0.03906,0.03906 0,0.01953 0.01953,0.03906 0.03906,0.03906 0.02344,0 0.04297,-0.01953 0.04297,-0.03906 z M 42.25,26.972656 c 0,-0.02344 -0.01953,-0.03906 -0.03906,-0.03906 -0.02344,0 -0.03906,0.01563 -0.03906,0.03906 0,0.01953 0.01563,0.03906 0.03906,0.03906 0.01953,0 0.03906,-0.01953 0.03906,-0.03906 z m 1.121094,-1.765625 c 0,-0.01953 -0.01953,-0.03906 -0.03906,-0.03906 -0.02344,0 -0.03906,0.01953 -0.03906,0.03906 0,0.02344 0.01563,0.04297 0.03906,0.04297 0.01953,0 0.03906,-0.01953 0.03906,-0.04297 z m -3.890625,4.507813 c -0.175781,-0.203125 -0.453125,-0.601563 -0.542969,-0.78125 -0.03906,-0.07031 -0.01563,-0.0625 0.05078,0.01953 0.0625,0.07813 0.132813,0.121094 0.15625,0.09766 0.02344,-0.02344 0.06641,0.04687 0.09375,0.160157 0.113281,0.445312 0.167969,0.15625 0.171875,-0.855469 0,-0.773438 0.04297,-1.234375 0.152344,-1.683594 0.08594,-0.339844 0.167969,-0.605469 0.1875,-0.585937 0.01563,0.01562 -0.03125,0.3125 -0.113281,0.660156 -0.15625,0.695312 -0.183594,2.230468 -0.04687,2.808594 0.04297,0.1875 0.07422,0.339843 0.0625,0.339843 -0.0078,0 -0.08594,-0.07813 -0.171875,-0.179687 z m -7.199219,0.01953 c 0.08594,-0.03516 0.214844,-0.06641 0.277344,-0.06641 0.07813,0 0.0625,0.02344 -0.03906,0.06641 -0.08594,0.03906 -0.214843,0.07031 -0.28125,0.07031 -0.07422,0 -0.05859,-0.02344 0.04297,-0.07031 z m 0.5,-0.132813 c 0.05469,-0.01953 0.144531,-0.01953 0.199219,0 0.05469,0.02344 0.01172,0.04297 -0.101563,0.04297 -0.109375,0 -0.152344,-0.01953 -0.09766,-0.04297 z M 33.242188,29.5 c 0.08594,-0.03906 0.238281,-0.07422 0.339843,-0.07813 0.09766,-0.0039 0.179688,-0.04297 0.179688,-0.08594 0,-0.125 -0.917969,-0.09375 -1.457031,0.04297 -0.265626,0.07031 -0.5,0.109375 -0.519532,0.08984 -0.01563,-0.01953 0.230469,-0.101562 0.550782,-0.179688 0.757812,-0.191406 1.859374,-0.203124 2.183593,-0.02344 l 0.234375,0.128906 -0.316406,0.04687 C 33.757812,29.542969 33.078125,29.574219 33.242188,29.5 Z m 4.925781,-0.125 c 0,-0.01953 0.01563,-0.03906 0.03906,-0.03906 0.01953,0 0.03906,0.01953 0.03906,0.03906 0,0.02344 -0.01953,0.03906 -0.03906,0.03906 -0.02344,0 -0.03906,-0.01562 -0.03906,-0.03906 z m 3.324219,-0.398438 c 0.02344,-0.179687 0.05078,-0.402343 0.06641,-0.503906 0.01172,-0.101562 0.06641,-0.226562 0.121094,-0.28125 0.109374,-0.105468 0.08984,0.01953 -0.121094,0.742188 l -0.105469,0.363281 z m -10.453126,0 c 0,-0.02344 0.01953,-0.04297 0.03906,-0.04297 0.02344,0 0.03906,0.01953 0.03906,0.04297 0,0.01953 -0.01563,0.03906 -0.03906,0.03906 -0.01953,0 -0.03906,-0.01953 -0.03906,-0.03906 z M 38.625,28.433594 c -0.105469,-0.1875 -0.277344,-0.484375 -0.378906,-0.660156 -0.210938,-0.359376 -0.140625,-0.308594 0.183594,0.132812 0.121093,0.164062 0.21875,0.332031 0.21875,0.371094 0,0.04297 0.07422,0.171875 0.164062,0.285156 0.08984,0.117188 0.128906,0.210938 0.08594,0.210938 -0.04297,0 -0.164063,-0.152344 -0.273438,-0.339844 z m -0.898438,-1.019532 c -0.02734,-0.04687 -0.01172,-0.08203 0.03516,-0.08203 0.04687,0 0.08594,0.03516 0.08594,0.08203 0,0.04297 -0.01953,0.07813 -0.03906,0.07813 -0.01953,0 -0.05469,-0.03516 -0.08203,-0.07813 z m 0.05859,-0.382812 c -0.617187,-0.992188 -0.714844,-1.207031 -0.421875,-0.945312 0.08594,0.07812 0.152344,0.167968 0.148438,0.195312 -0.0039,0.02734 0,0.105469 0.0078,0.167969 0.0078,0.09766 0.03516,0.08984 0.128907,-0.03516 0.132812,-0.175781 0.15625,-0.105468 0.03906,0.113282 -0.05859,0.109375 -0.04687,0.160156 0.04297,0.195312 0.07031,0.02734 0.105469,0.08203 0.07813,0.125 -0.02734,0.04297 0.01563,0.144532 0.09375,0.226563 0.132812,0.140625 0.222656,0.339843 0.152344,0.339843 -0.01953,0 -0.140626,-0.171874 -0.269532,-0.382812 z m 4.792969,0.140625 c 0.05469,-0.109375 0.214844,-0.363281 0.355469,-0.566406 0.480468,-0.683594 1.03125,-1.632813 1.574218,-2.71875 0.296876,-0.59375 0.539063,-1.046875 0.542969,-1 0.01172,0.285156 -0.269531,1.386719 -0.433593,1.703125 -0.109376,0.207031 -0.199219,0.351562 -0.199219,0.316406 -0.0039,-0.03516 0.06641,-0.203125 0.152343,-0.375 0.179688,-0.351562 0.277344,-0.804688 0.175782,-0.804688 -0.03906,0 -0.238282,0.347657 -0.445313,0.769532 -0.203125,0.425781 -0.441406,0.871094 -0.53125,0.996094 -0.08594,0.121093 -0.15625,0.289062 -0.15625,0.371093 0.0039,0.121094 0.03125,0.109375 0.164063,-0.06641 0.242187,-0.328125 0.496094,-0.601563 0.425781,-0.46875 -0.08984,0.183594 -0.585937,0.800781 -0.960937,1.203125 -0.1875,0.199219 -0.433594,0.46875 -0.550782,0.601562 -0.1875,0.214844 -0.199218,0.21875 -0.113281,0.03906 z M 37.18359,26.980469 c -0.125,-0.09766 -0.40625,-0.246094 -0.628906,-0.324219 -0.285157,-0.101562 -0.375,-0.167969 -0.296876,-0.214844 0.05859,-0.03906 0.140626,-0.06641 0.1875,-0.06641 0.04297,0 0.02344,0.03125 -0.04297,0.07422 -0.08984,0.05859 -0.04687,0.07813 0.160156,0.07813 0.191406,0 0.246094,-0.02344 0.171875,-0.06641 -0.08984,-0.05859 -0.08984,-0.07813 0,-0.113282 0.0625,-0.02344 0.01172,-0.04687 -0.105469,-0.05078 -0.273437,-0.0078 -0.332031,-0.101563 -0.183594,-0.292969 0.113282,-0.152344 0.113282,-0.152344 0.117188,0 0,0.08594 0.02344,0.132813 0.05078,0.105469 0.07422,-0.07422 -0.05078,-0.378906 -0.15625,-0.378906 -0.05078,0 -0.164062,-0.21875 -0.246093,-0.484375 -0.109376,-0.335938 -0.175782,-0.453125 -0.230469,-0.378906 -0.05078,0.07031 -0.05859,0.05469 -0.02344,-0.04688 0.02734,-0.08203 -0.01953,-0.28125 -0.105469,-0.441406 -0.08203,-0.160156 -0.195312,-0.453125 -0.25,-0.652344 -0.05469,-0.199218 -0.183593,-0.605468 -0.285156,-0.902343 -0.101562,-0.296875 -0.15625,-0.539063 -0.125,-0.539063 0.03125,0 0.175782,0.367188 0.324219,0.820313 0.238281,0.742187 0.652344,1.640625 1.480469,3.21875 0.160156,0.304687 0.332031,0.601562 0.382812,0.660156 0.152344,0.1875 0.03906,0.183594 -0.195312,-0.0039 z m 2.671875,-0.03516 c -0.0078,-0.222656 0.203125,-1 0.691406,-2.539062 0.195313,-0.617188 0.402344,-1.335938 0.460937,-1.601562 0.05859,-0.265626 0.113282,-0.386719 0.113282,-0.273438 0.01172,0.332031 -0.160156,1.152344 -0.253906,1.207031 -0.04688,0.03125 -0.08594,0.164063 -0.08594,0.296875 0,0.136719 -0.02734,0.226563 -0.05859,0.207032 -0.03516,-0.01953 -0.105468,0.167968 -0.15625,0.417968 -0.05078,0.25 -0.164062,0.65625 -0.253906,0.902344 -0.08594,0.246094 -0.167969,0.5 -0.179688,0.566406 -0.01172,0.06641 -0.04297,0.175782 -0.06641,0.242188 -0.02734,0.06641 -0.08203,0.265625 -0.125,0.441406 -0.05078,0.207031 -0.07813,0.253906 -0.08594,0.132812 z m 3.277343,0.105469 c 0,-0.01953 0.277344,-0.316406 0.621094,-0.65625 0.375,-0.378906 0.726563,-0.820312 0.886719,-1.125 0.144531,-0.277343 0.277344,-0.5 0.296875,-0.5 0.05859,0 -0.109375,0.371094 -0.351562,0.769531 -0.128907,0.214844 -0.257813,0.480469 -0.289063,0.589844 -0.04297,0.164063 0.01563,0.128906 0.324219,-0.199218 0.242187,-0.257813 0.3125,-0.308594 0.199218,-0.140626 -0.09766,0.140626 -0.328124,0.378907 -0.511718,0.53125 -0.339844,0.277344 -1.175782,0.796876 -1.175782,0.730469 z M 42.25,26.570312 c 0,-0.01953 0.01953,-0.03906 0.03906,-0.03906 0.02344,0 0.04297,0.01953 0.04297,0.03906 0,0.02344 -0.01953,0.03906 -0.04297,0.03906 -0.01953,0 -0.03906,-0.01563 -0.03906,-0.03906 z m -6.386719,-0.523437 c -0.214843,-0.08594 -0.238281,-0.238281 -0.03516,-0.238281 0.148437,0 0.335937,0.144531 0.335937,0.257812 0,0.07813 -0.06641,0.07422 -0.300781,-0.01953 z m -0.742187,-0.117187 c 0,-0.02344 0.01953,-0.03906 0.04297,-0.03906 0.01953,0 0.03906,0.01563 0.03906,0.03906 0,0.02344 -0.01953,0.03906 -0.03906,0.03906 -0.02344,0 -0.04297,-0.01563 -0.04297,-0.03906 z m 0.320312,-0.03906 c 0,-0.05859 0.02734,-0.08203 0.05469,-0.05469 0.03125,0.03125 0.03125,0.07812 0,0.109374 -0.02734,0.02734 -0.05469,0.0039 -0.05469,-0.05469 z m 4.285156,-0.01953 c -0.03125,-0.08203 -0.0039,-0.1875 0.07422,-0.265625 0.140625,-0.144531 0.164063,-0.03516 0.05078,0.246093 -0.0625,0.144532 -0.07031,0.144532 -0.125,0.01953 z m -2.613281,-0.167969 c -0.02734,-0.125 -0.01953,-0.519531 0.01953,-0.878906 0.03516,-0.363281 0.09375,-1.089844 0.128907,-1.617188 0.03516,-0.53125 0.07031,-0.800781 0.08203,-0.601562 0.03125,0.558593 -0.175781,3.351562 -0.230469,3.097656 z m 5.617188,0.148437 c 0,-0.02344 0.01953,-0.04297 0.03906,-0.04297 0.02344,0 0.04297,0.01953 0.04297,0.04297 0,0.01953 -0.01953,0.03906 -0.04297,0.03906 -0.01953,0 -0.03906,-0.01953 -0.03906,-0.03906 z m -7.527344,-0.08203 c 0,-0.02344 0.01953,-0.03906 0.03906,-0.03906 0.02344,0 0.03906,0.01563 0.03906,0.03906 0,0.02344 -0.01563,0.03906 -0.03906,0.03906 -0.01953,0 -0.03906,-0.01563 -0.03906,-0.03906 z m -4.363281,-0.277343 c -0.02734,-0.04688 0.0039,-0.0625 0.07422,-0.03516 0.140626,0.05469 0.164063,0.113281 0.05078,0.113281 -0.04297,0 -0.09766,-0.03516 -0.125,-0.07812 z m -0.441406,-0.04297 c 0,-0.02344 0.01953,-0.03906 0.03906,-0.03906 0.02344,0 0.03906,0.01563 0.03906,0.03906 0,0.02344 -0.01562,0.03906 -0.03906,0.03906 -0.01953,0 -0.03906,-0.01563 -0.03906,-0.03906 z m 14.75,-0.320313 c 0.09766,-0.195312 0.1875,-0.34375 0.207031,-0.328125 0.03516,0.03906 -0.289063,0.6875 -0.34375,0.6875 -0.01953,0 0.04297,-0.160156 0.136719,-0.359375 z m -13.308594,0.01172 c -1.164063,-0.445313 -1.820313,-0.839844 -2.539063,-1.535156 -0.449219,-0.429688 -0.664062,-0.699219 -0.664062,-0.820313 0,-0.175781 0.01172,-0.179687 0.265625,-0.07031 0.5,0.207031 2.984375,1.960937 3.414062,2.40625 0.152344,0.160156 0.257813,0.285156 0.238282,0.285156 -0.01953,-0.0039 -0.339844,-0.121094 -0.714844,-0.265625 z m -0.160156,-0.347656 c 0,-0.05859 -0.02734,-0.105469 -0.0625,-0.105469 -0.03516,0 -0.222657,-0.144531 -0.417969,-0.320312 C 31,24.1875 30.792969,24.0625 30.734375,24.085938 c -0.05859,0.01953 -0.08594,0.0078 -0.05859,-0.03125 0.05078,-0.08594 -1.171875,-0.890626 -1.355469,-0.890626 -0.06641,0 -0.113281,-0.03906 -0.101562,-0.08984 0.02344,-0.113281 -0.246094,-0.160157 -0.3125,-0.05469 -0.02734,0.04687 0.02734,0.160157 0.121094,0.25 0.132812,0.132813 0.1875,0.148438 0.265625,0.07422 0.05078,-0.05469 0.132812,-0.09766 0.175781,-0.09766 0.04297,0 0.0078,0.05469 -0.07813,0.121094 -0.148437,0.117187 -0.140625,0.128906 0.175781,0.421874 0.378906,0.34375 1.765625,1.128907 1.972656,1.113282 0.07813,-0.0039 0.140626,-0.05469 0.140626,-0.109375 z m -1.414063,-0.878907 c 0.02734,-0.03125 0.07813,-0.03125 0.105469,0 0.03125,0.02734 0.0039,0.05469 -0.05469,0.05469 -0.05859,0 -0.08203,-0.02734 -0.05078,-0.05469 z M 29.4375,23.484375 c 0,-0.05859 0.02344,-0.08203 0.05469,-0.05078 0.02734,0.02734 0.02734,0.07813 0,0.105468 -0.03125,0.03125 -0.05469,0.0039 -0.05469,-0.05469 z m -0.433594,-0.386719 c -0.02344,-0.03516 0.01172,-0.06641 0.07422,-0.06641 0.0625,0 0.09375,0.03125 0.07031,0.06641 -0.02344,0.03906 -0.05469,0.06641 -0.07031,0.06641 -0.01953,0 -0.05078,-0.02734 -0.07422,-0.06641 z m 4.027344,2.171875 C 32.96484,25.191401 32.558594,24.839844 32.128906,24.488281 31.4375,23.914062 31.007812,23.625 29.738281,22.871094 c -0.207031,-0.125 -0.378906,-0.257813 -0.378906,-0.296875 -0.0039,-0.09766 0.667969,0.01172 1.261719,0.203125 0.746094,0.242187 1.546875,0.9375 2.191406,1.902344 0.371094,0.554687 0.503906,0.90625 0.21875,0.589843 z m -0.550781,-0.746093 c 0,-0.144532 -0.253907,-0.476563 -0.371094,-0.476563 C 32.050781,24.046875 32,23.996094 32,23.933594 32,23.867188 31.925781,23.792969 31.839844,23.765625 31.75,23.738281 31.695312,23.6875 31.71875,23.648438 c 0.05859,-0.09375 -0.589844,-0.597657 -0.921875,-0.71875 -0.878906,-0.316407 -1.191406,-0.230469 -0.523437,0.148437 0.527343,0.296875 1.59375,1.042969 1.632812,1.140625 0.01563,0.03906 0.07031,0.07031 0.121094,0.07031 0.05078,0 0.140625,0.07031 0.195312,0.160157 0.105469,0.167969 0.257813,0.214843 0.257813,0.07422 z m -0.722657,-0.597657 c 0,-0.01953 0.01953,-0.03906 0.04297,-0.03906 0.01953,0 0.03906,0.01953 0.03906,0.03906 0,0.02344 -0.01953,0.04297 -0.03906,0.04297 -0.02344,0 -0.04297,-0.01953 -0.04297,-0.04297 z m -1.441406,-1.039062 c 0,-0.02344 0.01953,-0.04297 0.04297,-0.04297 0.01953,0 0.03906,0.01953 0.03906,0.04297 0,0.01953 -0.01953,0.03906 -0.03906,0.03906 -0.02344,0 -0.04297,-0.01953 -0.04297,-0.03906 z m 9.617188,2.394531 c 0.0039,-0.09375 0.02344,-0.109375 0.05078,-0.04687 0.01953,0.05859 0.01953,0.125 -0.0078,0.152344 -0.02734,0.02734 -0.04687,-0.01953 -0.04297,-0.105469 z m 4.359375,-0.191406 c 0.02734,-0.04687 0.06641,-0.08203 0.08984,-0.08203 0.01953,0 0.01563,0.03516 -0.01172,0.08203 -0.02734,0.04297 -0.06641,0.07813 -0.08984,0.07813 -0.01953,0 -0.01563,-0.03516 0.01172,-0.07813 z M 40.03125,24.6875 c 0,-0.242188 0.01563,-0.339844 0.03516,-0.21875 0.01563,0.121094 0.01563,0.320312 0,0.441406 -0.01953,0.121094 -0.03516,0.01953 -0.03516,-0.222656 z m -3.585938,0.222656 c -0.464843,-1.320312 -0.6875,-2.003906 -0.664062,-2.03125 0.01953,-0.01953 0.148438,0.28125 0.289062,0.667969 0.25,0.683594 0.253907,0.691406 0.21875,0.300781 -0.01562,-0.222656 -0.05469,-0.5625 -0.07812,-0.761718 -0.03906,-0.304688 -0.03516,-0.324219 0.03125,-0.125 0.04297,0.128906 0.113281,0.5625 0.160156,0.960937 0.04687,0.398437 0.105468,0.808594 0.132812,0.90625 0.05078,0.1875 -0.02734,0.257813 -0.08984,0.08203 z m 6.925782,-0.101562 c 0,-0.02344 0.01953,-0.03906 0.03906,-0.03906 0.02344,0 0.04297,0.01563 0.04297,0.03906 0,0.02344 -0.01953,0.03906 -0.04297,0.03906 -0.01953,0 -0.03906,-0.01563 -0.03906,-0.03906 z m -9.851563,-0.160156 c 0,-0.02344 0.01953,-0.03906 0.04297,-0.03906 0.01953,0 0.03906,0.01563 0.03906,0.03906 0,0.02344 -0.01953,0.03906 -0.03906,0.03906 -0.02344,0 -0.04297,-0.01563 -0.04297,-0.03906 z m 11.453125,0 c 0,-0.02344 0.01953,-0.03906 0.03906,-0.03906 0.02344,0 0.04297,0.01563 0.04297,0.03906 0,0.02344 -0.01953,0.03906 -0.04297,0.03906 -0.01953,0 -0.03906,-0.01563 -0.03906,-0.03906 z M 45.375,24.609375 c 0,-0.05859 0.02344,-0.08594 0.05078,-0.05469 0.03125,0.02734 0.03125,0.07812 0,0.105468 -0.02734,0.03125 -0.05078,0.0078 -0.05078,-0.05078 z m -1.84375,-0.04297 c 0,-0.01953 0.01953,-0.03906 0.03906,-0.03906 0.02344,0 0.04297,0.01953 0.04297,0.03906 0,0.02344 -0.01953,0.04297 -0.04297,0.04297 -0.01953,0 -0.03906,-0.01953 -0.03906,-0.04297 z m 0.882812,-0.07813 c 0,-0.02344 0.01563,-0.03906 0.03906,-0.03906 0.01953,0 0.03906,0.01563 0.03906,0.03906 0,0.02344 -0.01953,0.03906 -0.03906,0.03906 -0.02344,0 -0.03906,-0.01563 -0.03906,-0.03906 z m 0.644532,-0.01563 c 0.0039,-0.03516 0.03516,-0.136718 0.07422,-0.226562 0.06641,-0.152344 0.07031,-0.152344 0.07422,0.01563 0.0039,0.09766 -0.03125,0.199219 -0.07422,0.226562 -0.04297,0.02734 -0.07812,0.01953 -0.07422,-0.01563 z M 33.441406,24.40625 c 0,-0.01953 0.01953,-0.03906 0.03906,-0.03906 0.02344,0 0.03906,0.01953 0.03906,0.03906 0,0.02344 -0.01563,0.04297 -0.03906,0.04297 -0.01953,0 -0.03906,-0.01953 -0.03906,-0.04297 z m 12,-0.726562 c -0.0039,-0.519532 -0.02734,-0.695313 -0.0625,-0.515626 -0.04297,0.238282 -0.0625,0.179688 -0.117187,-0.359374 -0.03125,-0.351563 -0.08203,-0.730469 -0.105469,-0.839844 -0.08984,-0.414063 0.117188,-0.03516 0.25,0.457031 0.125,0.46875 0.191406,1.90625 0.08984,2.007813 -0.02344,0.02344 -0.04687,-0.3125 -0.05469,-0.75 z m -5.5625,0.546874 c 0.04687,-0.07812 -0.07422,-0.621093 -0.328125,-1.457031 -0.03125,-0.109375 -0.02734,-0.109375 0.04297,-0.0039 0.04297,0.06641 0.15625,0.402344 0.253906,0.75 0.136719,0.496094 0.152344,0.648437 0.07422,0.722656 -0.07422,0.06641 -0.08203,0.06641 -0.04297,-0.01172 z m -3.1875,-0.582031 c -0.03125,-0.316406 -0.144531,-0.84375 -0.25,-1.179687 -0.109375,-0.335938 -0.183594,-0.621094 -0.167968,-0.636719 0.03906,-0.03906 0.265624,0.589844 0.378906,1.046875 0.144531,0.582031 0.222656,0.289062 0.152344,-0.554688 -0.04297,-0.488281 -0.117188,-0.824218 -0.230469,-1.039062 -0.09375,-0.175781 -0.167969,-0.351562 -0.167969,-0.398438 0.0039,-0.04297 0.09375,0.08594 0.199219,0.292969 0.25,0.480469 0.371093,1.273438 0.34375,2.226563 -0.03125,0.929687 -0.179688,1.070312 -0.257813,0.242187 z m 3.660156,-0.01172 c 0.01172,-0.335937 -0.0078,-0.597656 -0.04297,-0.574218 -0.09766,0.05859 -0.05859,-1.699219 0.0625,-2.699219 0.05859,-0.503906 0.09375,-0.667969 0.07422,-0.359375 -0.121093,1.949219 -0.140624,2.867188 -0.05078,2.8125 0.05859,-0.03516 0.09375,-0.0039 0.09375,0.08203 0,0.296875 0.121094,-0.0078 0.25,-0.632812 0.07813,-0.363281 0.140625,-0.582031 0.144531,-0.488281 0.0078,0.234374 -0.285156,1.667968 -0.429687,2.113281 l -0.121094,0.359375 z m 4.878907,0.214844 c 0,-0.132812 0.01953,-0.175781 0.03906,-0.09766 0.01953,0.07422 0.01953,0.183594 -0.0039,0.238281 -0.02344,0.05469 -0.03906,-0.0078 -0.03516,-0.140625 z m -5.523438,-1.613281 c -0.277343,-1.136719 -0.25,-1.796875 0.140625,-2.976563 0.175782,-0.535156 0.324219,-1.054687 0.324219,-1.15625 0.0039,-0.101562 0.03516,-0.257812 0.07031,-0.34375 0.08984,-0.230468 0.04297,0.605469 -0.105469,1.882813 -0.06641,0.59375 -0.152344,1.585937 -0.1875,2.203125 l -0.0625,1.121094 z m 0.109375,-0.53125 c -0.05859,-0.03906 -0.05469,-0.05859 0.02344,-0.05859 0.08984,0 0.101562,-0.15625 0.07031,-0.800781 -0.01953,-0.4375 -0.0078,-0.777344 0.03125,-0.753906 0.03516,0.02344 0.0625,-0.167969 0.05859,-0.425782 l -0.0078,-0.464843 -0.15625,0.480469 c -0.167969,0.527343 -0.21875,1.375 -0.113282,2.003906 0.05078,0.304687 0.07813,0.363281 0.125,0.238281 0.03516,-0.09375 0.01953,-0.183594 -0.03125,-0.21875 z m -4.132812,0.980469 c 0,-0.05859 0.02344,-0.08203 0.05469,-0.05078 0.02734,0.02734 0.02734,0.07422 0,0.105469 -0.03125,0.03125 -0.05469,0.0039 -0.05469,-0.05469 z m 0.398437,-0.07813 c 0,-0.05859 0.02734,-0.08203 0.05469,-0.05469 0.03125,0.03125 0.03125,0.07813 0,0.105469 -0.02734,0.03125 -0.05469,0.0078 -0.05469,-0.05078 z m 3.21875,-0.503907 c -0.207031,-0.59375 -0.226562,-1.277343 -0.05469,-2.140624 0.121094,-0.601563 0.367187,-1.449219 0.441406,-1.523438 0.02344,-0.01953 0.03906,-0.07422 0.04297,-0.121094 0,-0.04297 0.04687,-0.21875 0.105469,-0.386718 0.09375,-0.265626 0.08984,-0.40625 -0.03125,-1.023438 -0.140626,-0.730469 -0.113282,-0.957031 0.08594,-0.671875 0.0625,0.08984 0.148437,0.203125 0.195313,0.257813 0.04297,0.05078 0.08203,0.121093 0.08203,0.152343 0,0.03125 0.08203,0.167969 0.183593,0.304688 0.101563,0.136719 0.25,0.390625 0.324219,0.566406 0.07813,0.175781 0.179688,0.390625 0.222657,0.472656 0.398437,0.714844 0.585937,3 0.328124,4.015625 -0.105468,0.433594 -0.113281,0.152344 -0.01562,-0.714844 0.183593,-1.605468 -0.316407,-3.535156 -1.214844,-4.683593 -0.175782,-0.226563 -0.175782,-0.195313 -0.03125,0.410156 0.125,0.53125 0.06641,0.878906 -0.351563,2.074219 -0.417969,1.207031 -0.472656,2.023437 -0.195312,3.023437 0.164062,0.597657 0.09375,0.589844 -0.117188,-0.01172 z m -3.699219,0.34375 c 0,-0.05859 0.02734,-0.08203 0.05469,-0.05469 0.03125,0.03125 0.03125,0.07813 0,0.105469 -0.02734,0.03125 -0.05469,0.0078 -0.05469,-0.05078 z m 0.402344,-0.08203 c 0,-0.05859 0.02344,-0.08203 0.05469,-0.05078 0.02734,0.02734 0.02734,0.07422 0,0.105469 -0.03125,0.02734 -0.05469,0.0039 -0.05469,-0.05469 z M 35.523438,22.20312 c 0,-0.05859 0.02344,-0.08203 0.05469,-0.05078 0.02734,0.02734 0.02734,0.07422 0,0.105468 -0.03125,0.02734 -0.05469,0.0039 -0.05469,-0.05469 z M 35.0625,21.945312 c -0.0039,-0.214843 0.0078,-0.230468 0.0625,-0.101562 0.08984,0.214844 0.09375,0.359375 0.01172,0.359375 -0.03906,0 -0.07031,-0.117187 -0.07422,-0.257813 z m 0.753906,-0.05078 C 35.75,21.722656 35.613281,21.460938 35.519531,21.3125 c -0.148437,-0.238281 -0.164062,-0.246094 -0.128906,-0.07031 0.105469,0.5 0.148437,0.839843 0.109375,0.800781 -0.02734,-0.02344 -0.105469,-0.3125 -0.175781,-0.640625 -0.07031,-0.332032 -0.148438,-0.699219 -0.175781,-0.820313 -0.08203,-0.382812 0.113281,-0.242187 0.28125,0.199219 0.08984,0.230469 0.253906,0.632812 0.371093,0.890625 0.117188,0.261719 0.195313,0.488281 0.175781,0.503906 -0.01953,0.01953 -0.08984,-0.105469 -0.160156,-0.28125 z m 1.328125,-0.09766 c -0.148437,-0.660156 -0.667969,-1.621094 -1.386719,-2.582031 -0.5,-0.664063 -0.695312,-0.996094 -0.835937,-1.441406 l -0.183594,-0.578126 -0.01953,1.28125 c -0.01172,0.886719 -0.03516,1.132813 -0.06641,0.804688 -0.04297,-0.425781 -0.05078,-0.976562 -0.01953,-1.863281 0.0039,-0.144531 0.04297,-0.261719 0.08594,-0.261719 0.109375,0 0.292969,0.378906 0.355469,0.738281 0.03125,0.164063 0.101562,0.34375 0.15625,0.402344 0.05469,0.05469 0.125,0.164063 0.15625,0.242187 0.02734,0.07813 0.09375,0.132813 0.144531,0.121094 0.05078,-0.01172 0.121094,0.07813 0.15625,0.195313 0.06641,0.234375 0.269531,0.484375 0.335938,0.417969 0.02344,-0.02344 0.07812,0.05859 0.121093,0.183593 0.04297,0.121094 0.15625,0.308594 0.25,0.414063 0.09375,0.109375 0.167969,0.238281 0.167969,0.296875 0,0.05469 0.03906,0.113281 0.08594,0.128906 0.04687,0.01563 0.09375,0.08203 0.101562,0.148437 0.01172,0.06641 0.09375,0.246094 0.183594,0.398438 0.203125,0.339844 0.375,0.949219 0.339844,1.199219 -0.01953,0.125 -0.0625,0.03906 -0.128907,-0.246094 z M 35.601562,18.71875 c 0,-0.02344 -0.01562,-0.03906 -0.03906,-0.03906 -0.01953,0 -0.03906,0.01562 -0.03906,0.03906 0,0.02344 0.01953,0.03906 0.03906,0.03906 0.02344,0 0.03906,-0.01562 0.03906,-0.03906 z m -5.285156,3.203125 c 0,-0.01953 0.01953,-0.03906 0.04297,-0.03906 0.01953,0 0.03906,0.01953 0.03906,0.03906 0,0.02344 -0.01953,0.04297 -0.03906,0.04297 -0.02344,0 -0.04297,-0.01953 -0.04297,-0.04297 z M 29.625,21.832031 c 0.02734,-0.03125 0.07813,-0.03125 0.105469,0 0.03125,0.02734 0.0039,0.05078 -0.05469,0.05078 -0.05859,0 -0.08203,-0.02344 -0.05078,-0.05078 z M 30.90625,21.75 c 0.02734,-0.03125 0.07813,-0.03125 0.105469,0 0.03125,0.03125 0.0039,0.05469 -0.05469,0.05469 -0.05859,0 -0.08203,-0.02344 -0.05078,-0.05469 z m 5.0625,-0.433594 c -0.117188,-0.226562 -0.195312,-0.433594 -0.175781,-0.453125 0.02344,-0.01953 0.07813,0.04297 0.128906,0.132813 0.05078,0.09375 0.125,0.148437 0.164063,0.125 0.04297,-0.02734 0.05469,0.0078 0.03125,0.07031 -0.02344,0.06641 -0.0039,0.195313 0.04687,0.292969 0.05078,0.09375 0.07422,0.191406 0.05469,0.210937 -0.02344,0.02344 -0.132812,-0.148437 -0.25,-0.378906 z m -1.046875,0.08594 c -0.03125,-0.136719 -0.03906,-0.269532 -0.01563,-0.289063 0.01953,-0.01953 0.05859,0.07813 0.08594,0.21875 0.06641,0.335938 0.0039,0.398438 -0.07031,0.07031 z m 5.996094,-0.71875 c 0,-0.464844 0.01563,-0.652344 0.03125,-0.421875 0.01563,0.230469 0.01563,0.609375 0,0.839843 -0.01563,0.230469 -0.03125,0.04297 -0.03125,-0.417968 z M 45.375,21.363281 c 0,-0.02344 0.01563,-0.03906 0.03906,-0.03906 0.01953,0 0.03906,0.01563 0.03906,0.03906 0,0.02344 -0.01953,0.03906 -0.03906,0.03906 -0.02344,0 -0.03906,-0.01563 -0.03906,-0.03906 z M 34.808594,20.796875 c 0.0039,-0.09375 0.02344,-0.113281 0.04687,-0.05078 0.02344,0.05859 0.02344,0.128906 -0.0039,0.152344 -0.02734,0.02734 -0.04687,-0.01953 -0.04297,-0.101563 z m 0.734375,-0.457031 c -0.08984,-0.230469 -0.207031,-0.554688 -0.257813,-0.71875 -0.132812,-0.425782 -0.191406,-0.375 -0.136718,0.117187 0.03125,0.277344 0.02344,0.367188 -0.02344,0.261719 -0.03906,-0.08594 -0.07031,-0.429688 -0.07031,-0.761719 0,-0.582031 0.0039,-0.59375 0.113281,-0.34375 0.05859,0.136719 0.148437,0.277344 0.195312,0.304688 0.04687,0.03125 0.06641,0.121093 0.03906,0.203125 -0.02734,0.08203 0.04297,0.410156 0.15625,0.730468 0.234375,0.679688 0.226562,0.8125 -0.01563,0.207032 z M 36.175781,20.5 c -0.234375,-0.367188 -0.429687,-0.636719 -0.59375,-0.816406 -0.132812,-0.144532 -0.183593,-0.285156 -0.101562,-0.285156 0.04297,0 0.710937,0.941406 0.835937,1.183593 0.140625,0.269531 0.04687,0.214844 -0.140625,-0.08203 z m 0.867188,-0.01953 c 0,-0.01953 0.01953,-0.03906 0.04297,-0.03906 0.01953,0 0.03906,0.01953 0.03906,0.03906 0,0.02344 -0.01953,0.03906 -0.03906,0.03906 -0.02344,0 -0.04297,-0.01563 -0.04297,-0.03906 z m -2.304688,-0.238281 c 0,-0.132813 0.01953,-0.179688 0.03906,-0.101563 0.01953,0.07813 0.01953,0.1875 -0.0039,0.242187 -0.01953,0.05469 -0.03516,-0.0078 -0.03516,-0.140624 z m 10.851563,0.03125 c -0.04297,-0.15625 -0.03516,-0.15625 0.09375,-0.03906 0.195312,0.171875 0.457031,0.160156 0.652344,-0.03516 0.210937,-0.210938 0.199218,-0.351563 -0.03906,-0.511719 -0.292969,-0.191406 -0.429687,-0.15625 -0.554687,0.132812 -0.08594,0.195313 -0.117188,0.222657 -0.121094,0.09766 -0.0039,-0.08984 0.04687,-0.242188 0.117187,-0.339844 0.08203,-0.117187 0.125,-0.375 0.128907,-0.78125 0.0039,-0.5 -0.01953,-0.636719 -0.152344,-0.785156 -0.08984,-0.09375 -0.203125,-0.265625 -0.253906,-0.375 -0.08984,-0.1875 -0.08984,-0.191407 0.02344,-0.03906 0.277344,0.363282 0.308594,0.378906 0.636719,0.332032 0.613281,-0.08203 0.726562,-0.601563 0.234375,-1.058594 -0.292969,-0.273438 -0.304688,-0.273438 -0.410157,-0.117188 -0.0625,0.08984 -0.164062,0.160156 -0.226562,0.160156 -0.0625,0 -0.164062,0.117188 -0.226562,0.261719 -0.0625,0.144531 -0.113282,0.214844 -0.117188,0.15625 -0.0039,-0.144531 0.160156,-0.4375 0.300781,-0.542969 0.09375,-0.06641 0.125,-0.390624 0.15625,-1.523437 0.03906,-1.421875 0.03516,-1.445313 -0.175781,-1.949219 -0.25,-0.597656 -0.738281,-1.273437 -1.058594,-1.464844 -0.386718,-0.234374 -0.746094,-0.625 -0.746094,-0.808593 0,-0.175781 0.105469,-0.265625 0.859376,-0.730469 0.1875,-0.113281 0.441406,-0.363281 0.5625,-0.546875 0.121093,-0.1875 0.25,-0.367187 0.289062,-0.394531 0.04297,-0.027344 0.05469,-0.125 0.03125,-0.214844 -0.02734,-0.109375 -0.0078,-0.148438 0.0625,-0.121094 0.0625,0.023438 0.121094,-0.050781 0.152344,-0.195312 0.06641,-0.289063 0.394531,-0.613282 0.558594,-0.550782 0.06641,0.023438 0.214843,0.253907 0.332031,0.507813 0.335937,0.734375 0.355469,0.777344 0.460937,0.960937 0.140625,0.238282 0.746094,0.90625 0.828125,0.914063 0.07813,0.0039 0.40625,0.40625 0.472657,0.582031 0.03125,0.08203 -0.08594,0.21875 -0.371094,0.425782 -0.652344,0.480468 -1.195313,1.046874 -1.246094,1.3125 -0.02734,0.136718 -0.08203,0.214843 -0.132812,0.183593 -0.05078,-0.03125 -0.0625,0 -0.03125,0.08594 0.03125,0.07422 0.02344,0.117187 -0.01563,0.09375 -0.07422,-0.04687 -0.199218,0.179687 -0.324218,0.59375 -0.09766,0.324219 -0.140625,2.277343 -0.05469,2.542969 0.03125,0.09375 0.125,0.195312 0.203125,0.222656 0.08203,0.02344 0.195313,0.152344 0.25,0.285156 0.148438,0.363281 0.04687,0.773438 -0.277343,1.097656 -0.15625,0.15625 -0.265626,0.308594 -0.246094,0.339844 0.01953,0.03125 0.03906,0.300781 0.04687,0.597656 0.01563,0.457032 0.03906,0.550782 0.164062,0.585938 0.109375,0.02734 0.148438,0.113281 0.148438,0.335937 0,0.242188 -0.03906,0.316407 -0.203125,0.390625 -0.34375,0.15625 -0.730469,0.121094 -0.78125,-0.07422 z m 0.621094,-6.394532 c 0.02734,-0.125 0.230468,-0.519531 0.449218,-0.875 0.378906,-0.617187 0.699219,-0.9375 1.375,-1.378906 0.164063,-0.109375 0.300782,-0.246094 0.300782,-0.300781 0,-0.05859 -0.304688,-0.398438 -0.679688,-0.753907 C 47.078125,10.023438 46.921875,9.816406 46.652344,9.246094 46.46875,8.863281 46.289062,8.585938 46.234375,8.601562 46.183594,8.617188 46.050781,8.8125 45.9375,9.027344 c -0.195312,0.378906 -0.550781,0.894531 -0.804688,1.167968 -0.06641,0.07031 -0.34375,0.28125 -0.621093,0.464844 -0.273438,0.1875 -0.5,0.371094 -0.5,0.410156 0,0.07422 0.523437,0.578126 0.796875,0.769532 0.371094,0.261718 1.117187,1.65625 1.125,2.089844 0,0.261718 0.21875,0.222656 0.277344,-0.05078 z m -9.566407,5.960938 c 0,-0.02344 0.01953,-0.03906 0.03906,-0.03906 0.02344,0 0.03906,0.01563 0.03906,0.03906 0,0.02344 -0.01563,0.03906 -0.03906,0.03906 -0.01953,0 -0.03906,-0.01563 -0.03906,-0.03906 z m 4.128907,-0.394532 c -0.05469,-0.375 -0.164063,-0.480468 -0.230469,-0.226562 -0.01953,0.07813 -0.03906,-0.109375 -0.04687,-0.414062 -0.0078,-0.542969 -0.0039,-0.550782 0.140625,-0.402344 0.08594,0.08594 0.132812,0.183594 0.113281,0.222656 -0.01953,0.03516 0.0078,0.296875 0.05859,0.582031 0.05469,0.285157 0.08203,0.539063 0.05859,0.558594 -0.01953,0.02344 -0.0625,-0.121094 -0.09375,-0.320313 z m 0.355468,-0.96875 c 0,-0.01953 0.01953,-0.03906 0.03906,-0.03906 0.02344,0 0.04297,0.01953 0.04297,0.03906 0,0.02344 -0.01953,0.04297 -0.04297,0.04297 -0.01953,0 -0.03906,-0.01953 -0.03906,-0.04297 z M 35.203125,17.91797 c 0,-0.02344 0.01953,-0.03906 0.03906,-0.03906 0.02344,0 0.03906,0.01563 0.03906,0.03906 0,0.01953 -0.01563,0.03906 -0.03906,0.03906 -0.01953,0 -0.03906,-0.01953 -0.03906,-0.03906 z m 4.484375,0 c 0,-0.02344 0.01953,-0.03906 0.03906,-0.03906 0.02344,0 0.04297,0.01563 0.04297,0.03906 0,0.01953 -0.01953,0.03906 -0.04297,0.03906 -0.01953,0 -0.03906,-0.01953 -0.03906,-0.03906 z M 40.414062,17.75 c 0.0039,-0.09375 0.02344,-0.113281 0.05078,-0.04687 0.01953,0.05469 0.01953,0.125 -0.0078,0.152344 -0.02734,0.02734 -0.04687,-0.01953 -0.04297,-0.105469 z m -27.875,-4.800781 c 0,-0.02344 0.01953,-0.03906 0.04297,-0.03906 0.01953,0 0.03906,0.01563 0.03906,0.03906 0,0.02344 -0.01953,0.03906 -0.03906,0.03906 -0.02344,0 -0.04297,-0.01563 -0.04297,-0.03906 z M 31.597656,8.222656 c 0,-0.023437 0.01953,-0.039062 0.04297,-0.039062 0.01953,0 0.03906,0.015625 0.03906,0.039062 0,0.019532 -0.01953,0.039063 -0.03906,0.039063 -0.02344,0 -0.04297,-0.019531 -0.04297,-0.039063 z m 0,0"
       id="path1" />
    <text
       xml:space="preserve"
       style="font-size:58.1861px;fill:#ffffff;stroke:#ffffff;stroke-width:3.02384;stroke-opacity:1"
       x="55.873486"
       y="45.543663"
       id="text1"
       transform="scale(0.95755448,1.044327)"><tspan
         sodipodi:role="line"
         id="tspan1"
         x="55.873486"
         y="45.543663"
         style="fill:#ffffff;stroke:#ffffff;stroke-width:3.02384;stroke-opacity:1">CEIBO</tspan></text>
  </g>
</svg>
