<?xml version="1.0" encoding="UTF-8" standalone="no"?>
<svg
   width="217"
   height="50"
   viewBox="0 0 217 50"
   version="1.1"
   id="svg1"
   sodipodi:docname="CEIBO_Logo2.svg"
   inkscape:version="1.3.2 (091e20e, 2023-11-25)"
   xmlns:inkscape="http://www.inkscape.org/namespaces/inkscape"
   xmlns:sodipodi="http://sodipodi.sourceforge.net/DTD/sodipodi-0.dtd"
   xmlns="http://www.w3.org/2000/svg"
   xmlns:svg="http://www.w3.org/2000/svg">
  <defs
     id="defs1" />
  <sodipodi:namedview
     id="namedview1"
     pagecolor="#ffffff"
     bordercolor="#000000"
     borderopacity="0.25"
     inkscape:showpageshadow="2"
     inkscape:pageopacity="0.0"
     inkscape:pagecheckerboard="0"
     inkscape:deskcolor="#d1d1d1"
     inkscape:zoom="3.5638182"
     inkscape:cx="79.689812"
     inkscape:cy="49.385236"
     inkscape:window-width="1360"
     inkscape:window-height="704"
     inkscape:window-x="0"
     inkscape:window-y="27"
     inkscape:window-maximized="1"
     inkscape:current-layer="svg1" />
  <g
     id="surface1" />
  <path
     style="fill:#3ad447;fill-opacity:1;fill-rule:nonzero;stroke:none"
     d="m 24.892665,48.125303 c -1.59375,-0.125 -2.921875,-0.34375 -4.203125,-0.6875 -0.507813,-0.13281 -1.113282,-0.29687 -1.34375,-0.35937 -0.792969,-0.21094 -1.945313,-0.6836 -3.003906,-1.22657 -1.007813,-0.51562 -2.695313,-1.49609 -2.78125,-1.61328 -0.01953,-0.0312 -0.199219,-0.15625 -0.398438,-0.28125 -1.53125,-0.95703 -3.5546878,-2.89844 -5.0859375,-4.88281 -0.132812,-0.17188 -0.296874,-0.37109 -0.367187,-0.44531 -0.07031,-0.0703 -0.148437,-0.1836 -0.179687,-0.2461 -0.03125,-0.0625 -0.164063,-0.27343 -0.292969,-0.47265 -0.132813,-0.19922 -0.277344,-0.44922 -0.324219,-0.5586 -0.04687,-0.10937 -0.113281,-0.21875 -0.140625,-0.24218 -0.0625,-0.0469 -0.144531,-0.1836 -0.542969,-0.94141 -0.15625,-0.29688 -0.320312,-0.57813 -0.359375,-0.61719 -0.04297,-0.043 -0.07422,-0.125 -0.07422,-0.18359 0,-0.0586 -0.08594,-0.23828 -0.1875,-0.40235 -0.101561,-0.16796 -0.253905,-0.48046 -0.335936,-0.70312 -0.07813,-0.21875 -0.171875,-0.43359 -0.203125,-0.48047 -0.03125,-0.043 -0.242188,-0.63672 -0.472656,-1.31641 -0.820313,-2.41796 -1.175782,-5.13671 -1.101563,-8.41796 0.04297,-1.9336 0.125,-2.65235 0.5,-4.394544 0.226563,-1.05078 0.273438,-1.21484 0.617188,-2.17578 0.277343,-0.78906 0.304687,-0.85547 0.863281,-2.08203 0.484375,-1.07031 0.75,-1.578123 1.320312,-2.527341 0.128907,-0.21875 0.273438,-0.460938 0.320313,-0.535157 0.519531,-0.882812 2.2070307,-2.9765632 3.0976555,-3.8476572 1.949219,-1.910156 4.460938,-3.621094 6.953125,-4.734375 1.984375,-0.886719 3.746094,-1.398438 6.003906,-1.75 1.597657,-0.246094 5.308594,-0.269531 6.726563,-0.03906 3.402344,0.542968 6.351563,1.621093 8.707031,3.179687 0.714844,0.472656 1.078125,0.675781 1.171875,0.652344 0.03516,-0.01172 0.04687,0.01172 0.02344,0.05078 -0.02734,0.03906 0.03516,0.113281 0.136719,0.167969 0.210937,0.113281 0.421874,0.40625 0.289062,0.40625 -0.04687,0 -0.253906,-0.07031 -0.460938,-0.15625 -1.035156,-0.4375 -2.875,-0.6875 -5.058593,-0.679688 -1.730471,0.0039 -3.136721,0.195313 -5.046877,0.679688 -0.644532,0.164062 -2.144532,0.6875 -2.28125,0.792969 -0.04297,0.03516 -0.171875,0.09375 -0.28125,0.125 -0.316406,0.09375 -1.703125,0.800781 -2.550782,1.300781 -0.832031,0.492187 -0.800781,0.46875 -1.214843,0.808593 -0.152344,0.125 -0.40625,0.316407 -0.558594,0.425782 -1.003906,0.7070322 -3.003906,2.7968762 -3.925781,4.1054692 -0.06641,0.09375 -0.144532,0.183597 -0.179688,0.199217 -0.03125,0.0117 -0.05859,0.0742 -0.05859,0.13281 0,0.0586 -0.03125,0.11719 -0.07031,0.13282 -0.175781,0.0664 -1.289062,2.08203 -1.6875,3.05859 -0.777344,1.90234 -0.988281,2.62891 -1.332031,4.578133 -0.351563,1.97656 -0.296875,4.72265 0.128906,6.92187 0.08594,0.45703 0.175781,0.85938 0.195313,0.89063 0.01953,0.0312 0.05469,0.17187 0.08203,0.3164 0.04687,0.27735 0.410156,1.35156 0.632812,1.89063 0.07422,0.17578 0.195313,0.46484 0.269531,0.64062 0.347657,0.82813 1.351563,2.67969 1.875,3.46485 1.042969,1.55468 3.054688,3.63281 4.5,4.64843 0.265626,0.1875 0.558594,0.41016 0.648438,0.49219 0.3125,0.28906 2.558594,1.42969 3.617188,1.83984 0.4375,0.17188 1.105468,0.46094 1.320312,0.57422 0.07422,0.0352 0.398438,0.1211 0.722656,0.1875 0.328125,0.0703 0.828125,0.17969 1.113282,0.24219 1.363281,0.32031 2.1875,0.40234 3.921874,0.39453 1.777344,-0.008 3.011719,-0.125 4.476563,-0.42969 0.414063,-0.0859 0.847656,-0.15625 0.960937,-0.15625 h 0.207032 l -0.257813,0.23829 c -0.140625,0.13281 -0.273437,0.24218 -0.296875,0.24218 -0.02344,0 -0.34375,0.19532 -0.71875,0.4375 -0.792968,0.50782 -2.617187,1.4336 -3.53125,1.78516 -0.351562,0.13281 -0.875,0.33594 -1.164062,0.44531 -0.285156,0.10938 -0.96875,0.32813 -1.519532,0.48438 -0.902343,0.2539 -1.507812,0.35937 -3.445312,0.60547 -1.09375,0.14062 -2.964844,0.16015 -4.363281,0.0469 z m -5.195313,-3.06641 c 0.25,-0.16796 0.140625,-0.57812 -0.15625,-0.57812 -0.347656,0 -0.511718,0.39062 -0.234375,0.55469 0.167969,0.0977 0.269531,0.10156 0.390625,0.0234 z m -5.070312,-2.7539 c 0.398437,-0.20703 0.390625,-0.46485 -0.01563,-0.69531 l -0.308589,-0.17188 -0.210937,0.16406 c -0.222657,0.17578 -0.261719,0.38282 -0.125,0.64063 0.09375,0.17578 0.394531,0.20312 0.660156,0.0625 z m -4.429688,-4.875 c 0.210938,-0.11328 0.347656,-0.56641 0.246094,-0.82422 -0.101562,-0.27344 -0.3125,-0.37891 -0.7460938,-0.37891 -0.265625,0 -0.394531,0.0469 -0.5273437,0.1875 -0.160156,0.16797 -0.171874,0.22657 -0.101562,0.53907 0.04297,0.1914 0.1445307,0.39843 0.2187497,0.45312 0.167969,0.12109 0.699219,0.13672 0.9101558,0.0234 z m -2.9101555,-6.00391 c 0.332031,-0.20312 0.484375,-0.64062 0.347656,-0.97656 -0.203125,-0.48438 -0.933594,-0.75391 -1.234375,-0.44922 -0.07422,0.0742 -0.195312,0.16797 -0.269531,0.21094 -0.179688,0.0977 -0.191406,0.80469 -0.01563,0.97656 0.425781,0.41797 0.761719,0.48828 1.171875,0.23828 z M 11.22079,18.871389 c 0.226562,-0.043 0.234375,-0.1914 0.01172,-0.1914 -0.08984,0 -0.472656,-0.0781 -0.847656,-0.16797 -0.6640618,-0.16406 -0.9882808,-0.33594 -0.9882808,-0.51953 0,-0.0469 -0.2421867,-0.32422 -0.5429687,-0.61328 -0.492187,-0.47657 -0.578125,-0.52735 -0.980468,-0.58203 -0.238282,-0.0352 -0.570313,-0.12891 -0.734376,-0.21094 -0.582031,-0.29297 -0.664062,-0.16406 -0.375,0.57812 0.277344,0.71094 0.304688,0.75391 0.738282,1.03907 0.605468,0.39843 0.691406,0.4375 1.300781,0.58203 0.7695307,0.18359 1.7773435,0.21875 2.4179685,0.0859 z m -2.5351555,-0.67968 c -0.101563,-0.043 -0.289063,-0.15625 -0.410157,-0.25391 -0.121093,-0.10156 -0.332031,-0.24219 -0.46875,-0.31641 -0.308593,-0.16796 -0.335937,-0.38671 -0.04687,-0.38671 0.28125,0 0.421875,0.0859 0.859375,0.52734 0.484375,0.48437 0.503907,0.60547 0.06641,0.42969 z m 4.6914055,-3.01172 c 0.07031,-0.17578 -0.15625,-0.32813 -0.589844,-0.39453 -0.308594,-0.0469 -0.367188,-0.0898 -0.46875,-0.33594 -0.06641,-0.15625 -0.15625,-0.628907 -0.203125,-1.050781 -0.0625,-0.554688 -0.132813,-0.84375 -0.261719,-1.03125 -0.191406,-0.28125 -0.523437,-0.378907 -0.378906,-0.109376 0.121094,0.230469 0.210938,1.25 0.101562,1.179688 -0.132812,-0.07813 -0.230468,-0.511719 -0.386718,-1.648438 -0.171875,-1.269531 -0.199219,-1.332031 -0.441406,-0.878906 -0.160157,0.304688 -0.1875,0.472656 -0.1875,1.15625 0,0.753906 0.01562,0.835938 0.273437,1.351563 0.195313,0.390625 0.335937,0.57422 0.480469,0.625 0.234375,0.082 0.453125,0.375 0.351562,0.47266 -0.08984,0.0859 -0.804687,-0.26563 -1.105468,-0.54297 -0.132813,-0.121097 -0.335938,-0.269534 -0.449219,-0.328128 -0.1171878,-0.0625 -0.2968748,-0.253906 -0.4023438,-0.429687 -0.347656,-0.574219 -0.5507807,-0.703125 -0.5507807,-0.347656 0,0.441406 0.8554675,1.351561 1.6445305,1.742191 1.183594,0.58984 2.457031,0.87109 2.574219,0.57031 z m 1.585937,-4.351564 c 0.04687,-0.07422 -0.230469,-0.531251 -0.398437,-0.664064 -0.04687,-0.03516 -0.179688,-0.08594 -0.300782,-0.109374 -0.261718,-0.05859 -0.527343,-0.4101572 -0.359374,-0.4765632 0.0625,-0.02344 0.210937,-0.0039 0.332031,0.04297 0.304687,0.117187 1.449219,0.02734 1.769531,-0.140625 0.144531,-0.07422 0.382812,-0.199219 0.53125,-0.277344 0.515625,-0.273437 0.851562,-1.035156 0.746094,-1.699219 -0.105469,-0.644531 -0.5,-1.296875 -0.675782,-1.117187 -0.04297,0.04297 -0.02344,0.304687 0.04688,0.632812 0.07421,0.335938 0.105464,0.730469 0.07812,0.980469 -0.04687,0.410156 -0.1875,0.824219 -0.28125,0.824219 -0.02344,0 -0.05078,-0.445313 -0.05859,-0.984375 -0.0078,-0.789063 -0.04297,-1.050782 -0.171878,-1.351563 -0.179688,-0.414062 -0.308594,-0.53125 -0.4375,-0.402343 -0.0625,0.0625 -0.05859,0.152343 0.01563,0.3125 0.05469,0.121093 0.121093,0.53125 0.144531,0.914062 0.04297,0.703125 -0.07422,1.253906 -0.363281,1.722656 -0.183599,0.300782 -0.851568,0.355469 -1.730474,0.152344 -0.472656,-0.109375 -0.585938,-0.06641 -0.457031,0.171875 0.04297,0.07813 0.101562,0.242187 0.125,0.363281 0.02734,0.125 0.140625,0.269532 0.265625,0.3359382 0.121094,0.06641 0.382812,0.28125 0.578125,0.476563 0.367187,0.363282 0.515625,0.433594 0.601562,0.292968 z m 0.175781,-0.375 c -0.03125,-0.03125 -0.05469,-0.0078 -0.05469,0.05078 0,0.05859 0.02344,0.08594 0.05469,0.05469 0.02734,-0.02734 0.02734,-0.07813 0,-0.10547 z M 39.146571,5.7776428 c 0.02734,-0.04297 0.03125,-0.07813 0.01172,-0.07813 -0.02344,0 -0.0625,0.03516 -0.08984,0.07813 -0.02734,0.04297 -0.03125,0.08203 -0.01172,0.08203 0.02344,0 0.0625,-0.03906 0.08984,-0.08203 z m -0.359375,-0.273438 c 0,-0.01953 -0.04297,-0.0625 -0.09375,-0.09375 -0.05469,-0.03516 -0.07031,-0.02344 -0.03516,0.03516 0.05859,0.09375 0.128906,0.125 0.128906,0.05859 z m 0.769531,37.3632882 c -0.07031,-0.35156 -0.05859,-0.44922 0.03125,-0.3086 0.05469,0.082 0.06641,-0.004 0.04297,-0.28125 -0.03516,-0.39062 -0.03516,-0.39453 0.03516,-0.082 0.09375,0.41797 0.101563,0.92188 0.01172,0.92188 -0.03906,0 -0.09375,-0.11328 -0.121094,-0.25 z m -0.15625,-0.52344 c -0.02734,-0.0312 -0.05078,-0.0898 -0.05078,-0.13672 0,-0.0508 0.03516,-0.0469 0.09375,0.0117 0.05078,0.0508 0.07422,0.11328 0.05078,0.13672 -0.01953,0.0234 -0.0625,0.0156 -0.09375,-0.0117 z m -0.121093,-0.64062 c -0.05078,-0.20313 -0.08203,-0.38282 -0.06641,-0.40235 0.01953,-0.0156 0.07813,0.13281 0.136719,0.33594 0.05469,0.19922 0.08594,0.37891 0.06641,0.39844 -0.01953,0.0195 -0.08203,-0.12891 -0.136719,-0.33203 z m 0.230468,-0.0273 c 0,-0.0898 0.03125,-0.16016 0.07031,-0.16016 0.03906,0 0.05469,0.0703 0.03125,0.16016 -0.02344,0.0859 -0.05469,0.16015 -0.07422,0.16015 -0.01563,0 -0.02734,-0.0742 -0.02734,-0.16015 z m -0.07422,-0.44922 c 0.0039,-0.0937 0.02344,-0.10938 0.04687,-0.0469 0.02344,0.0586 0.01953,0.125 -0.0078,0.15234 -0.02344,0.0273 -0.04297,-0.0195 -0.03906,-0.10547 z m -0.320313,-0.16016 c 0.0039,-0.0937 0.02344,-0.10937 0.04687,-0.0469 0.02344,0.0586 0.01953,0.125 -0.0078,0.15235 -0.02344,0.0273 -0.04297,-0.0195 -0.03906,-0.10547 z m 0.238281,-0.16016 c 0.0039,-0.0937 0.02344,-0.10937 0.05078,-0.0469 0.01953,0.0586 0.01953,0.125 -0.0078,0.15234 -0.02734,0.0273 -0.04687,-0.0195 -0.04297,-0.10547 z m -0.4375,-0.48046 c -0.07813,-0.2461 -0.125,-0.46094 -0.109375,-0.48047 0.01953,-0.0156 0.09375,0.17187 0.171875,0.41406 0.07813,0.24609 0.128906,0.46484 0.109375,0.48047 -0.01563,0.0195 -0.09375,-0.16797 -0.171875,-0.41406 z m 0.316406,0.082 c -0.02734,-0.11719 -0.03516,-0.23047 -0.01953,-0.2461 0.01953,-0.0195 0.05859,0.0586 0.08984,0.17578 0.02734,0.11719 0.03906,0.23047 0.01953,0.25 -0.01953,0.0195 -0.05859,-0.0625 -0.08984,-0.17968 z m -0.199218,-0.6836 c -0.05078,-0.17969 -0.117188,-0.38672 -0.144532,-0.45312 -0.03125,-0.0781 -0.01562,-0.10547 0.03516,-0.0742 0.08594,0.0547 0.296875,0.76953 0.242187,0.82422 -0.01953,0.0195 -0.07813,-0.11719 -0.132812,-0.29688 z m -0.324219,-0.0703 c 0,-0.0586 0.02344,-0.0859 0.05078,-0.0547 0.03125,0.0273 0.03125,0.0781 0,0.10547 -0.02734,0.0312 -0.05078,0.008 -0.05078,-0.0508 z m -0.08203,-0.20312 c 0,-0.0195 0.01953,-0.0391 0.03906,-0.0391 0.02344,0 0.04297,0.0195 0.04297,0.0391 0,0.0234 -0.01953,0.043 -0.04297,0.043 -0.01953,0 -0.03906,-0.0195 -0.03906,-0.043 z m -0.07813,-0.19922 c 0,-0.0586 0.02344,-0.082 0.05078,-0.0547 0.03125,0.0312 0.03125,0.0781 0,0.10937 -0.02734,0.0273 -0.05078,0.004 -0.05078,-0.0547 z m -0.08203,-0.19922 c 0,-0.0234 0.01953,-0.043 0.03906,-0.043 0.02344,0 0.04297,0.0195 0.04297,0.043 0,0.0195 -0.01953,0.0391 -0.04297,0.0391 -0.01953,0 -0.03906,-0.0195 -0.03906,-0.0391 z m 0.320312,-0.043 c 0,-0.0586 0.02344,-0.082 0.05469,-0.0508 0.02734,0.0273 0.02734,0.0781 0,0.10547 -0.03125,0.0312 -0.05469,0.004 -0.05469,-0.0547 z m -0.441406,-0.16016 c 0.02734,-0.043 0.06641,-0.0781 0.08594,-0.0781 0.01953,0 0.03516,0.0352 0.03516,0.0781 0,0.0469 -0.03906,0.082 -0.08594,0.082 -0.04687,0 -0.0625,-0.0352 -0.03516,-0.082 z m 0.363281,-0.0781 c 0,-0.0586 0.02344,-0.082 0.05078,-0.0547 0.03125,0.0312 0.03125,0.0781 0,0.10937 -0.02734,0.0273 -0.05078,0.004 -0.05078,-0.0547 z m -0.648432,-0.71484 c -0.148438,-0.34766 -0.304688,-0.61328 -0.347657,-0.58984 -0.03906,0.0273 -0.04297,0.004 -0.0078,-0.0547 0.03516,-0.0547 0.03125,-0.125 -0.0078,-0.15235 -0.09766,-0.0703 -0.269531,-0.39062 -0.269531,-0.49609 0,-0.0508 -0.125,-0.23438 -0.277344,-0.41406 -0.152343,-0.17969 -0.273437,-0.34766 -0.273437,-0.375 0.01953,-0.14063 -0.01953,-0.25391 -0.07031,-0.22266 -0.105469,0.0625 -0.261719,-0.15234 -0.261719,-0.35156 0,-0.0469 -0.06641,-0.0625 -0.152343,-0.0391 -0.101563,0.0352 -0.199219,-0.0117 -0.300781,-0.13672 -0.15625,-0.19922 -0.398438,-0.33594 -0.660157,-0.3711 -0.04297,-0.004 -0.132812,-0.0664 -0.203125,-0.13281 -0.06641,-0.0703 -0.355468,-0.1914 -0.632812,-0.27344 -0.523438,-0.14843 -0.957032,-0.1289 -1.292969,0.0586 -0.460937,0.25781 -2.84375,1.3789 -3.097656,1.45703 -0.339844,0.10547 -1.667969,0.0898 -1.667969,-0.0195 0,-0.043 -0.07031,-0.0547 -0.160156,-0.0352 -0.08984,0.0234 -0.140625,0.0117 -0.117188,-0.0234 0.02344,-0.0391 -0.07813,-0.0937 -0.222656,-0.1211 -0.199219,-0.0352 -0.324219,-0.14062 -0.523438,-0.44531 -0.144531,-0.21875 -0.296874,-0.37891 -0.339843,-0.35156 -0.04297,0.0273 -0.05469,-0.008 -0.03125,-0.0742 0.02734,-0.0703 -0.03125,-0.25 -0.128907,-0.41016 -0.113281,-0.1875 -0.183593,-0.45313 -0.207031,-0.78125 l -0.03125,-0.5 0.105469,0.41406 c 0.242188,0.92578 0.800781,1.74219 1.433594,2.08594 0.207031,0.11328 0.445312,0.14453 1.101562,0.14453 h 0.84375 l 0.832032,-0.39453 c 0.980468,-0.46094 1.863281,-0.94141 1.8125,-0.98828 -0.01563,-0.0195 -0.546876,0.16406 -1.179688,0.40234 -1.121094,0.42969 -1.585938,0.57813 -1.585938,0.50781 0,-0.0195 0.132813,-0.0781 0.296876,-0.13281 0.296874,-0.0977 0.554687,-0.28906 0.488281,-0.35937 -0.02344,-0.0195 -0.195313,-0.008 -0.390625,0.0234 -0.195313,0.0352 -0.644532,0.0391 -0.996094,0.0156 l -0.640625,-0.0469 0.761719,-0.0156 c 0.417968,-0.008 1.101562,-0.0898 1.519531,-0.18359 1.429687,-0.3125 1.882813,-0.38672 2.644531,-0.4375 l 0.761719,-0.0508 0.824219,0.41796 c 0.453125,0.22657 0.949218,0.52344 1.097656,0.65235 0.441406,0.39062 1.175781,1.64844 1.671875,2.87109 0.300781,0.73828 0.203125,0.6836 -0.117187,-0.0703 z m -1.035157,-2.05078 c 0,-0.0195 -0.01953,-0.0391 -0.03906,-0.0391 -0.02344,0 -0.03906,0.0195 -0.03906,0.0391 0,0.0234 0.01563,0.0391 0.03906,0.0391 0.01953,0 0.03906,-0.0156 0.03906,-0.0391 z m -0.640625,-0.71484 c 0,-0.0195 -0.03516,-0.0586 -0.07813,-0.0859 -0.04687,-0.0273 -0.08203,-0.0117 -0.08203,0.0352 0,0.0469 0.03516,0.0859 0.08203,0.0859 0.04297,0 0.07813,-0.0156 0.07813,-0.0352 z m -0.800781,-0.48438 c 0,-0.0234 -0.01953,-0.043 -0.03906,-0.043 -0.02344,0 -0.03906,0.0195 -0.03906,0.043 0,0.0195 0.01563,0.0391 0.03906,0.0391 0.01953,0 0.03906,-0.0195 0.03906,-0.0391 z m 2.886719,3.26563 c -0.105469,-0.29688 -0.417969,-0.98829 -0.695313,-1.53125 -0.273437,-0.54688 -0.433593,-0.92579 -0.355469,-0.84375 0.08203,0.082 0.132813,0.17187 0.117188,0.20312 -0.01953,0.0273 -0.0039,0.0664 0.02734,0.0781 0.03516,0.0156 0.199218,0.31641 0.367187,0.66797 0.285157,0.60547 0.359375,0.76562 0.617188,1.36328 0.101562,0.23438 0.1875,0.60156 0.140625,0.60156 -0.01172,0 -0.109375,-0.24218 -0.21875,-0.53906 z m -0.08203,-0.94532 c 0,-0.0195 0.01563,-0.0391 0.03906,-0.0391 0.01953,0 0.03906,0.0195 0.03906,0.0391 0,0.0234 -0.01953,0.043 -0.03906,0.043 -0.02344,0 -0.03906,-0.0195 -0.03906,-0.043 z m -0.160156,-1.08593 c 0,-0.0469 0.03516,-0.0625 0.07813,-0.0352 0.04297,0.0273 0.08203,0.0664 0.08203,0.0859 0,0.0195 -0.03906,0.0352 -0.08203,0.0352 -0.04297,0 -0.07813,-0.0391 -0.07813,-0.0859 z m -0.5625,-0.19532 c 0,-0.0195 0.01953,-0.0391 0.03906,-0.0391 0.02344,0 0.04297,0.0195 0.04297,0.0391 0,0.0234 -0.01953,0.0391 -0.04297,0.0391 -0.01953,0 -0.03906,-0.0156 -0.03906,-0.0391 z m -10.089846,-0.19924 c 0,-0.0586 0.02344,-0.082 0.05469,-0.0547 0.02734,0.0312 0.02734,0.0781 0,0.10937 -0.03125,0.0273 -0.05469,0.004 -0.05469,-0.0547 z m 0.890626,-0.21875 c -0.148438,-0.0703 -0.414063,-0.3125 -0.585938,-0.53125 -0.332031,-0.41796 -0.742188,-1.16406 -0.679688,-1.22656 0.01953,-0.0195 0.300782,0.1875 0.625,0.46094 0.324219,0.26953 0.691407,0.53125 0.820313,0.57422 0.167969,0.0586 0.199219,0.0977 0.117187,0.14844 -0.136718,0.0898 -0.246093,0.0898 -0.195312,0.004 0.05469,-0.0898 -0.300781,-0.25391 -0.550781,-0.25391 -0.101563,0 -0.207031,-0.043 -0.226563,-0.0977 -0.02344,-0.0547 -0.04687,-0.0625 -0.04687,-0.0156 -0.01172,0.12109 0.332031,0.5625 0.597657,0.77344 0.203124,0.16015 0.324218,0.18359 0.984374,0.17969 0.414063,0 0.667969,0.0234 0.5625,0.0547 -0.375,0.10157 -1.148437,0.0664 -1.421874,-0.0703 z m 8.667968,-0.043 c -0.03125,-0.0547 -0.113281,-0.1875 -0.179687,-0.30078 -0.121094,-0.19922 -0.121094,-0.19922 0.04687,-0.0547 0.08984,0.082 0.1875,0.21485 0.207031,0.30079 0.04687,0.17968 0.01563,0.20312 -0.07422,0.0547 z m -10.28125,-0.22265 c 0,-0.0469 0.03906,-0.0625 0.08203,-0.0352 0.04297,0.0273 0.07812,0.0625 0.07812,0.082 0,0.0195 -0.03516,0.0352 -0.07812,0.0352 -0.04297,0 -0.08203,-0.0352 -0.08203,-0.082 z m 0.08203,-0.19531 c 0,-0.0234 0.01953,-0.043 0.03906,-0.043 0.02344,0 0.03906,0.0195 0.03906,0.043 0,0.0195 -0.01562,0.0391 -0.03906,0.0391 -0.01953,0 -0.03906,-0.0195 -0.03906,-0.0391 z m 0.04687,-0.25782 c -0.04687,-0.11328 -0.03516,-0.125 0.04297,-0.0469 0.05469,0.0547 0.07813,0.1211 0.05469,0.14453 -0.02344,0.0234 -0.07031,-0.0195 -0.09766,-0.0977 z m 9.28125,0.0547 c -0.05469,-0.0898 -0.863281,-0.51172 -1.320312,-0.6914 -0.25,-0.0977 -0.253906,-0.10547 -0.03906,-0.0586 0.132812,0.0273 0.285156,0.0508 0.339843,0.0547 0.05469,0 0.101563,0.0312 0.101563,0.0625 0,0.0664 0.320312,0.19531 0.417968,0.16797 0.03516,-0.008 0.0625,0.0234 0.0625,0.0703 0,0.0469 0.03516,0.0625 0.07813,0.0352 0.121093,-0.0742 0.101562,-0.30078 -0.01953,-0.23047 -0.05469,0.0312 -0.07422,0.0273 -0.04297,-0.008 0.03125,-0.0352 -0.01172,-0.16406 -0.101563,-0.28516 -0.08594,-0.12109 -0.15625,-0.26172 -0.15625,-0.30859 0,-0.0508 -0.03906,-0.0898 -0.08594,-0.0898 -0.04688,0 -0.0625,-0.0312 -0.03906,-0.0742 0.02734,-0.0391 0.01953,-0.0859 -0.01563,-0.0977 -0.03124,-0.0156 -0.167964,-0.19143 -0.300776,-0.38674 -0.132813,-0.19922 -0.335938,-0.44531 -0.457031,-0.54688 -0.117188,-0.10156 -0.195313,-0.23437 -0.171876,-0.29297 0.02344,-0.0625 -0.03516,-0.15234 -0.125,-0.20312 -0.09375,-0.0469 -0.152343,-0.11719 -0.132812,-0.15234 0.132812,-0.21094 -0.539062,-0.64844 -1,-0.64844 -0.125,0 -0.25,-0.0391 -0.277344,-0.0859 -0.03125,-0.0469 -0.113281,-0.0625 -0.183594,-0.0352 -0.07031,0.0273 -0.101562,0.0234 -0.07031,-0.0117 0.152344,-0.15235 -1.214844,-0.44531 -2.144531,-0.46094 -0.222657,-0.004 -0.417969,-0.0312 -0.441407,-0.0625 -0.02344,-0.0273 -0.199218,-0.0234 -0.394531,0.0117 -0.195312,0.0352 -0.402343,0.0469 -0.457031,0.0273 -0.136719,-0.0547 -1.65625,0.29688 -1.71875,0.39453 -0.02734,0.0391 -0.07422,0.0703 -0.101562,0.0664 -0.07813,-0.0156 -0.726563,0.17969 -0.773438,0.23047 -0.01953,0.0234 -0.09375,0.0508 -0.160156,0.0586 -0.0625,0.004 -0.40625,0.0742 -0.757813,0.14844 -0.6875,0.14844 -2.050781,0.11719 -2.253906,-0.0508 -0.05859,-0.0469 -0.140625,-0.0625 -0.1875,-0.0352 -0.04297,0.0312 -0.08203,0.0117 -0.08203,-0.0391 0,-0.0508 -0.05469,-0.0742 -0.121094,-0.0469 -0.06641,0.0234 -0.121094,0.0117 -0.121094,-0.0273 0,-0.0391 -0.125,-0.11719 -0.277344,-0.17578 -0.378906,-0.13672 -0.359374,-0.33203 0.05859,-0.6211 0.1875,-0.13281 0.402344,-0.29297 0.480469,-0.36328 0.07813,-0.0703 0.171875,-0.125 0.210937,-0.125 0.03906,0 0.113282,-0.0547 0.167969,-0.12109 0.05469,-0.0625 0.132813,-0.0977 0.171875,-0.0742 0.03906,0.0234 0.15625,-0.0469 0.257813,-0.16016 0.128906,-0.13672 0.277343,-0.20703 0.441406,-0.20703 0.140625,0 0.320313,-0.0664 0.40625,-0.15234 0.09766,-0.0977 0.21875,-0.14063 0.339844,-0.11328 0.152343,0.0352 0.164062,0.0234 0.06641,-0.0547 -0.101563,-0.0781 -0.08984,-0.0859 0.0625,-0.0508 0.09766,0.0195 0.3125,0.004 0.46875,-0.043 0.789063,-0.21485 1.550781,-0.32032 1.949219,-0.26953 0.628906,0.0859 1.121094,0.21875 1.121094,0.30078 0,0.0469 0.07422,0.0625 0.164062,0.0391 0.08594,-0.0234 0.140625,-0.0117 0.117188,0.0234 -0.05078,0.0859 0.984374,0.40234 1.152343,0.34765 0.101563,-0.0312 0.105469,-0.0234 0.02344,0.0352 -0.08594,0.0625 -0.08594,0.0859 0.01172,0.125 0.06641,0.0234 0.140624,-0.008 0.164062,-0.0703 0.02734,-0.0625 0.08594,-0.11719 0.136719,-0.11719 0.06641,0 0.06641,0.0352 -0.0039,0.1211 -0.07812,0.0898 -0.07812,0.12109 -0.0078,0.12109 0.05469,0 0.07422,0.0312 0.05078,0.0703 -0.08984,0.14453 0.195313,0.25391 1.082031,0.41016 1.046876,0.1875 1.4375,0.24219 1.296876,0.1875 -0.05469,-0.0234 -0.101563,-0.0742 -0.101563,-0.11719 0,-0.043 0.03516,-0.0586 0.08203,-0.0312 0.04297,0.0273 0.07813,0.0156 0.07813,-0.0273 0,-0.0391 -0.05469,-0.0937 -0.121093,-0.12109 -0.06641,-0.0234 -0.117188,-0.10157 -0.117188,-0.17188 0,-0.0703 -0.03516,-0.10547 -0.07813,-0.082 -0.04297,0.0273 -0.101563,-0.0391 -0.128906,-0.15234 -0.02734,-0.10938 -0.09766,-0.23828 -0.160157,-0.28906 -0.05859,-0.0469 -0.08594,-0.13672 -0.06641,-0.19532 0.02344,-0.0586 0.0078,-0.125 -0.03125,-0.14843 -0.03906,-0.0273 -0.06641,0.0586 -0.05859,0.1875 0.01172,0.19531 -0.0039,0.22265 -0.09766,0.14453 -0.08594,-0.0703 -0.08984,-0.10547 -0.0078,-0.15235 0.07813,-0.0469 0.06641,-0.10156 -0.05078,-0.22656 -0.08203,-0.0937 -0.113281,-0.16797 -0.07422,-0.16797 0.03906,-0.004 -0.01172,-0.0742 -0.113282,-0.16015 -0.105468,-0.0859 -0.167968,-0.1836 -0.148437,-0.22266 0.02344,-0.0352 0.0078,-0.11719 -0.03125,-0.17969 -0.0625,-0.10156 -0.07422,-0.10156 -0.07813,0.004 -0.0039,0.0664 -0.03906,0.0391 -0.08203,-0.0664 -0.04297,-0.10156 -0.109375,-0.16406 -0.15625,-0.13672 -0.04297,0.0273 -0.05859,-0.004 -0.03125,-0.0742 0.02734,-0.0703 0.0078,-0.125 -0.04687,-0.125 -0.05078,0 -0.07031,-0.0312 -0.04687,-0.0703 0.02344,-0.0391 -0.03125,-0.0898 -0.125,-0.11328 -0.101563,-0.0273 -0.144531,-0.082 -0.109375,-0.14062 0.04297,-0.0664 0.0078,-0.0781 -0.109375,-0.0391 -0.195313,0.0625 -0.488281,-0.15235 -0.3125,-0.22266 0.05469,-0.0234 0,-0.043 -0.121094,-0.0469 -0.121094,-0.004 -0.21875,-0.043 -0.21875,-0.0859 0,-0.0469 -0.05859,-0.082 -0.125,-0.082 -0.07031,0 -0.179687,-0.0508 -0.242187,-0.11719 -0.06641,-0.0625 -0.171876,-0.0977 -0.234376,-0.0703 -0.06641,0.0234 -0.121093,0.008 -0.121093,-0.0352 0,-0.0469 -0.07813,-0.0664 -0.179688,-0.043 -0.144531,0.0312 -0.15625,0.0234 -0.05859,-0.0469 0.09766,-0.0703 0.08984,-0.0859 -0.0625,-0.0859 -0.101563,0 -0.398438,-0.0937 -0.660157,-0.20312 -0.257812,-0.10938 -0.5625,-0.19922 -0.671875,-0.19922 -0.109375,0 -0.21875,-0.0352 -0.242187,-0.0742 -0.02344,-0.0391 -0.109375,-0.0625 -0.183594,-0.0508 -0.07813,0.0117 -0.269531,-0.0234 -0.421875,-0.0742 -0.152344,-0.0547 -0.328125,-0.082 -0.390625,-0.0586 -0.05859,0.0195 -0.132813,0.004 -0.160156,-0.0391 -0.07422,-0.10547 -0.742188,-0.34375 -0.972657,-0.34375 -0.109374,0 -0.300781,-0.0547 -0.425781,-0.12109 -0.125,-0.0664 -0.257812,-0.10157 -0.292969,-0.082 -0.03516,0.0234 -0.105468,-0.0117 -0.160156,-0.0781 -0.05469,-0.0664 -0.148437,-0.1211 -0.210937,-0.1211 -0.05859,0 -0.109375,-0.0391 -0.109375,-0.0859 0,-0.043 -0.03516,-0.0586 -0.08203,-0.0312 -0.04297,0.0273 -0.05859,0.082 -0.03516,0.125 0.02734,0.0391 -0.02734,0.0742 -0.113281,0.0742 -0.08984,0 -0.183594,-0.0391 -0.210937,-0.082 -0.02734,-0.043 0.02344,-0.0781 0.113281,-0.0781 0.08594,0 0.179687,-0.0391 0.207031,-0.082 0.02734,-0.043 -0.03125,-0.0781 -0.132812,-0.082 -0.175782,0 -0.515626,-0.15234 -0.351563,-0.15625 0.04297,0 -0.109375,-0.12109 -0.335937,-0.26953 -0.230469,-0.14844 -0.398438,-0.28906 -0.375,-0.30859 0.01953,-0.0234 -0.05078,-0.10156 -0.164063,-0.17578 -0.117225,-0.0781 -0.203163,-0.0977 -0.203163,-0.0469 0,0.0469 -0.03906,0.0625 -0.08594,0.0312 -0.05859,-0.0352 -0.0625,-0.0703 -0.0078,-0.10547 0.09375,-0.0547 -0.08594,-0.35156 -0.199219,-0.32422 -0.03516,0.0117 -0.109375,-0.0625 -0.160156,-0.16406 -0.05079,-0.10156 -0.128916,-0.20312 -0.171885,-0.23047 -0.04297,-0.0273 -0.117188,-0.17578 -0.160156,-0.33203 -0.07422,-0.26172 -0.08203,-0.26562 -0.08594,-0.0586 -0.0039,0.12109 -0.04687,0.21875 -0.09766,0.21875 -0.04687,0 -0.06641,-0.0547 -0.03906,-0.125 0.109374,-0.28906 0.140624,-0.51562 0.07031,-0.51562 -0.03906,0 -0.07422,-0.0977 -0.07422,-0.21875 0,-0.1211 -0.02734,-0.30079 -0.05859,-0.40235 -0.05078,-0.15234 -0.03125,-0.17969 0.125,-0.17578 0.101562,0.004 0.332031,0.0547 0.507812,0.11719 0.175781,0.0664 0.402344,0.11719 0.503906,0.11719 0.101563,0.004 0.164063,0.0391 0.136719,0.082 -0.02734,0.0469 0.0039,0.0586 0.07422,0.0312 0.07031,-0.0273 0.171875,-0.0117 0.226562,0.0273 0.152344,0.12109 0.46875,0.18359 0.40625,0.082 -0.03516,-0.0547 0.01172,-0.0664 0.140625,-0.0352 0.105469,0.0312 0.226563,0.0547 0.273438,0.0586 0.04297,0.004 0.0078,0.0391 -0.08203,0.0781 -0.136719,0.0586 -0.125,0.0703 0.08203,0.0742 0.46875,0.0156 1.191406,0.35546 1.632812,0.76953 0.253907,0.24218 0.289063,0.2539 0.386719,0.1289 0.09766,-0.11718 0.09766,-0.10937 0.02344,0.0469 -0.04688,0.10157 -0.05859,0.17969 -0.01953,0.17969 0.03906,0 0.117188,0.0898 0.175782,0.19922 0.05859,0.10937 0.144531,0.17578 0.195312,0.14844 0.04687,-0.0273 0.0625,-0.0234 0.02734,0.0117 -0.03125,0.0352 0.04687,0.19921 0.175781,0.35937 0.128906,0.16406 0.277344,0.39063 0.332031,0.51172 0.05469,0.11719 0.128906,0.21484 0.167969,0.21484 0.04297,0 0.04687,-0.043 0.01563,-0.0937 -0.03516,-0.0547 -0.01953,-0.0703 0.03125,-0.0391 0.05078,0.0312 0.06641,0.11719 0.03906,0.1875 -0.03516,0.0977 -0.01562,0.1211 0.07813,0.082 0.09766,-0.0352 0.121093,-0.008 0.09766,0.10938 -0.03125,0.16797 0.21875,0.51172 0.464844,0.64453 0.07812,0.043 0.273437,0.0937 0.4375,0.11328 0.160156,0.0234 0.316406,0.0781 0.34375,0.12109 0.02734,0.043 0.191406,0.10157 0.363281,0.12891 0.175781,0.0273 0.375,0.10156 0.449219,0.16406 0.07422,0.0664 0.171874,0.0977 0.214843,0.0703 0.04297,-0.0273 0.101563,-0.0156 0.128907,0.0273 0.02734,0.043 0.109374,0.0586 0.1875,0.0352 0.121093,-0.0391 0.125,-0.0352 0.0039,0.043 -0.175782,0.11719 -2.183594,-0.5664 -2.476563,-0.84375 -0.113283,-0.10546 -0.378908,-0.48827 -0.593752,-0.85155 -0.445312,-0.75391 -1.425781,-1.78906 -1.941406,-2.05469 -0.1875,-0.0937 -0.792969,-0.26172 -1.347656,-0.37109 -0.554688,-0.10938 -1.136719,-0.25391 -1.292969,-0.32031 -0.421875,-0.17579 -0.449219,-0.16016 -0.390625,0.21875 0.140625,0.87109 0.742187,1.66796 1.78125,2.35156 1.058594,0.69922 1.339844,0.8125 3.292969,1.32422 2.179687,0.57031 3.640625,1.14062 4.273437,1.67187 0.289063,0.24219 2.363281,3.26172 2.292969,3.33594 -0.02344,0.0195 -0.359375,-0.0664 -0.75,-0.19531 -1.609375,-0.52735 -3.074219,-0.65235 -4.515625,-0.38282 -0.753906,0.13672 -0.988281,0.11719 -0.289063,-0.0273 0.242188,-0.0508 0.464844,-0.125 0.488282,-0.16406 0.183594,-0.29297 -1.421875,-0.0742 -3.125,0.42969 -0.21875,0.0664 -0.570313,0.14062 -0.78125,0.17187 -0.207032,0.0273 -0.472656,0.10157 -0.589844,0.16016 -0.203125,0.10547 -0.195312,0.10938 0.242188,0.16406 0.371093,0.0469 0.832031,0.0156 1.289062,-0.0859 0.04297,-0.0117 0.472656,-0.13281 0.949219,-0.27343 0.476562,-0.13672 0.902343,-0.24219 0.945312,-0.22657 0.121094,0.0391 -1.632812,0.54688 -2.285156,0.66016 -0.375,0.0664 -0.75,0.0781 -1.054687,0.0352 -0.457032,-0.0625 -0.835938,-0.20312 -0.835938,-0.31641 0,-0.0273 0.269531,-0.0781 0.601562,-0.10937 0.332032,-0.0273 1.152344,-0.19531 1.824219,-0.36719 1.878907,-0.48047 2.519531,-0.57812 3.492188,-0.53906 0.464843,0.0195 0.933593,0.0625 1.042969,0.10156 0.128906,0.043 0.175781,0.0352 0.136718,-0.0234 -0.02734,-0.0469 -0.3125,-0.18359 -0.632812,-0.30469 -0.316406,-0.12109 -0.8125,-0.30859 -1.101563,-0.42187 -0.929687,-0.36328 -1.871093,-0.32031 -3.335937,0.14844 -0.40625,0.13281 -0.945313,0.35156 -1.203125,0.49218 -0.558594,0.30469 -1.527344,0.9336 -1.585938,1.03125 -0.0625,0.10157 0.25,0.28125 0.820313,0.47266 0.941406,0.3125 2.285156,0.19922 3.695312,-0.31641 0.964844,-0.35156 1.777344,-0.49218 2.851563,-0.49218 0.984375,0 2.398437,0.22265 2.835937,0.44531 0.113282,0.0586 0.371094,0.13672 0.570313,0.16797 0.195312,0.0312 0.421875,0.0898 0.496093,0.1289 0.304688,0.16407 2.667969,3.75782 2.46875,3.75782 -0.04297,0 -0.09766,-0.0391 -0.125,-0.082 z m -1.878906,-3.0039 c 0,-0.0234 -0.01953,-0.0391 -0.04297,-0.0391 -0.01953,0 -0.03906,0.0156 -0.03906,0.0391 0,0.0234 0.01953,0.0391 0.03906,0.0391 0.02344,0 0.04297,-0.0156 0.04297,-0.0391 z m -0.5625,-0.64063 c 0,-0.0234 -0.01953,-0.0391 -0.03906,-0.0391 -0.02344,0 -0.03906,0.0156 -0.03906,0.0391 0,0.0234 0.01563,0.0391 0.03906,0.0391 0.01953,0 0.03906,-0.0156 0.03906,-0.0391 z m -0.664062,-0.73047 c -0.02344,-0.0273 -0.09375,-0.0273 -0.152344,-0.004 -0.0625,0.0234 -0.04297,0.043 0.05078,0.0469 0.08203,0.004 0.128907,-0.0156 0.101564,-0.043 z m -0.296875,-0.87109 c 0,-0.0234 -0.01953,-0.043 -0.03906,-0.043 -0.02344,0 -0.03906,0.0195 -0.03906,0.043 0,0.0195 0.01563,0.0391 0.03906,0.0391 0.01953,0 0.03906,-0.0195 0.03906,-0.0391 z m -8.570313,-0.082 c 0,-0.0195 -0.01563,-0.0391 -0.03906,-0.0391 -0.01953,0 -0.03906,0.0195 -0.03906,0.0391 0,0.0234 0.01953,0.0391 0.03906,0.0391 0.02344,0 0.03906,-0.0156 0.03906,-0.0391 z m 7.929688,-0.94922 c 0,-0.0195 -0.0625,-0.082 -0.140625,-0.14062 -0.125,-0.10157 -0.128907,-0.0977 -0.03125,0.0273 0.105469,0.13672 0.171875,0.17578 0.171875,0.11328 z m -1.148438,-1.22656 c -0.02734,-0.0312 -0.07813,-0.0312 -0.105468,0 -0.03125,0.0273 -0.0078,0.0547 0.05078,0.0547 0.0625,0 0.08594,-0.0273 0.05469,-0.0547 z m -2.53515,-1.50782 c 0,-0.0234 -0.01953,-0.043 -0.03906,-0.043 -0.02344,0 -0.04297,0.0195 -0.04297,0.043 0,0.0195 0.01953,0.0391 0.04297,0.0391 0.01953,0 0.03906,-0.0195 0.03906,-0.0391 z m -4.40625,-1.04297 c 0,-0.0234 -0.01563,-0.0391 -0.03906,-0.0391 -0.01953,0 -0.03906,0.0156 -0.03906,0.0391 0,0.0234 0.01953,0.0391 0.03906,0.0391 0.02344,0 0.03906,-0.0156 0.03906,-0.0391 z m 12.425781,9.71485 c -0.4375,-0.76563 -0.726562,-1.60156 -0.769531,-2.23438 -0.05078,-0.71875 0.07422,-0.42187 0.144531,0.34375 0.03906,0.39844 0.144531,0.69922 0.480469,1.3711 0.234375,0.47265 0.453125,0.83593 0.480469,0.80468 0.03125,-0.0273 0.05469,-0.008 0.05469,0.043 0,0.20704 -0.164062,0.0703 -0.390625,-0.32812 z m -3.535156,0.30078 c 0,-0.0234 0.01953,-0.0391 0.03906,-0.0391 0.02344,0 0.04297,0.0156 0.04297,0.0391 0,0.0234 -0.01953,0.0391 -0.04297,0.0391 -0.01953,0 -0.03906,-0.0156 -0.03906,-0.0391 z m 3.949219,-0.17188 c 0.03125,-0.0312 0.07813,-0.0312 0.109375,0 0.02734,0.0273 0.0039,0.0508 -0.05469,0.0508 -0.05859,0 -0.08203,-0.0234 -0.05469,-0.0508 z m -7.933594,-0.082 c 0.07813,-0.0234 0.203125,-0.0234 0.28125,0 0.07813,0.0195 0.01172,0.0352 -0.140625,0.0352 -0.152344,0 -0.21875,-0.0156 -0.140625,-0.0352 z m 0.488281,0 c 0.02734,-0.0273 0.07813,-0.0273 0.105469,0 0.03125,0.0312 0.0078,0.0547 -0.05469,0.0547 -0.05859,0 -0.08203,-0.0234 -0.05078,-0.0547 z m 0.769531,-0.0312 c 0.164063,-0.0664 0.179688,-0.0977 0.08203,-0.16015 -0.08203,-0.0508 0.02344,-0.0742 0.335937,-0.0742 0.46875,0 0.6875,0.10937 0.367188,0.18359 -0.101563,0.0234 -0.359375,0.0664 -0.582031,0.0898 -0.328126,0.0391 -0.363282,0.0312 -0.203126,-0.0391 z m -1.839843,-0.20312 -0.277344,-0.20313 0.320313,0.0547 c 0.359374,0.0625 0.460937,0.11328 0.234374,0.11719 -0.152343,0.004 -0.152343,0.008 0,0.12109 0.269532,0.20313 0.01953,0.1211 -0.277343,-0.0898 z m 0.84375,0.0469 c -0.207031,-0.0508 -0.183594,-0.0625 0.160156,-0.0625 0.21875,0 0.488281,0.0273 0.597656,0.0625 0.164063,0.0547 0.132813,0.0664 -0.160156,0.0625 -0.195313,0 -0.464844,-0.0273 -0.597656,-0.0625 z m 0.117187,-0.39453 c -0.351562,-0.0391 0.128906,-0.0703 1.523438,-0.0898 2.609375,-0.0469 3.53125,-0.0195 3.636718,0.0898 0.06641,0.0664 0.01172,0.0742 -0.191406,0.0273 -0.292968,-0.0664 -1.40625,-0.0703 -3.324218,-0.008 -0.617188,0.0195 -1.355469,0.008 -1.644532,-0.0195 z m -0.820312,-0.13672 c 0.05469,-0.0234 0.148437,-0.0234 0.203125,0 0.05469,0.0195 0.0078,0.0391 -0.101563,0.0391 -0.109375,0 -0.15625,-0.0195 -0.101562,-0.0391 z m -0.679688,-0.16016 c -0.226562,-0.082 -0.480468,-0.28125 -0.785156,-0.61328 l -0.441406,-0.49219 0.04297,0.35938 c 0.03516,0.25391 0.02734,0.30859 -0.02734,0.19141 -0.113281,-0.25391 -0.140625,-0.6211 -0.05078,-0.64454 0.04297,-0.0117 0.242187,0.17188 0.441406,0.40625 0.199218,0.23438 0.390625,0.40625 0.433594,0.38282 0.03906,-0.0234 0.04687,-0.004 0.01562,0.043 -0.07422,0.12109 0.222657,0.26953 0.40625,0.20312 0.08203,-0.0273 0.117188,-0.0195 0.08203,0.0195 -0.03516,0.0391 0.05469,0.11328 0.199218,0.16797 0.144532,0.0508 0.210938,0.0937 0.144532,0.0937 -0.06641,0 -0.273438,-0.0508 -0.460938,-0.11719 z m -1.382812,-0.46875 c 0,-0.0234 0.01953,-0.0391 0.04297,-0.0391 0.01953,0 0.03906,0.0156 0.03906,0.0391 0,0.0195 -0.01953,0.0391 -0.03906,0.0391 -0.02344,0 -0.04297,-0.0195 -0.04297,-0.0391 z m 0.640625,-0.40234 c 0,-0.0195 0.01953,-0.0391 0.04297,-0.0391 0.01953,0 0.03906,0.0195 0.03906,0.0391 0,0.0234 -0.01953,0.0391 -0.03906,0.0391 -0.02344,0 -0.04297,-0.0156 -0.04297,-0.0391 z m 8.246093,-0.14844 c -0.06641,-0.0937 -0.261718,-0.37109 -0.429687,-0.61328 -0.261719,-0.37109 -0.269531,-0.39844 -0.0625,-0.17578 0.132813,0.14453 0.257813,0.23437 0.28125,0.19922 0.01953,-0.0352 0.04297,-0.59766 0.05078,-1.25 0.0078,-0.65235 0.04687,-1.26563 0.08203,-1.36328 0.04297,-0.10547 0.05469,0.22265 0.02734,0.82812 -0.03125,0.71094 -0.0039,1.22266 0.08203,1.76172 0.07031,0.41406 0.117188,0.76172 0.109376,0.77344 -0.0078,0.008 -0.07031,-0.0625 -0.140626,-0.16016 z m -1.355468,-0.97265 c 0,-0.0234 0.01563,-0.0391 0.03906,-0.0391 0.01953,0 0.03906,0.0156 0.03906,0.0391 0,0.0234 -0.01953,0.0391 -0.03906,0.0391 -0.02344,0 -0.03906,-0.0156 -0.03906,-0.0391 z m 0.800781,-0.0781 c 0,-0.0234 0.01563,-0.043 0.03906,-0.043 0.01953,0 0.03906,0.0195 0.03906,0.043 0,0.0195 -0.01953,0.0391 -0.03906,0.0391 -0.02344,0 -0.03906,-0.0195 -0.03906,-0.0391 z m -0.574219,-0.61329 c -0.199218,-0.33593 -0.382812,-0.77734 -0.441406,-1.0625 -0.09375,-0.4414 -0.15625,-2.84765 -0.07422,-2.76562 0.01953,0.0195 0.04297,0.50391 0.04687,1.07422 0.0078,0.57422 0.05078,1.27344 0.09766,1.55859 0.08594,0.53516 0.308594,1.00781 0.421876,0.90625 0.03906,-0.0352 0.04297,-0.0156 0.01172,0.0391 -0.0625,0.10156 0.05859,0.38281 0.242188,0.56641 0.105468,0.10156 0.144531,0.2539 0.07031,0.2539 -0.01953,0 -0.1875,-0.25781 -0.375,-0.57031 z m 1.402344,-0.23046 c 0,-0.41797 0.01172,-0.58985 0.03125,-0.37891 0.01563,0.20703 0.01563,0.55078 0,0.76172 -0.01953,0.20703 -0.03125,0.0352 -0.03125,-0.38281 z m -13.164062,0.35937 c 0,-0.0195 0.01953,-0.0391 0.04297,-0.0391 0.01953,0 0.03906,0.0195 0.03906,0.0391 0,0.0234 -0.01953,0.043 -0.03906,0.043 -0.02344,0 -0.04297,-0.0195 -0.04297,-0.043 z m 12.015624,-0.39844 c 0,-0.0234 0.01563,-0.0391 0.03906,-0.0391 0.01953,0 0.03906,0.0156 0.03906,0.0391 0,0.0234 -0.01953,0.0391 -0.03906,0.0391 -0.02344,0 -0.03906,-0.0156 -0.03906,-0.0391 z m -10.519531,-0.5 c -0.02344,-0.0391 0.253907,-0.19922 0.613281,-0.35547 0.734376,-0.32421 1.265626,-0.48437 0.675782,-0.20703 -0.429688,0.20703 -0.539063,0.35938 -0.257813,0.35938 0.109375,0 0.175781,-0.0273 0.152344,-0.0625 -0.01953,-0.0352 0.0039,-0.0898 0.05469,-0.125 0.0625,-0.0352 0.07422,-0.0195 0.03125,0.0508 -0.05078,0.0781 -0.01953,0.0898 0.125,0.0469 0.34375,-0.0937 0.675782,-0.15234 0.632813,-0.10938 -0.0625,0.0664 -1.199219,0.36329 -1.613281,0.41797 -0.203125,0.0273 -0.390625,0.0195 -0.414063,-0.0156 z m 3.550781,0.0195 c 0,-0.0234 0.01953,-0.0391 0.03906,-0.0391 0.02344,0 0.03906,0.0156 0.03906,0.0391 0,0.0195 -0.01563,0.0391 -0.03906,0.0391 -0.01953,0 -0.03906,-0.0195 -0.03906,-0.0391 z m 5.046876,-0.0977 c 0.0625,-0.0273 0.144531,-0.0859 0.175781,-0.13671 0.03906,-0.0547 0.0625,-0.0352 0.0625,0.0547 0,0.0937 -0.05859,0.13672 -0.179688,0.13282 -0.121093,-0.004 -0.140625,-0.0234 -0.05859,-0.0508 z m -0.320313,-0.0625 c 0,-0.0234 0.01563,-0.0391 0.03906,-0.0391 0.01953,0 0.03906,0.0156 0.03906,0.0391 0,0.0195 -0.01953,0.0391 -0.03906,0.0391 -0.02344,0 -0.03906,-0.0195 -0.03906,-0.0391 z m 3.453125,-0.34383 c -0.01172,-0.30859 0.195312,-1.28125 0.355469,-1.66796 0.140625,-0.32813 0.445312,-0.5625 1.316406,-0.9961 1.050781,-0.53125 1.46875,-0.83594 1.773437,-1.30078 0.574219,-0.87891 0.757813,-1.52734 0.679688,-2.44141 -0.05078,-0.58203 -0.363281,-1.49609 -0.574219,-1.66015 -0.05469,-0.0469 -0.175781,-0.23047 -0.265625,-0.40625 -0.152344,-0.30469 -0.160156,-0.3086 -0.203125,-0.11719 -0.01953,0.10938 -0.05859,0.50391 -0.08203,0.88281 -0.02344,0.4336 -0.09766,0.82032 -0.203125,1.06641 -0.222656,0.51562 -1.019531,1.89844 -1.621094,2.80469 -0.269531,0.40234 -0.644531,1.05468 -0.839843,1.44922 -0.191407,0.39453 -0.347657,0.67187 -0.347657,0.61718 0,-0.0547 0.07422,-0.24218 0.164063,-0.41797 0.08984,-0.17578 0.144531,-0.35156 0.117187,-0.39062 -0.02344,-0.0391 0.03125,-0.15234 0.117188,-0.25781 0.316406,-0.36719 0.566406,-0.80078 0.511719,-0.88672 -0.03125,-0.0508 -0.01563,-0.0625 0.03516,-0.0312 0.05078,0.0312 0.144531,-0.0547 0.222656,-0.20703 0.07422,-0.14453 0.179688,-0.31641 0.238281,-0.38282 0.101563,-0.12109 0.117188,-0.15625 0.117188,-0.33593 0,-0.0508 0.02344,-0.0703 0.05078,-0.0391 0.06641,0.0664 0.640625,-0.86329 0.757812,-1.22657 0.04688,-0.15625 0.140626,-0.32422 0.207032,-0.3789 0.06641,-0.0508 0.09766,-0.12891 0.06641,-0.17578 -0.02734,-0.0469 0.02734,-0.1875 0.121094,-0.3125 0.160156,-0.21875 0.210937,-0.57422 0.230468,-1.58204 0.0039,-0.13671 0.05469,-0.3125 0.113282,-0.39062 0.09766,-0.13672 0.121094,-0.12109 0.289062,0.20312 0.101563,0.19141 0.203125,0.3711 0.234375,0.39063 0.625,0.48828 0.875,2.63672 0.410157,3.50391 -0.08594,0.16406 -0.160157,0.34765 -0.160157,0.40234 0,0.0547 -0.02734,0.10156 -0.0625,0.10156 -0.03516,0 -0.128906,0.11328 -0.210937,0.25 -0.08203,0.13672 -0.292969,0.39453 -0.472656,0.56641 -0.261719,0.2539 -0.304688,0.33203 -0.210938,0.39062 0.07422,0.043 0.08203,0.0703 0.01953,0.0742 -0.05078,0 -0.113281,-0.0312 -0.140625,-0.0742 -0.05078,-0.0859 -0.929687,0.32422 -1.320312,0.6211 -0.15625,0.11718 -0.332032,0.21875 -0.390625,0.22656 -0.207031,0.0312 -0.648438,0.59766 -0.699219,0.89844 -0.02344,0.16015 -0.09766,0.47265 -0.160156,0.6914 -0.0625,0.22266 -0.125,0.49219 -0.140625,0.60157 -0.02734,0.15625 -0.03516,0.14453 -0.04297,-0.0625 z m 0.390625,-2.62109 c 0,-0.0234 -0.01953,-0.0391 -0.04297,-0.0391 -0.01953,0 -0.03906,0.0156 -0.03906,0.0391 0,0.0195 0.01953,0.0391 0.03906,0.0391 0.02344,0 0.04297,-0.0195 0.04297,-0.0391 z m 0.07813,-0.16014 c 0,-0.0234 -0.01953,-0.0391 -0.03906,-0.0391 -0.02344,0 -0.03906,0.0156 -0.03906,0.0391 0,0.0195 0.01563,0.0391 0.03906,0.0391 0.01953,0 0.03906,-0.0195 0.03906,-0.0391 z m 1.121094,-1.76563 c 0,-0.0195 -0.01953,-0.0391 -0.03906,-0.0391 -0.02344,0 -0.03906,0.0195 -0.03906,0.0391 0,0.0234 0.01563,0.043 0.03906,0.043 0.01953,0 0.03906,-0.0195 0.03906,-0.043 z m -3.890625,4.50781 c -0.175781,-0.20312 -0.453125,-0.60156 -0.542969,-0.78125 -0.03906,-0.0703 -0.01563,-0.0625 0.05078,0.0195 0.0625,0.0781 0.132813,0.1211 0.15625,0.0977 0.02344,-0.0234 0.06641,0.0469 0.09375,0.16016 0.113281,0.44531 0.167969,0.15625 0.171875,-0.85547 0,-0.77343 0.04297,-1.23437 0.152344,-1.68359 0.08594,-0.33984 0.167969,-0.60547 0.1875,-0.58594 0.01563,0.0156 -0.03125,0.3125 -0.113281,0.66016 -0.15625,0.69531 -0.183594,2.23047 -0.04687,2.80859 0.04297,0.1875 0.07422,0.33984 0.0625,0.33984 -0.0078,0 -0.08594,-0.0781 -0.171875,-0.17968 z m -7.199219,0.0195 c 0.08594,-0.0352 0.214844,-0.0664 0.277344,-0.0664 0.07813,0 0.0625,0.0234 -0.03906,0.0664 -0.08594,0.0391 -0.214843,0.0703 -0.28125,0.0703 -0.07422,0 -0.05859,-0.0234 0.04297,-0.0703 z m 0.5,-0.13281 c 0.05469,-0.0195 0.144531,-0.0195 0.199219,0 0.05469,0.0234 0.01172,0.043 -0.101563,0.043 -0.109375,0 -0.152344,-0.0195 -0.09766,-0.043 z m 0.460938,-0.10156 c 0.08594,-0.0391 0.238281,-0.0742 0.339843,-0.0781 0.09766,-0.004 0.179688,-0.043 0.179688,-0.0859 0,-0.125 -0.917969,-0.0937 -1.457031,0.043 -0.265626,0.0703 -0.5,0.10938 -0.519532,0.0898 -0.01563,-0.0195 0.230469,-0.10156 0.550782,-0.17969 0.757812,-0.1914 1.859374,-0.20312 2.183593,-0.0234 l 0.234375,0.12891 -0.316406,0.0469 c -0.679688,0.10158 -1.359375,0.13283 -1.195312,0.0586 z m 4.925781,-0.125 c 0,-0.0195 0.01563,-0.0391 0.03906,-0.0391 0.01953,0 0.03906,0.0195 0.03906,0.0391 0,0.0234 -0.01953,0.0391 -0.03906,0.0391 -0.02344,0 -0.03906,-0.0156 -0.03906,-0.0391 z m 3.324219,-0.39844 c 0.02344,-0.17968 0.05078,-0.40234 0.06641,-0.5039 0.01172,-0.10157 0.06641,-0.22657 0.121094,-0.28125 0.109374,-0.10547 0.08984,0.0195 -0.121094,0.74218 l -0.105469,0.36329 z m -10.453126,0 c 0,-0.0234 0.01953,-0.043 0.03906,-0.043 0.02344,0 0.03906,0.0195 0.03906,0.043 0,0.0195 -0.01563,0.0391 -0.03906,0.0391 -0.01953,0 -0.03906,-0.0195 -0.03906,-0.0391 z m 7.585938,-0.54297 c -0.105469,-0.1875 -0.277344,-0.48437 -0.378906,-0.66015 -0.210938,-0.35938 -0.140625,-0.3086 0.183594,0.13281 0.121093,0.16406 0.21875,0.33203 0.21875,0.37109 0,0.043 0.07422,0.17188 0.164062,0.28516 0.08984,0.11719 0.128906,0.21094 0.08594,0.21094 -0.04297,0 -0.164063,-0.15235 -0.273438,-0.33985 z m -0.898438,-1.01953 c -0.02734,-0.0469 -0.01172,-0.082 0.03516,-0.082 0.04687,0 0.08594,0.0352 0.08594,0.082 0,0.043 -0.01953,0.0781 -0.03906,0.0781 -0.01953,0 -0.05469,-0.0352 -0.08203,-0.0781 z m 0.05859,-0.38281 c -0.617187,-0.99219 -0.714844,-1.20703 -0.421875,-0.94531 0.08594,0.0781 0.152344,0.16797 0.148438,0.19531 -0.0039,0.0273 0,0.10547 0.0078,0.16797 0.0078,0.0977 0.03516,0.0898 0.128907,-0.0352 0.132812,-0.17578 0.15625,-0.10547 0.03906,0.11328 -0.05859,0.10938 -0.04687,0.16016 0.04297,0.19531 0.07031,0.0273 0.105469,0.082 0.07813,0.125 -0.02734,0.043 0.01563,0.14454 0.09375,0.22657 0.132812,0.14062 0.222656,0.33984 0.152344,0.33984 -0.01953,0 -0.140626,-0.17187 -0.269532,-0.38281 z m 4.792969,0.14063 c 0.05469,-0.10938 0.214844,-0.36329 0.355469,-0.56641 0.480468,-0.68359 1.03125,-1.63281 1.574218,-2.71875 0.296876,-0.59375 0.539063,-1.04688 0.542969,-1 0.01172,0.28516 -0.269531,1.38672 -0.433593,1.70312 -0.109376,0.20704 -0.199219,0.35157 -0.199219,0.31641 -0.0039,-0.0352 0.06641,-0.20312 0.152343,-0.375 0.179688,-0.35156 0.277344,-0.80469 0.175782,-0.80469 -0.03906,0 -0.238282,0.34766 -0.445313,0.76953 -0.203125,0.42579 -0.441406,0.8711 -0.53125,0.9961 -0.08594,0.12109 -0.15625,0.28906 -0.15625,0.37109 0.0039,0.1211 0.03125,0.10938 0.164063,-0.0664 0.242187,-0.32812 0.496094,-0.60156 0.425781,-0.46875 -0.08984,0.1836 -0.585937,0.80078 -0.960937,1.20313 -0.1875,0.19922 -0.433594,0.46875 -0.550782,0.60156 -0.1875,0.21484 -0.199218,0.21875 -0.113281,0.0391 z m -5.394531,-0.19141 c -0.125,-0.0977 -0.40625,-0.24609 -0.628906,-0.32422 -0.285157,-0.10156 -0.375,-0.16797 -0.296876,-0.21484 0.05859,-0.0391 0.140626,-0.0664 0.1875,-0.0664 0.04297,0 0.02344,0.0312 -0.04297,0.0742 -0.08984,0.0586 -0.04687,0.0781 0.160156,0.0781 0.191406,0 0.246094,-0.0234 0.171875,-0.0664 -0.08984,-0.0586 -0.08984,-0.0781 0,-0.11328 0.0625,-0.0234 0.01172,-0.0469 -0.105469,-0.0508 -0.273437,-0.008 -0.332031,-0.10156 -0.183594,-0.29296 0.113282,-0.15235 0.113282,-0.15235 0.117188,0 0,0.0859 0.02344,0.13281 0.05078,0.10546 0.07422,-0.0742 -0.05078,-0.3789 -0.15625,-0.3789 -0.05078,0 -0.164062,-0.21875 -0.246093,-0.48438 -0.109376,-0.33593 -0.175782,-0.45312 -0.230469,-0.3789 -0.05078,0.0703 -0.05859,0.0547 -0.02344,-0.0469 0.02734,-0.082 -0.01953,-0.28125 -0.105469,-0.44141 -0.08203,-0.16015 -0.195312,-0.45312 -0.25,-0.65234 -0.05469,-0.19922 -0.183593,-0.60547 -0.285156,-0.90235 -0.101562,-0.29687 -0.15625,-0.53906 -0.125,-0.53906 0.03125,0 0.175782,0.36719 0.324219,0.82031 0.238281,0.74219 0.652344,1.64063 1.480469,3.21875 0.160156,0.30469 0.332031,0.60157 0.382812,0.66016 0.152344,0.1875 0.03906,0.18359 -0.195312,-0.004 z m 2.671875,-0.0352 c -0.0078,-0.22266 0.203125,-1 0.691406,-2.53906 0.195313,-0.61719 0.402344,-1.33594 0.460937,-1.60156 0.05859,-0.26563 0.113282,-0.38672 0.113282,-0.27344 0.01172,0.33203 -0.160156,1.15234 -0.253906,1.20703 -0.04688,0.0312 -0.08594,0.16406 -0.08594,0.29687 0,0.13672 -0.02734,0.22657 -0.05859,0.20704 -0.03516,-0.0195 -0.105468,0.16796 -0.15625,0.41796 -0.05078,0.25 -0.164062,0.65625 -0.253906,0.90235 -0.08594,0.24609 -0.167969,0.5 -0.179688,0.5664 -0.01172,0.0664 -0.04297,0.17579 -0.06641,0.24219 -0.02734,0.0664 -0.08203,0.26563 -0.125,0.44141 -0.05078,0.20703 -0.07813,0.2539 -0.08594,0.13281 z m 3.277343,0.10547 c 0,-0.0195 0.277344,-0.31641 0.621094,-0.65625 0.375,-0.37891 0.726563,-0.82031 0.886719,-1.125 0.144531,-0.27734 0.277344,-0.5 0.296875,-0.5 0.05859,0 -0.109375,0.37109 -0.351562,0.76953 -0.128907,0.21484 -0.257813,0.48047 -0.289063,0.58984 -0.04297,0.16407 0.01563,0.12891 0.324219,-0.19921 0.242187,-0.25782 0.3125,-0.3086 0.199218,-0.14063 -0.09766,0.14063 -0.328124,0.37891 -0.511718,0.53125 -0.339844,0.27734 -1.175782,0.79688 -1.175782,0.73047 z m -0.882808,-0.48047 c 0,-0.0195 0.01953,-0.0391 0.03906,-0.0391 0.02344,0 0.04297,0.0195 0.04297,0.0391 0,0.0234 -0.01953,0.0391 -0.04297,0.0391 -0.01953,0 -0.03906,-0.0156 -0.03906,-0.0391 z m -6.386719,-0.52343 c -0.214843,-0.0859 -0.238281,-0.23829 -0.03516,-0.23829 0.148437,0 0.335937,0.14454 0.335937,0.25782 0,0.0781 -0.06641,0.0742 -0.300781,-0.0195 z m -0.742187,-0.11719 c 0,-0.0234 0.01953,-0.0391 0.04297,-0.0391 0.01953,0 0.03906,0.0156 0.03906,0.0391 0,0.0234 -0.01953,0.0391 -0.03906,0.0391 -0.02344,0 -0.04297,-0.0156 -0.04297,-0.0391 z m 0.320312,-0.0391 c 0,-0.0586 0.02734,-0.082 0.05469,-0.0547 0.03125,0.0312 0.03125,0.0781 0,0.10937 -0.02734,0.0273 -0.05469,0.004 -0.05469,-0.0547 z m 4.285156,-0.0195 c -0.03125,-0.082 -0.0039,-0.1875 0.07422,-0.26563 0.140625,-0.14453 0.164063,-0.0352 0.05078,0.2461 -0.0625,0.14453 -0.07031,0.14453 -0.125,0.0195 z m -2.613281,-0.16797 c -0.02734,-0.125 -0.01953,-0.51953 0.01953,-0.87891 0.03516,-0.36328 0.09375,-1.08984 0.128907,-1.61718 0.03516,-0.53125 0.07031,-0.80079 0.08203,-0.60157 0.03125,0.5586 -0.175781,3.35157 -0.230469,3.09766 z m 5.617188,0.14844 c 0,-0.0234 0.01953,-0.043 0.03906,-0.043 0.02344,0 0.04297,0.0195 0.04297,0.043 0,0.0195 -0.01953,0.0391 -0.04297,0.0391 -0.01953,0 -0.03906,-0.0195 -0.03906,-0.0391 z m -7.527344,-0.082 c 0,-0.0234 0.01953,-0.0391 0.03906,-0.0391 0.02344,0 0.03906,0.0156 0.03906,0.0391 0,0.0234 -0.01563,0.0391 -0.03906,0.0391 -0.01953,0 -0.03906,-0.0156 -0.03906,-0.0391 z m -4.363281,-0.27735 c -0.02734,-0.0469 0.0039,-0.0625 0.07422,-0.0352 0.140626,0.0547 0.164063,0.11328 0.05078,0.11328 -0.04297,0 -0.09766,-0.0352 -0.125,-0.0781 z m -0.441406,-0.043 c 0,-0.0234 0.01953,-0.0391 0.03906,-0.0391 0.02344,0 0.03906,0.0156 0.03906,0.0391 0,0.0234 -0.01562,0.0391 -0.03906,0.0391 -0.01953,0 -0.03906,-0.0156 -0.03906,-0.0391 z m 14.75,-0.32031 c 0.09766,-0.19531 0.1875,-0.34375 0.207031,-0.32812 0.03516,0.0391 -0.289063,0.6875 -0.34375,0.6875 -0.01953,0 0.04297,-0.16016 0.136719,-0.35938 z m -13.308594,0.0117 c -1.164063,-0.44531 -1.820313,-0.83984 -2.539063,-1.53516 -0.449219,-0.42968 -0.664062,-0.69921 -0.664062,-0.82031 0,-0.17578 0.01172,-0.17969 0.265625,-0.0703 0.5,0.20703 2.984375,1.96094 3.414062,2.40625 0.152344,0.16016 0.257813,0.28516 0.238282,0.28516 -0.01953,-0.004 -0.339844,-0.1211 -0.714844,-0.26563 z m -0.160156,-0.34766 c 0,-0.0586 -0.02734,-0.10546 -0.0625,-0.10546 -0.03516,0 -0.222657,-0.14454 -0.417969,-0.32032 -0.199219,-0.17969 -0.40625,-0.30469 -0.464844,-0.28125 -0.05859,0.0195 -0.08594,0.008 -0.05859,-0.0312 0.05078,-0.0859 -1.171875,-0.89063 -1.355469,-0.89063 -0.06641,0 -0.113281,-0.0391 -0.101562,-0.0898 0.02344,-0.11328 -0.246094,-0.16015 -0.3125,-0.0547 -0.02734,0.0469 0.02734,0.16016 0.121094,0.25 0.132812,0.13282 0.1875,0.14844 0.265625,0.0742 0.05078,-0.0547 0.132812,-0.0977 0.175781,-0.0977 0.04297,0 0.0078,0.0547 -0.07813,0.1211 -0.148437,0.11718 -0.140625,0.1289 0.175781,0.42187 0.378906,0.34375 1.765625,1.12891 1.972656,1.11328 0.07813,-0.004 0.140626,-0.0547 0.140626,-0.10937 z m -1.414063,-0.8789 c 0.02734,-0.0312 0.07813,-0.0312 0.105469,0 0.03125,0.0273 0.0039,0.0547 -0.05469,0.0547 -0.05859,0 -0.08203,-0.0273 -0.05078,-0.0547 z m -0.828125,-0.42969 c 0,-0.0586 0.02344,-0.082 0.05469,-0.0508 0.02734,0.0273 0.02734,0.0781 0,0.10546 -0.03125,0.0312 -0.05469,0.004 -0.05469,-0.0547 z m -0.433594,-0.38672 c -0.02344,-0.0352 0.01172,-0.0664 0.07422,-0.0664 0.0625,0 0.09375,0.0312 0.07031,0.0664 -0.02344,0.0391 -0.05469,0.0664 -0.07031,0.0664 -0.01953,0 -0.05078,-0.0273 -0.07422,-0.0664 z m 4.027344,2.17187 c -0.06641,-0.0781 -0.472656,-0.42969 -0.902344,-0.78125 -0.691406,-0.57422 -1.121094,-0.86328 -2.390625,-1.61719 -0.207031,-0.125 -0.378906,-0.25781 -0.378906,-0.29687 -0.0039,-0.0977 0.667969,0.0117 1.261719,0.20312 0.746094,0.24219 1.546875,0.9375 2.191406,1.90235 0.371094,0.55469 0.503906,0.90625 0.21875,0.58984 z m -0.550781,-0.74609 c 0,-0.14453 -0.253907,-0.47656 -0.371094,-0.47656 -0.05859,0 -0.109375,-0.0508 -0.109375,-0.11329 0,-0.0664 -0.07422,-0.14062 -0.160156,-0.16796 -0.08984,-0.0273 -0.144532,-0.0781 -0.121094,-0.11719 0.05859,-0.0937 -0.589844,-0.59766 -0.921875,-0.71875 -0.878906,-0.31641 -1.191406,-0.23047 -0.523437,0.14844 0.527343,0.29687 1.59375,1.04296 1.632812,1.14062 0.01563,0.0391 0.07031,0.0703 0.121094,0.0703 0.05078,0 0.140625,0.0703 0.195312,0.16016 0.105469,0.16797 0.257813,0.21484 0.257813,0.0742 z m -0.722657,-0.59766 c 0,-0.0195 0.01953,-0.0391 0.04297,-0.0391 0.01953,0 0.03906,0.0195 0.03906,0.0391 0,0.0234 -0.01953,0.043 -0.03906,0.043 -0.02344,0 -0.04297,-0.0195 -0.04297,-0.043 z m -1.441406,-1.03906 c 0,-0.0234 0.01953,-0.043 0.04297,-0.043 0.01953,0 0.03906,0.0195 0.03906,0.043 0,0.0195 -0.01953,0.0391 -0.03906,0.0391 -0.02344,0 -0.04297,-0.0195 -0.04297,-0.0391 z m 9.617188,2.39453 c 0.0039,-0.0937 0.02344,-0.10937 0.05078,-0.0469 0.01953,0.0586 0.01953,0.125 -0.0078,0.15234 -0.02734,0.0273 -0.04687,-0.0195 -0.04297,-0.10546 z m 4.359375,-0.19141 c 0.02734,-0.0469 0.06641,-0.082 0.08984,-0.082 0.01953,0 0.01563,0.0352 -0.01172,0.082 -0.02734,0.043 -0.06641,0.0781 -0.08984,0.0781 -0.01953,0 -0.01563,-0.0352 0.01172,-0.0781 z m -4.261719,-0.40234 c 0,-0.24219 0.01563,-0.33984 0.03516,-0.21875 0.01563,0.12109 0.01563,0.32031 0,0.44141 -0.01953,0.12109 -0.03516,0.0195 -0.03516,-0.22266 z m -3.585938,0.22266 c -0.464843,-1.32032 -0.6875,-2.00391 -0.664062,-2.03125 0.01953,-0.0195 0.148438,0.28125 0.289062,0.66797 0.25,0.68359 0.253907,0.6914 0.21875,0.30078 -0.01562,-0.22266 -0.05469,-0.5625 -0.07812,-0.76172 -0.03906,-0.30469 -0.03516,-0.32422 0.03125,-0.125 0.04297,0.1289 0.113281,0.5625 0.160156,0.96094 0.04687,0.39843 0.105468,0.80859 0.132812,0.90625 0.05078,0.1875 -0.02734,0.25781 -0.08984,0.082 z m 6.925782,-0.10157 c 0,-0.0234 0.01953,-0.0391 0.03906,-0.0391 0.02344,0 0.04297,0.0156 0.04297,0.0391 0,0.0234 -0.01953,0.0391 -0.04297,0.0391 -0.01953,0 -0.03906,-0.0156 -0.03906,-0.0391 z m -9.851563,-0.16015 c 0,-0.0234 0.01953,-0.0391 0.04297,-0.0391 0.01953,0 0.03906,0.0156 0.03906,0.0391 0,0.0234 -0.01953,0.0391 -0.03906,0.0391 -0.02344,0 -0.04297,-0.0156 -0.04297,-0.0391 z m 11.453125,0 c 0,-0.0234 0.01953,-0.0391 0.03906,-0.0391 0.02344,0 0.04297,0.0156 0.04297,0.0391 0,0.0234 -0.01953,0.0391 -0.04297,0.0391 -0.01953,0 -0.03906,-0.0156 -0.03906,-0.0391 z m 0.402344,-0.0391 c 0,-0.0586 0.02344,-0.0859 0.05078,-0.0547 0.03125,0.0273 0.03125,0.0781 0,0.10546 -0.02734,0.0312 -0.05078,0.008 -0.05078,-0.0508 z m -1.84375,-0.043 c 0,-0.0195 0.01953,-0.0391 0.03906,-0.0391 0.02344,0 0.04297,0.0195 0.04297,0.0391 0,0.0234 -0.01953,0.043 -0.04297,0.043 -0.01953,0 -0.03906,-0.0195 -0.03906,-0.043 z m 0.882812,-0.0781 c 0,-0.0234 0.01563,-0.0391 0.03906,-0.0391 0.01953,0 0.03906,0.0156 0.03906,0.0391 0,0.0234 -0.01953,0.0391 -0.03906,0.0391 -0.02344,0 -0.03906,-0.0156 -0.03906,-0.0391 z m 0.644532,-0.0156 c 0.0039,-0.0352 0.03516,-0.13672 0.07422,-0.22657 0.06641,-0.15234 0.07031,-0.15234 0.07422,0.0156 0.0039,0.0977 -0.03125,0.19922 -0.07422,0.22657 -0.04297,0.0273 -0.07812,0.0195 -0.07422,-0.0156 z m -11.617188,-0.0664 c 0,-0.0195 0.01953,-0.0391 0.03906,-0.0391 0.02344,0 0.03906,0.0195 0.03906,0.0391 0,0.0234 -0.01563,0.043 -0.03906,0.043 -0.01953,0 -0.03906,-0.0195 -0.03906,-0.043 z m 12,-0.72656 c -0.0039,-0.51953 -0.02734,-0.69531 -0.0625,-0.51563 -0.04297,0.23828 -0.0625,0.17969 -0.117187,-0.35937 -0.03125,-0.35156 -0.08203,-0.73047 -0.105469,-0.83985 -0.08984,-0.41406 0.117188,-0.0352 0.25,0.45704 0.125,0.46875 0.191406,1.90625 0.08984,2.00781 -0.02344,0.0234 -0.04687,-0.3125 -0.05469,-0.75 z m -5.5625,0.54687 c 0.04687,-0.0781 -0.07422,-0.62109 -0.328125,-1.45703 -0.03125,-0.10937 -0.02734,-0.10937 0.04297,-0.004 0.04297,0.0664 0.15625,0.40235 0.253906,0.75 0.136719,0.4961 0.152344,0.64844 0.07422,0.72266 -0.07422,0.0664 -0.08203,0.0664 -0.04297,-0.0117 z m -3.1875,-0.58203 c -0.03125,-0.3164 -0.144531,-0.84375 -0.25,-1.17969 -0.109375,-0.33593 -0.183594,-0.62109 -0.167968,-0.63671 0.03906,-0.0391 0.265624,0.58984 0.378906,1.04687 0.144531,0.58203 0.222656,0.28906 0.152344,-0.55469 -0.04297,-0.48828 -0.117188,-0.82422 -0.230469,-1.03906 -0.09375,-0.17578 -0.167969,-0.35156 -0.167969,-0.39844 0.0039,-0.043 0.09375,0.0859 0.199219,0.29297 0.25,0.48047 0.371093,1.27344 0.34375,2.22656 -0.03125,0.92969 -0.179688,1.07032 -0.257813,0.24219 z m 3.660156,-0.0117 c 0.01172,-0.33594 -0.0078,-0.59765 -0.04297,-0.57422 -0.09766,0.0586 -0.05859,-1.69922 0.0625,-2.699224 0.05859,-0.5039 0.09375,-0.66796 0.07422,-0.35937 -0.121093,1.949224 -0.140624,2.867194 -0.05078,2.812504 0.05859,-0.0352 0.09375,-0.004 0.09375,0.082 0,0.29688 0.121094,-0.008 0.25,-0.63281 0.07813,-0.36328 0.140625,-0.58203 0.144531,-0.48828 0.0078,0.23437 -0.285156,1.66796 -0.429687,2.11328 l -0.121094,0.35937 z m 4.878907,0.21485 c 0,-0.13282 0.01953,-0.17579 0.03906,-0.0977 0.01953,0.0742 0.01953,0.18359 -0.0039,0.23828 -0.02344,0.0547 -0.03906,-0.008 -0.03516,-0.14063 z m -5.523438,-1.61329 c -0.277343,-1.13671 -0.25,-1.796874 0.140625,-2.976564 0.175782,-0.53515 0.324219,-1.05469 0.324219,-1.15625 0.0039,-0.10156 0.03516,-0.25781 0.07031,-0.34375 0.08984,-0.23047 0.04297,0.60547 -0.105469,1.88281 -0.06641,0.59375 -0.152344,1.585944 -0.1875,2.203134 l -0.0625,1.12109 z m 0.109375,-0.53125 c -0.05859,-0.0391 -0.05469,-0.0586 0.02344,-0.0586 0.08984,0 0.101562,-0.15625 0.07031,-0.80078 -0.01953,-0.437504 -0.0078,-0.777344 0.03125,-0.753904 0.03516,0.0234 0.0625,-0.16797 0.05859,-0.42578 l -0.0078,-0.46485 -0.15625,0.48047 c -0.167969,0.52734 -0.21875,1.375004 -0.113282,2.003914 0.05078,0.30468 0.07813,0.36328 0.125,0.23828 0.03516,-0.0937 0.01953,-0.1836 -0.03125,-0.21875 z m -4.132812,0.98047 c 0,-0.0586 0.02344,-0.082 0.05469,-0.0508 0.02734,0.0273 0.02734,0.0742 0,0.10547 -0.03125,0.0312 -0.05469,0.004 -0.05469,-0.0547 z m 0.398437,-0.0781 c 0,-0.0586 0.02734,-0.082 0.05469,-0.0547 0.03125,0.0312 0.03125,0.0781 0,0.10547 -0.02734,0.0312 -0.05469,0.008 -0.05469,-0.0508 z m 3.21875,-0.5039 c -0.207031,-0.59375 -0.226562,-1.27735 -0.05469,-2.140634 0.121094,-0.60156 0.367187,-1.44922 0.441406,-1.52344 0.02344,-0.0195 0.03906,-0.0742 0.04297,-0.12109 0,-0.043 0.04687,-0.21875 0.105469,-0.38672 0.09375,-0.26562 0.08984,-0.40625 -0.03125,-1.02344 -0.140626,-0.73046 -0.113282,-0.95703 0.08594,-0.67187 0.0625,0.0898 0.148437,0.20312 0.195313,0.25781 0.04297,0.0508 0.08203,0.1211 0.08203,0.15235 0,0.0312 0.08203,0.16796 0.183593,0.30468 0.101563,0.13672 0.25,0.39063 0.324219,0.56641 0.07813,0.17578 0.179688,0.39062 0.222657,0.47266 0.398437,0.71484 0.585937,3.000004 0.328124,4.015624 -0.105468,0.43359 -0.113281,0.15234 -0.01562,-0.71484 0.183593,-1.605474 -0.316407,-3.535164 -1.214844,-4.683604 -0.175782,-0.22656 -0.175782,-0.19531 -0.03125,0.41016 0.125,0.53125 0.06641,0.87891 -0.351563,2.07422 -0.417969,1.20703 -0.472656,2.023444 -0.195312,3.023444 0.164062,0.59765 0.09375,0.58984 -0.117188,-0.0117 z m -3.699219,0.34375 c 0,-0.0586 0.02734,-0.082 0.05469,-0.0547 0.03125,0.0312 0.03125,0.0781 0,0.10547 -0.02734,0.0312 -0.05469,0.008 -0.05469,-0.0508 z m 0.402344,-0.082 c 0,-0.0586 0.02344,-0.082 0.05469,-0.0508 0.02734,0.0273 0.02734,0.0742 0,0.10547 -0.03125,0.0273 -0.05469,0.004 -0.05469,-0.0547 z m -0.480468,-0.16016 c 0,-0.0586 0.02344,-0.082 0.05469,-0.0508 0.02734,0.0273 0.02734,0.0742 0,0.10547 -0.03125,0.0273 -0.05469,0.004 -0.05469,-0.0547 z m -0.460938,-0.25781 c -0.0039,-0.21484 0.0078,-0.23047 0.0625,-0.10156 0.08984,0.21484 0.09375,0.35938 0.01172,0.35938 -0.03906,0 -0.07031,-0.11719 -0.07422,-0.25782 z m 0.753906,-0.0508 c -0.06641,-0.17187 -0.203125,-0.43359 -0.296875,-0.58203 -0.148437,-0.23828 -0.164062,-0.24609 -0.128906,-0.0703 0.105469,0.5 0.148437,0.83984 0.109375,0.80078 -0.02734,-0.0234 -0.105469,-0.3125 -0.175781,-0.64062 -0.07031,-0.33204 -0.148438,-0.699224 -0.175781,-0.820324 -0.08203,-0.38281 0.113281,-0.24218 0.28125,0.199224 0.08984,0.23047 0.253906,0.63281 0.371093,0.89063 0.117188,0.26172 0.195313,0.48828 0.175781,0.5039 -0.01953,0.0195 -0.08984,-0.10547 -0.160156,-0.28125 z m 1.328125,-0.0977 c -0.148437,-0.66015 -0.667969,-1.621094 -1.386719,-2.582034 -0.5,-0.66406 -0.695312,-0.99609 -0.835937,-1.4414 l -0.183594,-0.57813 -0.01953,1.28125 c -0.01172,0.88672 -0.03516,1.13281 -0.06641,0.80469 -0.04297,-0.42578 -0.05078,-0.97656 -0.01953,-1.86328 0.0039,-0.14453 0.04297,-0.26172 0.08594,-0.26172 0.109375,0 0.292969,0.3789 0.355469,0.73828 0.03125,0.16406 0.101562,0.34375 0.15625,0.40234 0.05469,0.0547 0.125,0.16407 0.15625,0.24219 0.02734,0.0781 0.09375,0.13281 0.144531,0.12109 0.05078,-0.0117 0.121094,0.0781 0.15625,0.19532 0.06641,0.23437 0.269531,0.48437 0.335938,0.41797 0.02344,-0.0234 0.07812,0.0586 0.121093,0.18359 0.04297,0.12109 0.15625,0.30859 0.25,0.41406 0.09375,0.10938 0.167969,0.23828 0.167969,0.29688 0,0.0547 0.03906,0.11328 0.08594,0.1289 0.04687,0.0156 0.09375,0.082 0.101562,0.14844 0.01172,0.0664 0.09375,0.24609 0.183594,0.398444 0.203125,0.33984 0.375,0.94922 0.339844,1.19922 -0.01953,0.125 -0.0625,0.0391 -0.128907,-0.2461 z m -1.542969,-3.078124 c 0,-0.0234 -0.01562,-0.0391 -0.03906,-0.0391 -0.01953,0 -0.03906,0.0156 -0.03906,0.0391 0,0.0234 0.01953,0.0391 0.03906,0.0391 0.02344,0 0.03906,-0.0156 0.03906,-0.0391 z m -5.285156,3.203134 c 0,-0.0195 0.01953,-0.0391 0.04297,-0.0391 0.01953,0 0.03906,0.0195 0.03906,0.0391 0,0.0234 -0.01953,0.043 -0.03906,0.043 -0.02344,0 -0.04297,-0.0195 -0.04297,-0.043 z m -0.691406,-0.0898 c 0.02734,-0.0312 0.07813,-0.0312 0.105469,0 0.03125,0.0273 0.0039,0.0508 -0.05469,0.0508 -0.05859,0 -0.08203,-0.0234 -0.05078,-0.0508 z m 1.28125,-0.082 c 0.02734,-0.0312 0.07813,-0.0312 0.105469,0 0.03125,0.0312 0.0039,0.0547 -0.05469,0.0547 -0.05859,0 -0.08203,-0.0234 -0.05078,-0.0547 z m 5.0625,-0.43359 c -0.117188,-0.22657 -0.195312,-0.4336 -0.175781,-0.45313 0.02344,-0.0195 0.07813,0.043 0.128906,0.13281 0.05078,0.0937 0.125,0.14844 0.164063,0.125 0.04297,-0.0273 0.05469,0.008 0.03125,0.0703 -0.02344,0.0664 -0.0039,0.19531 0.04687,0.29296 0.05078,0.0937 0.07422,0.19141 0.05469,0.21094 -0.02344,0.0234 -0.132812,-0.14844 -0.25,-0.3789 z m -1.046875,0.0859 c -0.03125,-0.13672 -0.03906,-0.26954 -0.01563,-0.28907 0.01953,-0.0195 0.05859,0.0781 0.08594,0.21875 0.06641,0.33594 0.0039,0.39844 -0.07031,0.0703 z m 5.996094,-0.718754 c 0,-0.46485 0.01563,-0.65235 0.03125,-0.42188 0.01563,0.23047 0.01563,0.609384 0,0.839844 -0.01563,0.23047 -0.03125,0.043 -0.03125,-0.417964 z m 4.457031,0.679684 c 0,-0.0234 0.01563,-0.0391 0.03906,-0.0391 0.01953,0 0.03906,0.0156 0.03906,0.0391 0,0.0234 -0.01953,0.0391 -0.03906,0.0391 -0.02344,0 -0.03906,-0.0156 -0.03906,-0.0391 z m -10.566406,-0.5664 c 0.0039,-0.0937 0.02344,-0.113294 0.04687,-0.0508 0.02344,0.0586 0.02344,0.1289 -0.0039,0.15234 -0.02734,0.0273 -0.04687,-0.0195 -0.04297,-0.10156 z m 0.734375,-0.457044 c -0.08984,-0.23046 -0.207031,-0.55468 -0.257813,-0.71875 -0.132812,-0.42578 -0.191406,-0.375 -0.136718,0.11719 0.03125,0.27735 0.02344,0.36719 -0.02344,0.26172 -0.03906,-0.0859 -0.07031,-0.42969 -0.07031,-0.76172 0,-0.58203 0.0039,-0.59375 0.113281,-0.34375 0.05859,0.13672 0.148437,0.27735 0.195312,0.30469 0.04687,0.0312 0.06641,0.12109 0.03906,0.20312 -0.02734,0.082 0.04297,0.41016 0.15625,0.73047 0.234375,0.679694 0.226562,0.812504 -0.01563,0.20703 z m 0.632812,0.16016 c -0.234375,-0.36719 -0.429687,-0.63672 -0.59375,-0.81641 -0.132812,-0.14453 -0.183593,-0.28515 -0.101562,-0.28515 0.04297,0 0.710937,0.9414 0.835937,1.18359 0.140625,0.269534 0.04687,0.214854 -0.140625,-0.082 z m 0.867188,-0.0195 c 0,-0.0195 0.01953,-0.0391 0.04297,-0.0391 0.01953,0 0.03906,0.0195 0.03906,0.0391 0,0.0234 -0.01953,0.0391 -0.03906,0.0391 -0.02344,0 -0.04297,-0.0156 -0.04297,-0.0391 z m -2.304688,-0.23828 c 0,-0.13281 0.01953,-0.17969 0.03906,-0.10156 0.01953,0.0781 0.01953,0.1875 -0.0039,0.24218 -0.01953,0.0547 -0.03516,-0.008 -0.03516,-0.14062 z m 10.851563,0.0312 c -0.04297,-0.15625 -0.03516,-0.15625 0.09375,-0.0391 0.195312,0.17187 0.457031,0.16016 0.652344,-0.0352 0.210937,-0.21094 0.199218,-0.35156 -0.03906,-0.51172 -0.292969,-0.19141 -0.429687,-0.15625 -0.554687,0.13281 -0.08594,0.19532 -0.117188,0.22266 -0.121094,0.0977 -0.0039,-0.0898 0.04687,-0.24218 0.117187,-0.33984 0.08203,-0.11719 0.125,-0.375 0.128907,-0.78125 0.0039,-0.5 -0.01953,-0.63672 -0.152344,-0.78516 -0.08984,-0.0937 -0.203125,-0.26562 -0.253906,-0.375 -0.08984,-0.1875 -0.08984,-0.1914 0.02344,-0.0391 0.277344,0.36329 0.308594,0.37891 0.636719,0.33204 0.613281,-0.082 0.726562,-0.60157 0.234375,-1.0586 -0.292969,-0.27344 -0.304688,-0.27344 -0.410157,-0.11719 -0.0625,0.0898 -0.164062,0.16016 -0.226562,0.16016 -0.0625,0 -0.164062,0.11719 -0.226562,0.26172 -0.0625,0.14453 -0.113282,0.21484 -0.117188,0.15625 -0.0039,-0.14453 0.160156,-0.4375 0.300781,-0.54297 0.09375,-0.0664 0.125,-0.39062 0.15625,-1.52344 0.03906,-1.421873 0.03516,-1.445311 -0.175781,-1.949217 -0.25,-0.597656 -0.738281,-1.273437 -1.058594,-1.464844 -0.386718,-0.234374 -0.746094,-0.625 -0.746094,-0.808593 0,-0.175781 0.105469,-0.265625 0.859376,-0.73047 0.1875,-0.113281 0.441406,-0.3632812 0.5625,-0.5468752 0.121093,-0.1875 0.25,-0.367187 0.289062,-0.394531 0.04297,-0.02734 0.05469,-0.125 0.03125,-0.214844 -0.02734,-0.109375 -0.0078,-0.148438 0.0625,-0.121094 0.0625,0.02344 0.121094,-0.05078 0.152344,-0.195312 0.06641,-0.289063 0.394531,-0.613282 0.558594,-0.550782 0.06641,0.02344 0.214843,0.253907 0.332031,0.507813 0.335937,0.734375 0.355469,0.777344 0.460937,0.960937 0.140625,0.238282 0.746094,0.9062512 0.828125,0.9140642 0.07813,0.0039 0.40625,0.40625 0.472657,0.582031 0.03125,0.08203 -0.08594,0.21875 -0.371094,0.425782 -0.652344,0.480468 -1.195313,1.046874 -1.246094,1.3125 -0.02734,0.136718 -0.08203,0.214843 -0.132812,0.183593 -0.05078,-0.03125 -0.0625,0 -0.03125,0.08594 0.03125,0.07422 0.02344,0.117187 -0.01563,0.09375 -0.07422,-0.04687 -0.199218,0.179687 -0.324218,0.593752 -0.09766,0.32422 -0.140625,2.27734 -0.05469,2.54297 0.03125,0.0937 0.125,0.19531 0.203125,0.22265 0.08203,0.0234 0.195313,0.15235 0.25,0.28516 0.148438,0.36328 0.04687,0.77344 -0.277343,1.09766 -0.15625,0.15625 -0.265626,0.30859 -0.246094,0.33984 0.01953,0.0312 0.03906,0.30078 0.04687,0.59766 0.01563,0.45703 0.03906,0.55078 0.164062,0.58593 0.109375,0.0273 0.148438,0.11328 0.148438,0.33594 0,0.24219 -0.03906,0.31641 -0.203125,0.39063 -0.34375,0.15625 -0.730469,0.12109 -0.78125,-0.0742 z m 0.621094,-6.394532 c 0.02734,-0.125 0.230468,-0.519531 0.449218,-0.875 0.378906,-0.617187 0.699219,-0.9375 1.375,-1.378906 0.164063,-0.109375 0.300782,-0.246094 0.300782,-0.300781 0,-0.05859 -0.304688,-0.398438 -0.679688,-0.753907 -0.578125,-0.546876 -0.734375,-0.7539082 -1.003906,-1.3242202 -0.183594,-0.382813 -0.363282,-0.660156 -0.417969,-0.644532 -0.05078,0.01563 -0.183594,0.210938 -0.296875,0.425782 -0.195312,0.378906 -0.550781,0.894531 -0.804688,1.1679682 -0.06641,0.07031 -0.34375,0.281251 -0.621093,0.464845 -0.273438,0.1875 -0.5,0.371094 -0.5,0.410156 0,0.07422 0.523437,0.578126 0.796875,0.769532 0.371094,0.261718 1.117187,1.65625 1.125,2.089845 0,0.26172 0.21875,0.22265 0.277344,-0.05078 z m -9.566407,5.960942 c 0,-0.0234 0.01953,-0.0391 0.03906,-0.0391 0.02344,0 0.03906,0.0156 0.03906,0.0391 0,0.0234 -0.01563,0.0391 -0.03906,0.0391 -0.01953,0 -0.03906,-0.0156 -0.03906,-0.0391 z m 4.128907,-0.39454 c -0.05469,-0.375 -0.164063,-0.48046 -0.230469,-0.22656 -0.01953,0.0781 -0.03906,-0.10937 -0.04687,-0.41406 -0.0078,-0.54297 -0.0039,-0.55078 0.140625,-0.40234 0.08594,0.0859 0.132812,0.18359 0.113281,0.22265 -0.01953,0.0352 0.0078,0.29688 0.05859,0.58203 0.05469,0.28516 0.08203,0.53907 0.05859,0.5586 -0.01953,0.0234 -0.0625,-0.1211 -0.09375,-0.32032 z m 0.355468,-0.96875 c 0,-0.0195 0.01953,-0.0391 0.03906,-0.0391 0.02344,0 0.04297,0.0195 0.04297,0.0391 0,0.0234 -0.01953,0.043 -0.04297,0.043 -0.01953,0 -0.03906,-0.0195 -0.03906,-0.043 z m -5.925781,-0.55859 c 0,-0.0234 0.01953,-0.0391 0.03906,-0.0391 0.02344,0 0.03906,0.0156 0.03906,0.0391 0,0.0195 -0.01563,0.0391 -0.03906,0.0391 -0.01953,0 -0.03906,-0.0195 -0.03906,-0.0391 z m 4.484375,0 c 0,-0.0234 0.01953,-0.0391 0.03906,-0.0391 0.02344,0 0.04297,0.0156 0.04297,0.0391 0,0.0195 -0.01953,0.0391 -0.04297,0.0391 -0.01953,0 -0.03906,-0.0195 -0.03906,-0.0391 z m 0.726562,-0.16797 c 0.0039,-0.0937 0.02344,-0.11328 0.05078,-0.0469 0.01953,0.0547 0.01953,0.125 -0.0078,0.15234 -0.02734,0.0273 -0.04687,-0.0195 -0.04297,-0.10546 z M 6.5137635,12.949449 c 0,-0.02344 0.01953,-0.03906 0.04297,-0.03906 0.01953,0 0.03906,0.01563 0.03906,0.03906 0,0.02344 -0.01953,0.03906 -0.03906,0.03906 -0.02344,0 -0.04297,-0.01563 -0.04297,-0.03906 z M 25.572357,8.2228848 c 0,-0.02344 0.01953,-0.03906 0.04297,-0.03906 0.01953,0 0.03906,0.01563 0.03906,0.03906 0,0.01953 -0.01953,0.03906 -0.03906,0.03906 -0.02344,0 -0.04297,-0.01953 -0.04297,-0.03906 z m 0,0"
     id="path1" />
  <text
     xml:space="preserve"
     style="font-size:56.5733px;fill:#ffffff;stroke:#ffffff;stroke-width:2.94003;stroke-opacity:1"
     x="43.129547"
     y="45.209"
     id="text1"
     transform="scale(0.98462179,1.0156184)"><tspan
       sodipodi:role="line"
       id="tspan1"
       x="43.129547"
       y="45.209"
       style="fill:#ffffff;stroke:#ffffff;stroke-width:2.94003;stroke-opacity:1">CEIBO</tspan></text>
</svg>
